%TF.GenerationSoftware,KiCad,Pcbnew,8.0.7*%
%TF.CreationDate,2025-04-18T18:12:16+03:00*%
%TF.ProjectId,PUBG_KEY,50554247-5f4b-4455-992e-6b696361645f,rev?*%
%TF.SameCoordinates,Original*%
%TF.FileFunction,Legend,Top*%
%TF.FilePolarity,Positive*%
%FSLAX46Y46*%
G04 Gerber Fmt 4.6, Leading zero omitted, Abs format (unit mm)*
G04 Created by KiCad (PCBNEW 8.0.7) date 2025-04-18 18:12:16*
%MOMM*%
%LPD*%
G01*
G04 APERTURE LIST*
%ADD10C,0.300000*%
%ADD11C,0.125000*%
%ADD12C,0.100000*%
%ADD13C,0.120000*%
G04 APERTURE END LIST*
D10*
X52385912Y-88340224D02*
X53885912Y-87840224D01*
X53885912Y-87840224D02*
X52385912Y-87340224D01*
X53885912Y-86625939D02*
X53814484Y-86768796D01*
X53814484Y-86768796D02*
X53743055Y-86840225D01*
X53743055Y-86840225D02*
X53600198Y-86911653D01*
X53600198Y-86911653D02*
X53171626Y-86911653D01*
X53171626Y-86911653D02*
X53028769Y-86840225D01*
X53028769Y-86840225D02*
X52957341Y-86768796D01*
X52957341Y-86768796D02*
X52885912Y-86625939D01*
X52885912Y-86625939D02*
X52885912Y-86411653D01*
X52885912Y-86411653D02*
X52957341Y-86268796D01*
X52957341Y-86268796D02*
X53028769Y-86197368D01*
X53028769Y-86197368D02*
X53171626Y-86125939D01*
X53171626Y-86125939D02*
X53600198Y-86125939D01*
X53600198Y-86125939D02*
X53743055Y-86197368D01*
X53743055Y-86197368D02*
X53814484Y-86268796D01*
X53814484Y-86268796D02*
X53885912Y-86411653D01*
X53885912Y-86411653D02*
X53885912Y-86625939D01*
X53885912Y-85268796D02*
X53814484Y-85411653D01*
X53814484Y-85411653D02*
X53671626Y-85483082D01*
X53671626Y-85483082D02*
X52385912Y-85483082D01*
X53885912Y-84697368D02*
X52385912Y-84697368D01*
X53314484Y-84554511D02*
X53885912Y-84125939D01*
X52885912Y-84125939D02*
X53457341Y-84697368D01*
X53885912Y-83268796D02*
X53814484Y-83411653D01*
X53814484Y-83411653D02*
X53743055Y-83483082D01*
X53743055Y-83483082D02*
X53600198Y-83554510D01*
X53600198Y-83554510D02*
X53171626Y-83554510D01*
X53171626Y-83554510D02*
X53028769Y-83483082D01*
X53028769Y-83483082D02*
X52957341Y-83411653D01*
X52957341Y-83411653D02*
X52885912Y-83268796D01*
X52885912Y-83268796D02*
X52885912Y-83054510D01*
X52885912Y-83054510D02*
X52957341Y-82911653D01*
X52957341Y-82911653D02*
X53028769Y-82840225D01*
X53028769Y-82840225D02*
X53171626Y-82768796D01*
X53171626Y-82768796D02*
X53600198Y-82768796D01*
X53600198Y-82768796D02*
X53743055Y-82840225D01*
X53743055Y-82840225D02*
X53814484Y-82911653D01*
X53814484Y-82911653D02*
X53885912Y-83054510D01*
X53885912Y-83054510D02*
X53885912Y-83268796D01*
X52885912Y-82268796D02*
X53885912Y-81911653D01*
X53885912Y-81911653D02*
X52885912Y-81554510D01*
X52385912Y-79554510D02*
X52385912Y-79268796D01*
X52385912Y-79268796D02*
X52457341Y-79125939D01*
X52457341Y-79125939D02*
X52600198Y-78983082D01*
X52600198Y-78983082D02*
X52885912Y-78911653D01*
X52885912Y-78911653D02*
X53385912Y-78911653D01*
X53385912Y-78911653D02*
X53671626Y-78983082D01*
X53671626Y-78983082D02*
X53814484Y-79125939D01*
X53814484Y-79125939D02*
X53885912Y-79268796D01*
X53885912Y-79268796D02*
X53885912Y-79554510D01*
X53885912Y-79554510D02*
X53814484Y-79697368D01*
X53814484Y-79697368D02*
X53671626Y-79840225D01*
X53671626Y-79840225D02*
X53385912Y-79911653D01*
X53385912Y-79911653D02*
X52885912Y-79911653D01*
X52885912Y-79911653D02*
X52600198Y-79840225D01*
X52600198Y-79840225D02*
X52457341Y-79697368D01*
X52457341Y-79697368D02*
X52385912Y-79554510D01*
X53885912Y-78054510D02*
X53814484Y-78197367D01*
X53814484Y-78197367D02*
X53671626Y-78268796D01*
X53671626Y-78268796D02*
X52385912Y-78268796D01*
X53814484Y-76911653D02*
X53885912Y-77054510D01*
X53885912Y-77054510D02*
X53885912Y-77340225D01*
X53885912Y-77340225D02*
X53814484Y-77483082D01*
X53814484Y-77483082D02*
X53671626Y-77554510D01*
X53671626Y-77554510D02*
X53100198Y-77554510D01*
X53100198Y-77554510D02*
X52957341Y-77483082D01*
X52957341Y-77483082D02*
X52885912Y-77340225D01*
X52885912Y-77340225D02*
X52885912Y-77054510D01*
X52885912Y-77054510D02*
X52957341Y-76911653D01*
X52957341Y-76911653D02*
X53100198Y-76840225D01*
X53100198Y-76840225D02*
X53243055Y-76840225D01*
X53243055Y-76840225D02*
X53385912Y-77554510D01*
X52885912Y-75554511D02*
X54100198Y-75554511D01*
X54100198Y-75554511D02*
X54243055Y-75625939D01*
X54243055Y-75625939D02*
X54314484Y-75697368D01*
X54314484Y-75697368D02*
X54385912Y-75840225D01*
X54385912Y-75840225D02*
X54385912Y-76054511D01*
X54385912Y-76054511D02*
X54314484Y-76197368D01*
X53814484Y-75554511D02*
X53885912Y-75697368D01*
X53885912Y-75697368D02*
X53885912Y-75983082D01*
X53885912Y-75983082D02*
X53814484Y-76125939D01*
X53814484Y-76125939D02*
X53743055Y-76197368D01*
X53743055Y-76197368D02*
X53600198Y-76268796D01*
X53600198Y-76268796D02*
X53171626Y-76268796D01*
X53171626Y-76268796D02*
X53028769Y-76197368D01*
X53028769Y-76197368D02*
X52957341Y-76125939D01*
X52957341Y-76125939D02*
X52885912Y-75983082D01*
X52885912Y-75983082D02*
X52885912Y-75697368D01*
X52885912Y-75697368D02*
X52957341Y-75554511D01*
X54943685Y-80625937D02*
X54872257Y-80554509D01*
X54872257Y-80554509D02*
X54800828Y-80411652D01*
X54800828Y-80411652D02*
X54800828Y-80054509D01*
X54800828Y-80054509D02*
X54872257Y-79911652D01*
X54872257Y-79911652D02*
X54943685Y-79840223D01*
X54943685Y-79840223D02*
X55086542Y-79768794D01*
X55086542Y-79768794D02*
X55229400Y-79768794D01*
X55229400Y-79768794D02*
X55443685Y-79840223D01*
X55443685Y-79840223D02*
X56300828Y-80697366D01*
X56300828Y-80697366D02*
X56300828Y-79768794D01*
X54800828Y-78840223D02*
X54800828Y-78697366D01*
X54800828Y-78697366D02*
X54872257Y-78554509D01*
X54872257Y-78554509D02*
X54943685Y-78483081D01*
X54943685Y-78483081D02*
X55086542Y-78411652D01*
X55086542Y-78411652D02*
X55372257Y-78340223D01*
X55372257Y-78340223D02*
X55729400Y-78340223D01*
X55729400Y-78340223D02*
X56015114Y-78411652D01*
X56015114Y-78411652D02*
X56157971Y-78483081D01*
X56157971Y-78483081D02*
X56229400Y-78554509D01*
X56229400Y-78554509D02*
X56300828Y-78697366D01*
X56300828Y-78697366D02*
X56300828Y-78840223D01*
X56300828Y-78840223D02*
X56229400Y-78983081D01*
X56229400Y-78983081D02*
X56157971Y-79054509D01*
X56157971Y-79054509D02*
X56015114Y-79125938D01*
X56015114Y-79125938D02*
X55729400Y-79197366D01*
X55729400Y-79197366D02*
X55372257Y-79197366D01*
X55372257Y-79197366D02*
X55086542Y-79125938D01*
X55086542Y-79125938D02*
X54943685Y-79054509D01*
X54943685Y-79054509D02*
X54872257Y-78983081D01*
X54872257Y-78983081D02*
X54800828Y-78840223D01*
X54943685Y-77768795D02*
X54872257Y-77697367D01*
X54872257Y-77697367D02*
X54800828Y-77554510D01*
X54800828Y-77554510D02*
X54800828Y-77197367D01*
X54800828Y-77197367D02*
X54872257Y-77054510D01*
X54872257Y-77054510D02*
X54943685Y-76983081D01*
X54943685Y-76983081D02*
X55086542Y-76911652D01*
X55086542Y-76911652D02*
X55229400Y-76911652D01*
X55229400Y-76911652D02*
X55443685Y-76983081D01*
X55443685Y-76983081D02*
X56300828Y-77840224D01*
X56300828Y-77840224D02*
X56300828Y-76911652D01*
X54800828Y-75554510D02*
X54800828Y-76268796D01*
X54800828Y-76268796D02*
X55515114Y-76340224D01*
X55515114Y-76340224D02*
X55443685Y-76268796D01*
X55443685Y-76268796D02*
X55372257Y-76125939D01*
X55372257Y-76125939D02*
X55372257Y-75768796D01*
X55372257Y-75768796D02*
X55443685Y-75625939D01*
X55443685Y-75625939D02*
X55515114Y-75554510D01*
X55515114Y-75554510D02*
X55657971Y-75483081D01*
X55657971Y-75483081D02*
X56015114Y-75483081D01*
X56015114Y-75483081D02*
X56157971Y-75554510D01*
X56157971Y-75554510D02*
X56229400Y-75625939D01*
X56229400Y-75625939D02*
X56300828Y-75768796D01*
X56300828Y-75768796D02*
X56300828Y-76125939D01*
X56300828Y-76125939D02*
X56229400Y-76268796D01*
X56229400Y-76268796D02*
X56157971Y-76340224D01*
X92911653Y-94800828D02*
X92411653Y-94086542D01*
X92054510Y-94800828D02*
X92054510Y-93300828D01*
X92054510Y-93300828D02*
X92625939Y-93300828D01*
X92625939Y-93300828D02*
X92768796Y-93372257D01*
X92768796Y-93372257D02*
X92840225Y-93443685D01*
X92840225Y-93443685D02*
X92911653Y-93586542D01*
X92911653Y-93586542D02*
X92911653Y-93800828D01*
X92911653Y-93800828D02*
X92840225Y-93943685D01*
X92840225Y-93943685D02*
X92768796Y-94015114D01*
X92768796Y-94015114D02*
X92625939Y-94086542D01*
X92625939Y-94086542D02*
X92054510Y-94086542D01*
X93554510Y-94800828D02*
X93554510Y-93300828D01*
X94197368Y-94729400D02*
X94411654Y-94800828D01*
X94411654Y-94800828D02*
X94768796Y-94800828D01*
X94768796Y-94800828D02*
X94911654Y-94729400D01*
X94911654Y-94729400D02*
X94983082Y-94657971D01*
X94983082Y-94657971D02*
X95054511Y-94515114D01*
X95054511Y-94515114D02*
X95054511Y-94372257D01*
X95054511Y-94372257D02*
X94983082Y-94229400D01*
X94983082Y-94229400D02*
X94911654Y-94157971D01*
X94911654Y-94157971D02*
X94768796Y-94086542D01*
X94768796Y-94086542D02*
X94483082Y-94015114D01*
X94483082Y-94015114D02*
X94340225Y-93943685D01*
X94340225Y-93943685D02*
X94268796Y-93872257D01*
X94268796Y-93872257D02*
X94197368Y-93729400D01*
X94197368Y-93729400D02*
X94197368Y-93586542D01*
X94197368Y-93586542D02*
X94268796Y-93443685D01*
X94268796Y-93443685D02*
X94340225Y-93372257D01*
X94340225Y-93372257D02*
X94483082Y-93300828D01*
X94483082Y-93300828D02*
X94840225Y-93300828D01*
X94840225Y-93300828D02*
X95054511Y-93372257D01*
X96554510Y-94657971D02*
X96483082Y-94729400D01*
X96483082Y-94729400D02*
X96268796Y-94800828D01*
X96268796Y-94800828D02*
X96125939Y-94800828D01*
X96125939Y-94800828D02*
X95911653Y-94729400D01*
X95911653Y-94729400D02*
X95768796Y-94586542D01*
X95768796Y-94586542D02*
X95697367Y-94443685D01*
X95697367Y-94443685D02*
X95625939Y-94157971D01*
X95625939Y-94157971D02*
X95625939Y-93943685D01*
X95625939Y-93943685D02*
X95697367Y-93657971D01*
X95697367Y-93657971D02*
X95768796Y-93515114D01*
X95768796Y-93515114D02*
X95911653Y-93372257D01*
X95911653Y-93372257D02*
X96125939Y-93300828D01*
X96125939Y-93300828D02*
X96268796Y-93300828D01*
X96268796Y-93300828D02*
X96483082Y-93372257D01*
X96483082Y-93372257D02*
X96554510Y-93443685D01*
X97197367Y-94229400D02*
X98340225Y-94229400D01*
X98840225Y-93300828D02*
X99340225Y-94800828D01*
X99340225Y-94800828D02*
X99840225Y-93300828D01*
X93554510Y-75800828D02*
X93554510Y-74300828D01*
X93554510Y-74300828D02*
X93911653Y-74300828D01*
X93911653Y-74300828D02*
X94125939Y-74372257D01*
X94125939Y-74372257D02*
X94268796Y-74515114D01*
X94268796Y-74515114D02*
X94340225Y-74657971D01*
X94340225Y-74657971D02*
X94411653Y-74943685D01*
X94411653Y-74943685D02*
X94411653Y-75157971D01*
X94411653Y-75157971D02*
X94340225Y-75443685D01*
X94340225Y-75443685D02*
X94268796Y-75586542D01*
X94268796Y-75586542D02*
X94125939Y-75729400D01*
X94125939Y-75729400D02*
X93911653Y-75800828D01*
X93911653Y-75800828D02*
X93554510Y-75800828D01*
X95054510Y-75229400D02*
X96197368Y-75229400D01*
X95625939Y-75800828D02*
X95625939Y-74657971D01*
X94340225Y-76872257D02*
X94197368Y-76800828D01*
X94197368Y-76800828D02*
X93983082Y-76800828D01*
X93983082Y-76800828D02*
X93768796Y-76872257D01*
X93768796Y-76872257D02*
X93625939Y-77015114D01*
X93625939Y-77015114D02*
X93554510Y-77157971D01*
X93554510Y-77157971D02*
X93483082Y-77443685D01*
X93483082Y-77443685D02*
X93483082Y-77657971D01*
X93483082Y-77657971D02*
X93554510Y-77943685D01*
X93554510Y-77943685D02*
X93625939Y-78086542D01*
X93625939Y-78086542D02*
X93768796Y-78229400D01*
X93768796Y-78229400D02*
X93983082Y-78300828D01*
X93983082Y-78300828D02*
X94125939Y-78300828D01*
X94125939Y-78300828D02*
X94340225Y-78229400D01*
X94340225Y-78229400D02*
X94411653Y-78157971D01*
X94411653Y-78157971D02*
X94411653Y-77657971D01*
X94411653Y-77657971D02*
X94125939Y-77657971D01*
X95054510Y-78300828D02*
X95054510Y-76800828D01*
X95054510Y-76800828D02*
X95911653Y-78300828D01*
X95911653Y-78300828D02*
X95911653Y-76800828D01*
X96625939Y-78300828D02*
X96625939Y-76800828D01*
X96625939Y-76800828D02*
X96983082Y-76800828D01*
X96983082Y-76800828D02*
X97197368Y-76872257D01*
X97197368Y-76872257D02*
X97340225Y-77015114D01*
X97340225Y-77015114D02*
X97411654Y-77157971D01*
X97411654Y-77157971D02*
X97483082Y-77443685D01*
X97483082Y-77443685D02*
X97483082Y-77657971D01*
X97483082Y-77657971D02*
X97411654Y-77943685D01*
X97411654Y-77943685D02*
X97340225Y-78086542D01*
X97340225Y-78086542D02*
X97197368Y-78229400D01*
X97197368Y-78229400D02*
X96983082Y-78300828D01*
X96983082Y-78300828D02*
X96625939Y-78300828D01*
X93054510Y-70229400D02*
X94197368Y-70229400D01*
X93625939Y-70800828D02*
X93625939Y-69657971D01*
X95625939Y-69300828D02*
X94911653Y-69300828D01*
X94911653Y-69300828D02*
X94840225Y-70015114D01*
X94840225Y-70015114D02*
X94911653Y-69943685D01*
X94911653Y-69943685D02*
X95054511Y-69872257D01*
X95054511Y-69872257D02*
X95411653Y-69872257D01*
X95411653Y-69872257D02*
X95554511Y-69943685D01*
X95554511Y-69943685D02*
X95625939Y-70015114D01*
X95625939Y-70015114D02*
X95697368Y-70157971D01*
X95697368Y-70157971D02*
X95697368Y-70515114D01*
X95697368Y-70515114D02*
X95625939Y-70657971D01*
X95625939Y-70657971D02*
X95554511Y-70729400D01*
X95554511Y-70729400D02*
X95411653Y-70800828D01*
X95411653Y-70800828D02*
X95054511Y-70800828D01*
X95054511Y-70800828D02*
X94911653Y-70729400D01*
X94911653Y-70729400D02*
X94840225Y-70657971D01*
X96125939Y-69300828D02*
X96625939Y-70800828D01*
X96625939Y-70800828D02*
X97125939Y-69300828D01*
X93554510Y-73300828D02*
X93554510Y-71800828D01*
X93554510Y-71800828D02*
X93911653Y-71800828D01*
X93911653Y-71800828D02*
X94125939Y-71872257D01*
X94125939Y-71872257D02*
X94268796Y-72015114D01*
X94268796Y-72015114D02*
X94340225Y-72157971D01*
X94340225Y-72157971D02*
X94411653Y-72443685D01*
X94411653Y-72443685D02*
X94411653Y-72657971D01*
X94411653Y-72657971D02*
X94340225Y-72943685D01*
X94340225Y-72943685D02*
X94268796Y-73086542D01*
X94268796Y-73086542D02*
X94125939Y-73229400D01*
X94125939Y-73229400D02*
X93911653Y-73300828D01*
X93911653Y-73300828D02*
X93554510Y-73300828D01*
X95054510Y-72729400D02*
X96197368Y-72729400D01*
D11*
X66664999Y-73850464D02*
X66414999Y-73493321D01*
X66236428Y-73850464D02*
X66236428Y-73100464D01*
X66236428Y-73100464D02*
X66522142Y-73100464D01*
X66522142Y-73100464D02*
X66593571Y-73136178D01*
X66593571Y-73136178D02*
X66629285Y-73171892D01*
X66629285Y-73171892D02*
X66664999Y-73243321D01*
X66664999Y-73243321D02*
X66664999Y-73350464D01*
X66664999Y-73350464D02*
X66629285Y-73421892D01*
X66629285Y-73421892D02*
X66593571Y-73457607D01*
X66593571Y-73457607D02*
X66522142Y-73493321D01*
X66522142Y-73493321D02*
X66236428Y-73493321D01*
X67379285Y-73850464D02*
X66950714Y-73850464D01*
X67164999Y-73850464D02*
X67164999Y-73100464D01*
X67164999Y-73100464D02*
X67093571Y-73207607D01*
X67093571Y-73207607D02*
X67022142Y-73279035D01*
X67022142Y-73279035D02*
X66950714Y-73314750D01*
X92815356Y-84530464D02*
X92565356Y-84173321D01*
X92386785Y-84530464D02*
X92386785Y-83780464D01*
X92386785Y-83780464D02*
X92672499Y-83780464D01*
X92672499Y-83780464D02*
X92743928Y-83816178D01*
X92743928Y-83816178D02*
X92779642Y-83851892D01*
X92779642Y-83851892D02*
X92815356Y-83923321D01*
X92815356Y-83923321D02*
X92815356Y-84030464D01*
X92815356Y-84030464D02*
X92779642Y-84101892D01*
X92779642Y-84101892D02*
X92743928Y-84137607D01*
X92743928Y-84137607D02*
X92672499Y-84173321D01*
X92672499Y-84173321D02*
X92386785Y-84173321D01*
X93529642Y-84530464D02*
X93101071Y-84530464D01*
X93315356Y-84530464D02*
X93315356Y-83780464D01*
X93315356Y-83780464D02*
X93243928Y-83887607D01*
X93243928Y-83887607D02*
X93172499Y-83959035D01*
X93172499Y-83959035D02*
X93101071Y-83994750D01*
X93993928Y-83780464D02*
X94065357Y-83780464D01*
X94065357Y-83780464D02*
X94136785Y-83816178D01*
X94136785Y-83816178D02*
X94172500Y-83851892D01*
X94172500Y-83851892D02*
X94208214Y-83923321D01*
X94208214Y-83923321D02*
X94243928Y-84066178D01*
X94243928Y-84066178D02*
X94243928Y-84244750D01*
X94243928Y-84244750D02*
X94208214Y-84387607D01*
X94208214Y-84387607D02*
X94172500Y-84459035D01*
X94172500Y-84459035D02*
X94136785Y-84494750D01*
X94136785Y-84494750D02*
X94065357Y-84530464D01*
X94065357Y-84530464D02*
X93993928Y-84530464D01*
X93993928Y-84530464D02*
X93922500Y-84494750D01*
X93922500Y-84494750D02*
X93886785Y-84459035D01*
X93886785Y-84459035D02*
X93851071Y-84387607D01*
X93851071Y-84387607D02*
X93815357Y-84244750D01*
X93815357Y-84244750D02*
X93815357Y-84066178D01*
X93815357Y-84066178D02*
X93851071Y-83923321D01*
X93851071Y-83923321D02*
X93886785Y-83851892D01*
X93886785Y-83851892D02*
X93922500Y-83816178D01*
X93922500Y-83816178D02*
X93993928Y-83780464D01*
X83344999Y-82669035D02*
X83309285Y-82704750D01*
X83309285Y-82704750D02*
X83202142Y-82740464D01*
X83202142Y-82740464D02*
X83130714Y-82740464D01*
X83130714Y-82740464D02*
X83023571Y-82704750D01*
X83023571Y-82704750D02*
X82952142Y-82633321D01*
X82952142Y-82633321D02*
X82916428Y-82561892D01*
X82916428Y-82561892D02*
X82880714Y-82419035D01*
X82880714Y-82419035D02*
X82880714Y-82311892D01*
X82880714Y-82311892D02*
X82916428Y-82169035D01*
X82916428Y-82169035D02*
X82952142Y-82097607D01*
X82952142Y-82097607D02*
X83023571Y-82026178D01*
X83023571Y-82026178D02*
X83130714Y-81990464D01*
X83130714Y-81990464D02*
X83202142Y-81990464D01*
X83202142Y-81990464D02*
X83309285Y-82026178D01*
X83309285Y-82026178D02*
X83344999Y-82061892D01*
X83594999Y-81990464D02*
X84059285Y-81990464D01*
X84059285Y-81990464D02*
X83809285Y-82276178D01*
X83809285Y-82276178D02*
X83916428Y-82276178D01*
X83916428Y-82276178D02*
X83987857Y-82311892D01*
X83987857Y-82311892D02*
X84023571Y-82347607D01*
X84023571Y-82347607D02*
X84059285Y-82419035D01*
X84059285Y-82419035D02*
X84059285Y-82597607D01*
X84059285Y-82597607D02*
X84023571Y-82669035D01*
X84023571Y-82669035D02*
X83987857Y-82704750D01*
X83987857Y-82704750D02*
X83916428Y-82740464D01*
X83916428Y-82740464D02*
X83702142Y-82740464D01*
X83702142Y-82740464D02*
X83630714Y-82704750D01*
X83630714Y-82704750D02*
X83594999Y-82669035D01*
X76374999Y-82769035D02*
X76339285Y-82804750D01*
X76339285Y-82804750D02*
X76232142Y-82840464D01*
X76232142Y-82840464D02*
X76160714Y-82840464D01*
X76160714Y-82840464D02*
X76053571Y-82804750D01*
X76053571Y-82804750D02*
X75982142Y-82733321D01*
X75982142Y-82733321D02*
X75946428Y-82661892D01*
X75946428Y-82661892D02*
X75910714Y-82519035D01*
X75910714Y-82519035D02*
X75910714Y-82411892D01*
X75910714Y-82411892D02*
X75946428Y-82269035D01*
X75946428Y-82269035D02*
X75982142Y-82197607D01*
X75982142Y-82197607D02*
X76053571Y-82126178D01*
X76053571Y-82126178D02*
X76160714Y-82090464D01*
X76160714Y-82090464D02*
X76232142Y-82090464D01*
X76232142Y-82090464D02*
X76339285Y-82126178D01*
X76339285Y-82126178D02*
X76374999Y-82161892D01*
X77017857Y-82340464D02*
X77017857Y-82840464D01*
X76839285Y-82054750D02*
X76660714Y-82590464D01*
X76660714Y-82590464D02*
X77124999Y-82590464D01*
X99386071Y-86160464D02*
X99136071Y-85803321D01*
X98957500Y-86160464D02*
X98957500Y-85410464D01*
X98957500Y-85410464D02*
X99243214Y-85410464D01*
X99243214Y-85410464D02*
X99314643Y-85446178D01*
X99314643Y-85446178D02*
X99350357Y-85481892D01*
X99350357Y-85481892D02*
X99386071Y-85553321D01*
X99386071Y-85553321D02*
X99386071Y-85660464D01*
X99386071Y-85660464D02*
X99350357Y-85731892D01*
X99350357Y-85731892D02*
X99314643Y-85767607D01*
X99314643Y-85767607D02*
X99243214Y-85803321D01*
X99243214Y-85803321D02*
X98957500Y-85803321D01*
X100028929Y-85660464D02*
X100028929Y-86160464D01*
X99707500Y-85660464D02*
X99707500Y-86053321D01*
X99707500Y-86053321D02*
X99743214Y-86124750D01*
X99743214Y-86124750D02*
X99814643Y-86160464D01*
X99814643Y-86160464D02*
X99921786Y-86160464D01*
X99921786Y-86160464D02*
X99993214Y-86124750D01*
X99993214Y-86124750D02*
X100028929Y-86089035D01*
X100386071Y-85660464D02*
X100386071Y-86160464D01*
X100386071Y-85731892D02*
X100421785Y-85696178D01*
X100421785Y-85696178D02*
X100493214Y-85660464D01*
X100493214Y-85660464D02*
X100600357Y-85660464D01*
X100600357Y-85660464D02*
X100671785Y-85696178D01*
X100671785Y-85696178D02*
X100707500Y-85767607D01*
X100707500Y-85767607D02*
X100707500Y-86160464D01*
X84348571Y-67625464D02*
X84348571Y-68232607D01*
X84348571Y-68232607D02*
X84384285Y-68304035D01*
X84384285Y-68304035D02*
X84420000Y-68339750D01*
X84420000Y-68339750D02*
X84491428Y-68375464D01*
X84491428Y-68375464D02*
X84634285Y-68375464D01*
X84634285Y-68375464D02*
X84705714Y-68339750D01*
X84705714Y-68339750D02*
X84741428Y-68304035D01*
X84741428Y-68304035D02*
X84777142Y-68232607D01*
X84777142Y-68232607D02*
X84777142Y-67625464D01*
X85098571Y-68339750D02*
X85205714Y-68375464D01*
X85205714Y-68375464D02*
X85384285Y-68375464D01*
X85384285Y-68375464D02*
X85455714Y-68339750D01*
X85455714Y-68339750D02*
X85491428Y-68304035D01*
X85491428Y-68304035D02*
X85527142Y-68232607D01*
X85527142Y-68232607D02*
X85527142Y-68161178D01*
X85527142Y-68161178D02*
X85491428Y-68089750D01*
X85491428Y-68089750D02*
X85455714Y-68054035D01*
X85455714Y-68054035D02*
X85384285Y-68018321D01*
X85384285Y-68018321D02*
X85241428Y-67982607D01*
X85241428Y-67982607D02*
X85169999Y-67946892D01*
X85169999Y-67946892D02*
X85134285Y-67911178D01*
X85134285Y-67911178D02*
X85098571Y-67839750D01*
X85098571Y-67839750D02*
X85098571Y-67768321D01*
X85098571Y-67768321D02*
X85134285Y-67696892D01*
X85134285Y-67696892D02*
X85169999Y-67661178D01*
X85169999Y-67661178D02*
X85241428Y-67625464D01*
X85241428Y-67625464D02*
X85419999Y-67625464D01*
X85419999Y-67625464D02*
X85527142Y-67661178D01*
X86098571Y-67982607D02*
X86205714Y-68018321D01*
X86205714Y-68018321D02*
X86241428Y-68054035D01*
X86241428Y-68054035D02*
X86277142Y-68125464D01*
X86277142Y-68125464D02*
X86277142Y-68232607D01*
X86277142Y-68232607D02*
X86241428Y-68304035D01*
X86241428Y-68304035D02*
X86205714Y-68339750D01*
X86205714Y-68339750D02*
X86134285Y-68375464D01*
X86134285Y-68375464D02*
X85848571Y-68375464D01*
X85848571Y-68375464D02*
X85848571Y-67625464D01*
X85848571Y-67625464D02*
X86098571Y-67625464D01*
X86098571Y-67625464D02*
X86170000Y-67661178D01*
X86170000Y-67661178D02*
X86205714Y-67696892D01*
X86205714Y-67696892D02*
X86241428Y-67768321D01*
X86241428Y-67768321D02*
X86241428Y-67839750D01*
X86241428Y-67839750D02*
X86205714Y-67911178D01*
X86205714Y-67911178D02*
X86170000Y-67946892D01*
X86170000Y-67946892D02*
X86098571Y-67982607D01*
X86098571Y-67982607D02*
X85848571Y-67982607D01*
X93167499Y-89550464D02*
X92917499Y-89193321D01*
X92738928Y-89550464D02*
X92738928Y-88800464D01*
X92738928Y-88800464D02*
X93024642Y-88800464D01*
X93024642Y-88800464D02*
X93096071Y-88836178D01*
X93096071Y-88836178D02*
X93131785Y-88871892D01*
X93131785Y-88871892D02*
X93167499Y-88943321D01*
X93167499Y-88943321D02*
X93167499Y-89050464D01*
X93167499Y-89050464D02*
X93131785Y-89121892D01*
X93131785Y-89121892D02*
X93096071Y-89157607D01*
X93096071Y-89157607D02*
X93024642Y-89193321D01*
X93024642Y-89193321D02*
X92738928Y-89193321D01*
X93524642Y-89550464D02*
X93667499Y-89550464D01*
X93667499Y-89550464D02*
X93738928Y-89514750D01*
X93738928Y-89514750D02*
X93774642Y-89479035D01*
X93774642Y-89479035D02*
X93846071Y-89371892D01*
X93846071Y-89371892D02*
X93881785Y-89229035D01*
X93881785Y-89229035D02*
X93881785Y-88943321D01*
X93881785Y-88943321D02*
X93846071Y-88871892D01*
X93846071Y-88871892D02*
X93810357Y-88836178D01*
X93810357Y-88836178D02*
X93738928Y-88800464D01*
X93738928Y-88800464D02*
X93596071Y-88800464D01*
X93596071Y-88800464D02*
X93524642Y-88836178D01*
X93524642Y-88836178D02*
X93488928Y-88871892D01*
X93488928Y-88871892D02*
X93453214Y-88943321D01*
X93453214Y-88943321D02*
X93453214Y-89121892D01*
X93453214Y-89121892D02*
X93488928Y-89193321D01*
X93488928Y-89193321D02*
X93524642Y-89229035D01*
X93524642Y-89229035D02*
X93596071Y-89264750D01*
X93596071Y-89264750D02*
X93738928Y-89264750D01*
X93738928Y-89264750D02*
X93810357Y-89229035D01*
X93810357Y-89229035D02*
X93846071Y-89193321D01*
X93846071Y-89193321D02*
X93881785Y-89121892D01*
X62874999Y-68769035D02*
X62839285Y-68804750D01*
X62839285Y-68804750D02*
X62732142Y-68840464D01*
X62732142Y-68840464D02*
X62660714Y-68840464D01*
X62660714Y-68840464D02*
X62553571Y-68804750D01*
X62553571Y-68804750D02*
X62482142Y-68733321D01*
X62482142Y-68733321D02*
X62446428Y-68661892D01*
X62446428Y-68661892D02*
X62410714Y-68519035D01*
X62410714Y-68519035D02*
X62410714Y-68411892D01*
X62410714Y-68411892D02*
X62446428Y-68269035D01*
X62446428Y-68269035D02*
X62482142Y-68197607D01*
X62482142Y-68197607D02*
X62553571Y-68126178D01*
X62553571Y-68126178D02*
X62660714Y-68090464D01*
X62660714Y-68090464D02*
X62732142Y-68090464D01*
X62732142Y-68090464D02*
X62839285Y-68126178D01*
X62839285Y-68126178D02*
X62874999Y-68161892D01*
X63124999Y-68090464D02*
X63624999Y-68090464D01*
X63624999Y-68090464D02*
X63303571Y-68840464D01*
X69928571Y-78950464D02*
X69928571Y-79557607D01*
X69928571Y-79557607D02*
X69964285Y-79629035D01*
X69964285Y-79629035D02*
X70000000Y-79664750D01*
X70000000Y-79664750D02*
X70071428Y-79700464D01*
X70071428Y-79700464D02*
X70214285Y-79700464D01*
X70214285Y-79700464D02*
X70285714Y-79664750D01*
X70285714Y-79664750D02*
X70321428Y-79629035D01*
X70321428Y-79629035D02*
X70357142Y-79557607D01*
X70357142Y-79557607D02*
X70357142Y-78950464D01*
X71107142Y-79700464D02*
X70678571Y-79700464D01*
X70892856Y-79700464D02*
X70892856Y-78950464D01*
X70892856Y-78950464D02*
X70821428Y-79057607D01*
X70821428Y-79057607D02*
X70749999Y-79129035D01*
X70749999Y-79129035D02*
X70678571Y-79164750D01*
X61933321Y-77957142D02*
X62290464Y-77957142D01*
X61540464Y-78207142D02*
X61933321Y-77957142D01*
X61933321Y-77957142D02*
X61540464Y-77707142D01*
X62290464Y-77064285D02*
X62290464Y-77492856D01*
X62290464Y-77278571D02*
X61540464Y-77278571D01*
X61540464Y-77278571D02*
X61647607Y-77349999D01*
X61647607Y-77349999D02*
X61719035Y-77421428D01*
X61719035Y-77421428D02*
X61754750Y-77492856D01*
X77182499Y-71340464D02*
X76932499Y-70983321D01*
X76753928Y-71340464D02*
X76753928Y-70590464D01*
X76753928Y-70590464D02*
X77039642Y-70590464D01*
X77039642Y-70590464D02*
X77111071Y-70626178D01*
X77111071Y-70626178D02*
X77146785Y-70661892D01*
X77146785Y-70661892D02*
X77182499Y-70733321D01*
X77182499Y-70733321D02*
X77182499Y-70840464D01*
X77182499Y-70840464D02*
X77146785Y-70911892D01*
X77146785Y-70911892D02*
X77111071Y-70947607D01*
X77111071Y-70947607D02*
X77039642Y-70983321D01*
X77039642Y-70983321D02*
X76753928Y-70983321D01*
X77468214Y-70661892D02*
X77503928Y-70626178D01*
X77503928Y-70626178D02*
X77575357Y-70590464D01*
X77575357Y-70590464D02*
X77753928Y-70590464D01*
X77753928Y-70590464D02*
X77825357Y-70626178D01*
X77825357Y-70626178D02*
X77861071Y-70661892D01*
X77861071Y-70661892D02*
X77896785Y-70733321D01*
X77896785Y-70733321D02*
X77896785Y-70804750D01*
X77896785Y-70804750D02*
X77861071Y-70911892D01*
X77861071Y-70911892D02*
X77432499Y-71340464D01*
X77432499Y-71340464D02*
X77896785Y-71340464D01*
X68964286Y-68340464D02*
X68964286Y-67590464D01*
X68964286Y-67590464D02*
X69142857Y-67590464D01*
X69142857Y-67590464D02*
X69250000Y-67626178D01*
X69250000Y-67626178D02*
X69321429Y-67697607D01*
X69321429Y-67697607D02*
X69357143Y-67769035D01*
X69357143Y-67769035D02*
X69392857Y-67911892D01*
X69392857Y-67911892D02*
X69392857Y-68019035D01*
X69392857Y-68019035D02*
X69357143Y-68161892D01*
X69357143Y-68161892D02*
X69321429Y-68233321D01*
X69321429Y-68233321D02*
X69250000Y-68304750D01*
X69250000Y-68304750D02*
X69142857Y-68340464D01*
X69142857Y-68340464D02*
X68964286Y-68340464D01*
X70000000Y-68304750D02*
X69928572Y-68340464D01*
X69928572Y-68340464D02*
X69785715Y-68340464D01*
X69785715Y-68340464D02*
X69714286Y-68304750D01*
X69714286Y-68304750D02*
X69678572Y-68233321D01*
X69678572Y-68233321D02*
X69678572Y-67947607D01*
X69678572Y-67947607D02*
X69714286Y-67876178D01*
X69714286Y-67876178D02*
X69785715Y-67840464D01*
X69785715Y-67840464D02*
X69928572Y-67840464D01*
X69928572Y-67840464D02*
X70000000Y-67876178D01*
X70000000Y-67876178D02*
X70035715Y-67947607D01*
X70035715Y-67947607D02*
X70035715Y-68019035D01*
X70035715Y-68019035D02*
X69678572Y-68090464D01*
X70357143Y-68340464D02*
X70357143Y-67590464D01*
X70357143Y-67876178D02*
X70428572Y-67840464D01*
X70428572Y-67840464D02*
X70571429Y-67840464D01*
X70571429Y-67840464D02*
X70642857Y-67876178D01*
X70642857Y-67876178D02*
X70678572Y-67911892D01*
X70678572Y-67911892D02*
X70714286Y-67983321D01*
X70714286Y-67983321D02*
X70714286Y-68197607D01*
X70714286Y-68197607D02*
X70678572Y-68269035D01*
X70678572Y-68269035D02*
X70642857Y-68304750D01*
X70642857Y-68304750D02*
X70571429Y-68340464D01*
X70571429Y-68340464D02*
X70428572Y-68340464D01*
X70428572Y-68340464D02*
X70357143Y-68304750D01*
X71357143Y-67840464D02*
X71357143Y-68340464D01*
X71035714Y-67840464D02*
X71035714Y-68233321D01*
X71035714Y-68233321D02*
X71071428Y-68304750D01*
X71071428Y-68304750D02*
X71142857Y-68340464D01*
X71142857Y-68340464D02*
X71250000Y-68340464D01*
X71250000Y-68340464D02*
X71321428Y-68304750D01*
X71321428Y-68304750D02*
X71357143Y-68269035D01*
X72035714Y-67840464D02*
X72035714Y-68447607D01*
X72035714Y-68447607D02*
X71999999Y-68519035D01*
X71999999Y-68519035D02*
X71964285Y-68554750D01*
X71964285Y-68554750D02*
X71892856Y-68590464D01*
X71892856Y-68590464D02*
X71785714Y-68590464D01*
X71785714Y-68590464D02*
X71714285Y-68554750D01*
X72035714Y-68304750D02*
X71964285Y-68340464D01*
X71964285Y-68340464D02*
X71821428Y-68340464D01*
X71821428Y-68340464D02*
X71749999Y-68304750D01*
X71749999Y-68304750D02*
X71714285Y-68269035D01*
X71714285Y-68269035D02*
X71678571Y-68197607D01*
X71678571Y-68197607D02*
X71678571Y-67983321D01*
X71678571Y-67983321D02*
X71714285Y-67911892D01*
X71714285Y-67911892D02*
X71749999Y-67876178D01*
X71749999Y-67876178D02*
X71821428Y-67840464D01*
X71821428Y-67840464D02*
X71964285Y-67840464D01*
X71964285Y-67840464D02*
X72035714Y-67876178D01*
X77182499Y-70340464D02*
X76932499Y-69983321D01*
X76753928Y-70340464D02*
X76753928Y-69590464D01*
X76753928Y-69590464D02*
X77039642Y-69590464D01*
X77039642Y-69590464D02*
X77111071Y-69626178D01*
X77111071Y-69626178D02*
X77146785Y-69661892D01*
X77146785Y-69661892D02*
X77182499Y-69733321D01*
X77182499Y-69733321D02*
X77182499Y-69840464D01*
X77182499Y-69840464D02*
X77146785Y-69911892D01*
X77146785Y-69911892D02*
X77111071Y-69947607D01*
X77111071Y-69947607D02*
X77039642Y-69983321D01*
X77039642Y-69983321D02*
X76753928Y-69983321D01*
X77825357Y-69840464D02*
X77825357Y-70340464D01*
X77646785Y-69554750D02*
X77468214Y-70090464D01*
X77468214Y-70090464D02*
X77932499Y-70090464D01*
X99100356Y-91120464D02*
X99100356Y-90370464D01*
X99528927Y-91120464D02*
X99207499Y-90691892D01*
X99528927Y-90370464D02*
X99100356Y-90799035D01*
X100136070Y-91084750D02*
X100064642Y-91120464D01*
X100064642Y-91120464D02*
X99921785Y-91120464D01*
X99921785Y-91120464D02*
X99850356Y-91084750D01*
X99850356Y-91084750D02*
X99814642Y-91013321D01*
X99814642Y-91013321D02*
X99814642Y-90727607D01*
X99814642Y-90727607D02*
X99850356Y-90656178D01*
X99850356Y-90656178D02*
X99921785Y-90620464D01*
X99921785Y-90620464D02*
X100064642Y-90620464D01*
X100064642Y-90620464D02*
X100136070Y-90656178D01*
X100136070Y-90656178D02*
X100171785Y-90727607D01*
X100171785Y-90727607D02*
X100171785Y-90799035D01*
X100171785Y-90799035D02*
X99814642Y-90870464D01*
X100421784Y-90620464D02*
X100600356Y-91120464D01*
X100778927Y-90620464D02*
X100600356Y-91120464D01*
X100600356Y-91120464D02*
X100528927Y-91299035D01*
X100528927Y-91299035D02*
X100493213Y-91334750D01*
X100493213Y-91334750D02*
X100421784Y-91370464D01*
X77182499Y-72340464D02*
X76932499Y-71983321D01*
X76753928Y-72340464D02*
X76753928Y-71590464D01*
X76753928Y-71590464D02*
X77039642Y-71590464D01*
X77039642Y-71590464D02*
X77111071Y-71626178D01*
X77111071Y-71626178D02*
X77146785Y-71661892D01*
X77146785Y-71661892D02*
X77182499Y-71733321D01*
X77182499Y-71733321D02*
X77182499Y-71840464D01*
X77182499Y-71840464D02*
X77146785Y-71911892D01*
X77146785Y-71911892D02*
X77111071Y-71947607D01*
X77111071Y-71947607D02*
X77039642Y-71983321D01*
X77039642Y-71983321D02*
X76753928Y-71983321D01*
X77432499Y-71590464D02*
X77896785Y-71590464D01*
X77896785Y-71590464D02*
X77646785Y-71876178D01*
X77646785Y-71876178D02*
X77753928Y-71876178D01*
X77753928Y-71876178D02*
X77825357Y-71911892D01*
X77825357Y-71911892D02*
X77861071Y-71947607D01*
X77861071Y-71947607D02*
X77896785Y-72019035D01*
X77896785Y-72019035D02*
X77896785Y-72197607D01*
X77896785Y-72197607D02*
X77861071Y-72269035D01*
X77861071Y-72269035D02*
X77825357Y-72304750D01*
X77825357Y-72304750D02*
X77753928Y-72340464D01*
X77753928Y-72340464D02*
X77539642Y-72340464D01*
X77539642Y-72340464D02*
X77468214Y-72304750D01*
X77468214Y-72304750D02*
X77432499Y-72269035D01*
D12*
%TO.C,R1*%
X65310000Y-74210000D02*
X68270000Y-74210000D01*
X65310000Y-75670000D02*
X65310000Y-74210000D01*
D13*
X66552742Y-74417500D02*
X67027258Y-74417500D01*
X66552742Y-75462500D02*
X67027258Y-75462500D01*
D12*
X68270000Y-74210000D02*
X68270000Y-75670000D01*
X68270000Y-75670000D02*
X65310000Y-75670000D01*
%TO.C,R10*%
X91817500Y-84890000D02*
X94777500Y-84890000D01*
X91817500Y-86350000D02*
X91817500Y-84890000D01*
D13*
X93060242Y-85097500D02*
X93534758Y-85097500D01*
X93060242Y-86142500D02*
X93534758Y-86142500D01*
D12*
X94777500Y-84890000D02*
X94777500Y-86350000D01*
X94777500Y-86350000D02*
X91817500Y-86350000D01*
%TO.C,C3*%
X81990000Y-80240000D02*
X84950000Y-80240000D01*
X81990000Y-81700000D02*
X81990000Y-80240000D01*
D13*
X83610580Y-80460000D02*
X83329420Y-80460000D01*
X83610580Y-81480000D02*
X83329420Y-81480000D01*
D12*
X84950000Y-80240000D02*
X84950000Y-81700000D01*
X84950000Y-81700000D02*
X81990000Y-81700000D01*
%TO.C,C4*%
X75820000Y-78920000D02*
X77280000Y-78920000D01*
X75820000Y-81880000D02*
X75820000Y-78920000D01*
D13*
X76040000Y-80259420D02*
X76040000Y-80540580D01*
X77060000Y-80259420D02*
X77060000Y-80540580D01*
D12*
X77280000Y-78920000D02*
X77280000Y-81880000D01*
X77280000Y-81880000D02*
X75820000Y-81880000D01*
%TO.C,Run*%
X95172500Y-84730000D02*
X98532500Y-84730000D01*
X95172500Y-86630000D02*
X95172500Y-84730000D01*
D13*
X95852500Y-86640000D02*
X98537500Y-86640000D01*
D12*
X98532500Y-84730000D02*
X98532500Y-86630000D01*
X98532500Y-86630000D02*
X95172500Y-86630000D01*
D13*
X98537500Y-84720000D02*
X95852500Y-84720000D01*
X98537500Y-86640000D02*
X98537500Y-84720000D01*
D12*
%TO.C,USB*%
X79110000Y-68505000D02*
X79110000Y-79705000D01*
X79110000Y-79705000D02*
X91460000Y-79705000D01*
D13*
X79640000Y-69035000D02*
X80910000Y-69035000D01*
X79640000Y-70305000D02*
X79640000Y-69035000D01*
X81952929Y-72465000D02*
X82350000Y-72465000D01*
X81952929Y-73225000D02*
X82350000Y-73225000D01*
X81952929Y-75005000D02*
X82350000Y-75005000D01*
X81952929Y-75765000D02*
X82350000Y-75765000D01*
X81952929Y-77545000D02*
X82350000Y-77545000D01*
X81952929Y-78305000D02*
X82350000Y-78305000D01*
X82020000Y-69925000D02*
X82350000Y-69925000D01*
X82020000Y-70685000D02*
X82350000Y-70685000D01*
X82350000Y-68975000D02*
X82350000Y-79255000D01*
X82350000Y-71575000D02*
X85010000Y-71575000D01*
X82350000Y-74115000D02*
X85010000Y-74115000D01*
X82350000Y-76655000D02*
X85010000Y-76655000D01*
X82350000Y-79255000D02*
X85010000Y-79255000D01*
X85010000Y-68975000D02*
X82350000Y-68975000D01*
X85010000Y-69925000D02*
X91010000Y-69925000D01*
X85010000Y-69985000D02*
X91010000Y-69985000D01*
X85010000Y-70105000D02*
X91010000Y-70105000D01*
X85010000Y-70225000D02*
X91010000Y-70225000D01*
X85010000Y-70345000D02*
X91010000Y-70345000D01*
X85010000Y-70465000D02*
X91010000Y-70465000D01*
X85010000Y-70585000D02*
X91010000Y-70585000D01*
X85010000Y-72465000D02*
X91010000Y-72465000D01*
X85010000Y-75005000D02*
X91010000Y-75005000D01*
X85010000Y-77545000D02*
X91010000Y-77545000D01*
X85010000Y-79255000D02*
X85010000Y-68975000D01*
X91010000Y-69925000D02*
X91010000Y-70685000D01*
X91010000Y-70685000D02*
X85010000Y-70685000D01*
X91010000Y-72465000D02*
X91010000Y-73225000D01*
X91010000Y-73225000D02*
X85010000Y-73225000D01*
X91010000Y-75005000D02*
X91010000Y-75765000D01*
X91010000Y-75765000D02*
X85010000Y-75765000D01*
X91010000Y-77545000D02*
X91010000Y-78305000D01*
X91010000Y-78305000D02*
X85010000Y-78305000D01*
D12*
X91460000Y-68505000D02*
X79110000Y-68505000D01*
X91460000Y-79705000D02*
X91460000Y-68505000D01*
%TO.C,R9*%
X91812500Y-89910000D02*
X94772500Y-89910000D01*
X91812500Y-91370000D02*
X91812500Y-89910000D01*
D13*
X93055242Y-90117500D02*
X93529758Y-90117500D01*
X93055242Y-91162500D02*
X93529758Y-91162500D01*
D12*
X94772500Y-89910000D02*
X94772500Y-91370000D01*
X94772500Y-91370000D02*
X91812500Y-91370000D01*
%TO.C,C7*%
X61685000Y-69080000D02*
X64645000Y-69080000D01*
X61685000Y-70540000D02*
X61685000Y-69080000D01*
D13*
X63305580Y-69300000D02*
X63024420Y-69300000D01*
X63305580Y-70320000D02*
X63024420Y-70320000D01*
D12*
X64645000Y-69080000D02*
X64645000Y-70540000D01*
X64645000Y-70540000D02*
X61685000Y-70540000D01*
%TO.C,U1*%
X66650000Y-76000000D02*
X66650000Y-83000000D01*
X66650000Y-83000000D02*
X74350000Y-83000000D01*
D13*
X70500000Y-76115000D02*
X68300000Y-76115000D01*
X70500000Y-76115000D02*
X72700000Y-76115000D01*
X70500000Y-82885000D02*
X68300000Y-82885000D01*
X70500000Y-82885000D02*
X72700000Y-82885000D01*
D12*
X74350000Y-76000000D02*
X66650000Y-76000000D01*
X74350000Y-83000000D02*
X74350000Y-76000000D01*
D13*
X66640000Y-76575000D02*
X66310000Y-76815000D01*
X66310000Y-76335000D01*
X66640000Y-76575000D01*
G36*
X66640000Y-76575000D02*
G01*
X66310000Y-76815000D01*
X66310000Y-76335000D01*
X66640000Y-76575000D01*
G37*
D12*
%TO.C,J3*%
X59150000Y-84480000D02*
X59150000Y-95290000D01*
X59150000Y-95290000D02*
X90630000Y-95290000D01*
D13*
X59350000Y-94350000D02*
X59350000Y-95090000D01*
X59350000Y-95090000D02*
X59850000Y-95090000D01*
X59590000Y-84929000D02*
X59590000Y-94850000D01*
X59590000Y-84929000D02*
X90190000Y-84929000D01*
X59590000Y-87889000D02*
X90190000Y-87889000D01*
X59590000Y-92790000D02*
X90190000Y-92790000D01*
X59590000Y-94290000D02*
X90190000Y-94290000D01*
X59590000Y-94850000D02*
X90190000Y-94850000D01*
X66043000Y-91213000D02*
X65996000Y-91259000D01*
X66236000Y-91429000D02*
X66201000Y-91464000D01*
X68340000Y-88915000D02*
X68305000Y-88951000D01*
X68545000Y-89121000D02*
X68498000Y-89167000D01*
X71123000Y-91213000D02*
X71076000Y-91259000D01*
X71316000Y-91429000D02*
X71281000Y-91464000D01*
X73420000Y-88915000D02*
X73385000Y-88951000D01*
X73625000Y-89121000D02*
X73578000Y-89167000D01*
X76203000Y-91213000D02*
X76156000Y-91259000D01*
X76396000Y-91429000D02*
X76361000Y-91464000D01*
X78500000Y-88915000D02*
X78465000Y-88951000D01*
X78705000Y-89121000D02*
X78658000Y-89167000D01*
X81283000Y-91213000D02*
X81236000Y-91259000D01*
X81476000Y-91429000D02*
X81441000Y-91464000D01*
X83580000Y-88915000D02*
X83545000Y-88951000D01*
X83785000Y-89121000D02*
X83738000Y-89167000D01*
X86363000Y-91213000D02*
X86316000Y-91259000D01*
X86556000Y-91429000D02*
X86521000Y-91464000D01*
X88660000Y-88915000D02*
X88625000Y-88951000D01*
X88865000Y-89121000D02*
X88818000Y-89167000D01*
X90190000Y-84929000D02*
X90190000Y-94850000D01*
D12*
X90630000Y-84480000D02*
X59150000Y-84480000D01*
X90630000Y-95290000D02*
X90630000Y-84480000D01*
D13*
X60654573Y-90873042D02*
G75*
G02*
X60655000Y-89506000I1535420J683041D01*
G01*
X61506958Y-88654573D02*
G75*
G02*
X62874000Y-88655000I683041J-1535420D01*
G01*
X62218805Y-91870253D02*
G75*
G02*
X61506000Y-91725000I-28806J1680254D01*
G01*
X62873318Y-91724756D02*
G75*
G02*
X62190000Y-91870000I-683318J1534756D01*
G01*
X63725427Y-89506958D02*
G75*
G02*
X63725000Y-90874000I-1535427J-683042D01*
G01*
X68950000Y-90190000D02*
G75*
G02*
X65590000Y-90190000I-1680000J0D01*
G01*
X65590000Y-90190000D02*
G75*
G02*
X68950000Y-90190000I1680000J0D01*
G01*
X74030000Y-90190000D02*
G75*
G02*
X70670000Y-90190000I-1680000J0D01*
G01*
X70670000Y-90190000D02*
G75*
G02*
X74030000Y-90190000I1680000J0D01*
G01*
X79110000Y-90190000D02*
G75*
G02*
X75750000Y-90190000I-1680000J0D01*
G01*
X75750000Y-90190000D02*
G75*
G02*
X79110000Y-90190000I1680000J0D01*
G01*
X84190000Y-90190000D02*
G75*
G02*
X80830000Y-90190000I-1680000J0D01*
G01*
X80830000Y-90190000D02*
G75*
G02*
X84190000Y-90190000I1680000J0D01*
G01*
X89270000Y-90190000D02*
G75*
G02*
X85910000Y-90190000I-1680000J0D01*
G01*
X85910000Y-90190000D02*
G75*
G02*
X89270000Y-90190000I1680000J0D01*
G01*
D12*
%TO.C,Y1*%
X59150000Y-71650000D02*
X59150000Y-83550000D01*
X59150000Y-83550000D02*
X64750000Y-83550000D01*
D13*
X59425000Y-74465000D02*
X59425000Y-80715000D01*
X64475000Y-74465000D02*
X64475000Y-80715000D01*
D12*
X64750000Y-71650000D02*
X59150000Y-71650000D01*
X64750000Y-83550000D02*
X64750000Y-71650000D01*
D13*
X59425000Y-74465000D02*
G75*
G02*
X64475000Y-74465000I2525000J0D01*
G01*
X64475000Y-80715000D02*
G75*
G02*
X59425000Y-80715000I-2525000J0D01*
G01*
D12*
%TO.C,R2*%
X75627500Y-74820000D02*
X78987500Y-74820000D01*
X75627500Y-76720000D02*
X75627500Y-74820000D01*
D13*
X77080436Y-75035000D02*
X77534564Y-75035000D01*
X77080436Y-76505000D02*
X77534564Y-76505000D01*
D12*
X78987500Y-74820000D02*
X78987500Y-76720000D01*
X78987500Y-76720000D02*
X75627500Y-76720000D01*
%TO.C,Debug*%
X64890000Y-69030000D02*
X64890000Y-72630000D01*
X64890000Y-72630000D02*
X76090000Y-72630000D01*
D13*
X65360000Y-72160000D02*
X65360000Y-70830000D01*
X66690000Y-72160000D02*
X65360000Y-72160000D01*
X67960000Y-69500000D02*
X75640000Y-69500000D01*
X67960000Y-72160000D02*
X67960000Y-69500000D01*
X67960000Y-72160000D02*
X75640000Y-72160000D01*
X75640000Y-72160000D02*
X75640000Y-69500000D01*
D12*
X76090000Y-69030000D02*
X64890000Y-69030000D01*
X76090000Y-72630000D02*
X76090000Y-69030000D01*
%TO.C,R4*%
X75627500Y-72820000D02*
X78987500Y-72820000D01*
X75627500Y-74720000D02*
X75627500Y-72820000D01*
D13*
X77080436Y-73035000D02*
X77534564Y-73035000D01*
X77080436Y-74505000D02*
X77534564Y-74505000D01*
D12*
X78987500Y-72820000D02*
X78987500Y-74720000D01*
X78987500Y-74720000D02*
X75627500Y-74720000D01*
%TO.C,Key*%
X95172500Y-89780000D02*
X98532500Y-89780000D01*
X95172500Y-91680000D02*
X95172500Y-89780000D01*
D13*
X95852500Y-91690000D02*
X98537500Y-91690000D01*
D12*
X98532500Y-89780000D02*
X98532500Y-91680000D01*
X98532500Y-91680000D02*
X95172500Y-91680000D01*
D13*
X98537500Y-89770000D02*
X95852500Y-89770000D01*
X98537500Y-91690000D02*
X98537500Y-89770000D01*
D12*
%TO.C,R3*%
X75627500Y-76820000D02*
X78987500Y-76820000D01*
X75627500Y-78720000D02*
X75627500Y-76820000D01*
D13*
X77080436Y-77035000D02*
X77534564Y-77035000D01*
X77080436Y-78505000D02*
X77534564Y-78505000D01*
D12*
X78987500Y-76820000D02*
X78987500Y-78720000D01*
X78987500Y-78720000D02*
X75627500Y-78720000D01*
%TD*%
M02*
