%TF.GenerationSoftware,KiCad,Pcbnew,8.0.7*%
%TF.CreationDate,2025-04-18T18:12:16+03:00*%
%TF.ProjectId,PUBG_KEY,50554247-5f4b-4455-992e-6b696361645f,rev?*%
%TF.SameCoordinates,Original*%
%TF.FileFunction,Copper,L1,Top*%
%TF.FilePolarity,Positive*%
%FSLAX46Y46*%
G04 Gerber Fmt 4.6, Leading zero omitted, Abs format (unit mm)*
G04 Created by KiCad (PCBNEW 8.0.7) date 2025-04-18 18:12:16*
%MOMM*%
%LPD*%
G01*
G04 APERTURE LIST*
G04 Aperture macros list*
%AMRoundRect*
0 Rectangle with rounded corners*
0 $1 Rounding radius*
0 $2 $3 $4 $5 $6 $7 $8 $9 X,Y pos of 4 corners*
0 Add a 4 corners polygon primitive as box body*
4,1,4,$2,$3,$4,$5,$6,$7,$8,$9,$2,$3,0*
0 Add four circle primitives for the rounded corners*
1,1,$1+$1,$2,$3*
1,1,$1+$1,$4,$5*
1,1,$1+$1,$6,$7*
1,1,$1+$1,$8,$9*
0 Add four rect primitives between the rounded corners*
20,1,$1+$1,$2,$3,$4,$5,0*
20,1,$1+$1,$4,$5,$6,$7,0*
20,1,$1+$1,$6,$7,$8,$9,0*
20,1,$1+$1,$8,$9,$2,$3,0*%
G04 Aperture macros list end*
%TA.AperFunction,SMDPad,CuDef*%
%ADD10RoundRect,0.200000X-0.200000X-0.275000X0.200000X-0.275000X0.200000X0.275000X-0.200000X0.275000X0*%
%TD*%
%TA.AperFunction,SMDPad,CuDef*%
%ADD11RoundRect,0.225000X0.225000X0.250000X-0.225000X0.250000X-0.225000X-0.250000X0.225000X-0.250000X0*%
%TD*%
%TA.AperFunction,SMDPad,CuDef*%
%ADD12RoundRect,0.225000X-0.250000X0.225000X-0.250000X-0.225000X0.250000X-0.225000X0.250000X0.225000X0*%
%TD*%
%TA.AperFunction,SMDPad,CuDef*%
%ADD13RoundRect,0.243750X0.243750X0.456250X-0.243750X0.456250X-0.243750X-0.456250X0.243750X-0.456250X0*%
%TD*%
%TA.AperFunction,ComponentPad*%
%ADD14R,1.700000X1.700000*%
%TD*%
%TA.AperFunction,ComponentPad*%
%ADD15O,1.700000X1.700000*%
%TD*%
%TA.AperFunction,SMDPad,CuDef*%
%ADD16RoundRect,0.100000X-0.637500X-0.100000X0.637500X-0.100000X0.637500X0.100000X-0.637500X0.100000X0*%
%TD*%
%TA.AperFunction,ComponentPad*%
%ADD17R,2.600000X2.600000*%
%TD*%
%TA.AperFunction,ComponentPad*%
%ADD18C,2.600000*%
%TD*%
%TA.AperFunction,ComponentPad*%
%ADD19C,1.500000*%
%TD*%
%TA.AperFunction,SMDPad,CuDef*%
%ADD20RoundRect,0.250000X-0.262500X-0.450000X0.262500X-0.450000X0.262500X0.450000X-0.262500X0.450000X0*%
%TD*%
%TA.AperFunction,ViaPad*%
%ADD21C,1.000000*%
%TD*%
%TA.AperFunction,Conductor*%
%ADD22C,0.300000*%
%TD*%
%TA.AperFunction,Conductor*%
%ADD23C,0.200000*%
%TD*%
G04 APERTURE END LIST*
D10*
%TO.P,R1,1*%
%TO.N,GND*%
X65965000Y-74940000D03*
%TO.P,R1,2*%
%TO.N,Net-(U1-BOOT0{slash}PB8)*%
X67615000Y-74940000D03*
%TD*%
%TO.P,R10,1*%
%TO.N,VDD*%
X92472500Y-85620000D03*
%TO.P,R10,2*%
%TO.N,Net-(D2-A)*%
X94122500Y-85620000D03*
%TD*%
D11*
%TO.P,C3,1*%
%TO.N,VDD*%
X84245000Y-80970000D03*
%TO.P,C3,2*%
%TO.N,GND*%
X82695000Y-80970000D03*
%TD*%
D12*
%TO.P,C4,1*%
%TO.N,VDD*%
X76550000Y-79625000D03*
%TO.P,C4,2*%
%TO.N,GND*%
X76550000Y-81175000D03*
%TD*%
D13*
%TO.P,Run,1,K*%
%TO.N,GND*%
X97790000Y-85680000D03*
%TO.P,Run,2,A*%
%TO.N,Net-(D2-A)*%
X95915000Y-85680000D03*
%TD*%
D14*
%TO.P,USB,1,VBUS*%
%TO.N,+5V*%
X80910000Y-70305000D03*
D15*
%TO.P,USB,2,D-*%
%TO.N,Net-(J2-D-)*%
X80910000Y-72845000D03*
%TO.P,USB,3,D+*%
%TO.N,Net-(J2-D+)*%
X80910000Y-75385000D03*
%TO.P,USB,4,ID*%
%TO.N,GND*%
X80910000Y-77925000D03*
%TD*%
D10*
%TO.P,R9,1*%
%TO.N,LED*%
X92467500Y-90640000D03*
%TO.P,R9,2*%
%TO.N,Net-(D1-A)*%
X94117500Y-90640000D03*
%TD*%
D11*
%TO.P,C7,1*%
%TO.N,VDD*%
X63940000Y-69810000D03*
%TO.P,C7,2*%
%TO.N,GND*%
X62390000Y-69810000D03*
%TD*%
D16*
%TO.P,U1,1,BOOT0/PB8*%
%TO.N,Net-(U1-BOOT0{slash}PB8)*%
X67637500Y-76575000D03*
%TO.P,U1,2,OSC_IN/PD0*%
%TO.N,PD0*%
X67637500Y-77225000D03*
%TO.P,U1,3,OSC_OUT/PD1*%
%TO.N,PD1*%
X67637500Y-77875000D03*
%TO.P,U1,4,NRST*%
%TO.N,Net-(U1-NRST)*%
X67637500Y-78525000D03*
%TO.P,U1,5,VDDA*%
%TO.N,VDD*%
X67637500Y-79175000D03*
%TO.P,U1,6,PA0/WKUP/ADC0*%
%TO.N,KEY1*%
X67637500Y-79825000D03*
%TO.P,U1,7,PA1/ADC1*%
%TO.N,KEY2*%
X67637500Y-80475000D03*
%TO.P,U1,8,PA2/ADC2*%
%TO.N,KEY3*%
X67637500Y-81125000D03*
%TO.P,U1,9,PA3/ADC3*%
%TO.N,KEY4*%
X67637500Y-81775000D03*
%TO.P,U1,10,PA4/ADC4*%
%TO.N,unconnected-(U1-PA4{slash}ADC4-Pad10)*%
X67637500Y-82425000D03*
%TO.P,U1,11,PA5/ADC5*%
%TO.N,unconnected-(U1-PA5{slash}ADC5-Pad11)*%
X73362500Y-82425000D03*
%TO.P,U1,12,PA6/ADC6*%
%TO.N,unconnected-(U1-PA6{slash}ADC6-Pad12)*%
X73362500Y-81775000D03*
%TO.P,U1,13,PA7/ADC7*%
%TO.N,unconnected-(U1-PA7{slash}ADC7-Pad13)*%
X73362500Y-81125000D03*
%TO.P,U1,14,PB1/ADC9*%
%TO.N,LED*%
X73362500Y-80475000D03*
%TO.P,U1,15,VSS*%
%TO.N,GND*%
X73362500Y-79825000D03*
%TO.P,U1,16,VDD*%
%TO.N,VDD*%
X73362500Y-79175000D03*
%TO.P,U1,17,PA11/USB1DM*%
%TO.N,DM*%
X73362500Y-78525000D03*
%TO.P,U1,18,PA12/USB1DP*%
%TO.N,DP*%
X73362500Y-77875000D03*
%TO.P,U1,19,PA13/SWDIO*%
%TO.N,SWDIO*%
X73362500Y-77225000D03*
%TO.P,U1,20,PA14/SWCLK*%
%TO.N,SWCLK*%
X73362500Y-76575000D03*
%TD*%
D17*
%TO.P,J3,1,Pin_1*%
%TO.N,KEY1*%
X62190000Y-90190000D03*
D18*
%TO.P,J3,2,Pin_2*%
%TO.N,GND*%
X67270000Y-90190000D03*
%TO.P,J3,3,Pin_3*%
%TO.N,KEY2*%
X72350000Y-90190000D03*
%TO.P,J3,4,Pin_4*%
%TO.N,KEY3*%
X77430000Y-90190000D03*
%TO.P,J3,5,Pin_5*%
%TO.N,GND*%
X82510000Y-90190000D03*
%TO.P,J3,6,Pin_6*%
%TO.N,KEY4*%
X87590000Y-90190000D03*
%TD*%
D19*
%TO.P,Y1,1,1*%
%TO.N,PD0*%
X61950000Y-75150000D03*
%TO.P,Y1,2,2*%
%TO.N,PD1*%
X61950000Y-80030000D03*
%TD*%
D20*
%TO.P,R2,1*%
%TO.N,DP*%
X76395000Y-75770000D03*
%TO.P,R2,2*%
%TO.N,Net-(J2-D+)*%
X78220000Y-75770000D03*
%TD*%
D14*
%TO.P,Debug,1,Pin_1*%
%TO.N,VDD*%
X66690000Y-70830000D03*
D15*
%TO.P,Debug,2,Pin_2*%
%TO.N,SWDIO*%
X69230000Y-70830000D03*
%TO.P,Debug,3,Pin_3*%
%TO.N,SWCLK*%
X71770000Y-70830000D03*
%TO.P,Debug,4,Pin_4*%
%TO.N,GND*%
X74310000Y-70830000D03*
%TD*%
D20*
%TO.P,R4,1*%
%TO.N,DP*%
X76395000Y-73770000D03*
%TO.P,R4,2*%
%TO.N,VDD*%
X78220000Y-73770000D03*
%TD*%
D13*
%TO.P,Key,1,K*%
%TO.N,GND*%
X97790000Y-90730000D03*
%TO.P,Key,2,A*%
%TO.N,Net-(D1-A)*%
X95915000Y-90730000D03*
%TD*%
D20*
%TO.P,R3,1*%
%TO.N,DM*%
X76395000Y-77770000D03*
%TO.P,R3,2*%
%TO.N,Net-(J2-D-)*%
X78220000Y-77770000D03*
%TD*%
D21*
%TO.N,GND*%
X83180000Y-67790000D03*
X65770000Y-73490000D03*
X87225000Y-70580000D03*
%TO.N,VDD*%
X89070000Y-82050000D03*
X77920000Y-79850000D03*
%TO.N,PD0*%
X65620000Y-76730000D03*
%TO.N,PD1*%
X65650000Y-78100000D03*
%TO.N,Net-(U1-NRST)*%
X65520000Y-79470000D03*
%TO.N,KEY1*%
X63560000Y-85760000D03*
%TO.N,KEY2*%
X70100000Y-85810000D03*
%TO.N,KEY3*%
X77540000Y-85830000D03*
%TO.N,KEY4*%
X85920000Y-85810000D03*
%TO.N,LED*%
X75131459Y-81128541D03*
%TD*%
D22*
%TO.N,GND*%
X65965000Y-73685000D02*
X65770000Y-73490000D01*
X87225000Y-73495000D02*
X87225000Y-70580000D01*
X64860000Y-73490000D02*
X65770000Y-73490000D01*
X82695000Y-80970000D02*
X82695000Y-79710000D01*
X80910000Y-77925000D02*
X82795000Y-77925000D01*
X62390000Y-71020000D02*
X64860000Y-73490000D01*
X97790000Y-80390000D02*
X93650000Y-76250000D01*
X85970000Y-70580000D02*
X83180000Y-67790000D01*
X78715000Y-81175000D02*
X80910000Y-78980000D01*
X87225000Y-70580000D02*
X85970000Y-70580000D01*
X80910000Y-78980000D02*
X80910000Y-77925000D01*
X82795000Y-77925000D02*
X87225000Y-73495000D01*
X93650000Y-76250000D02*
X92895000Y-76250000D01*
X97790000Y-85680000D02*
X97790000Y-90730000D01*
X97790000Y-85680000D02*
X97790000Y-80390000D01*
X62390000Y-69810000D02*
X62390000Y-71020000D01*
X76550000Y-81175000D02*
X78715000Y-81175000D01*
X65965000Y-74940000D02*
X65965000Y-73685000D01*
X92895000Y-76250000D02*
X87225000Y-70580000D01*
X75030000Y-79825000D02*
X76370000Y-81165000D01*
X82695000Y-79710000D02*
X80910000Y-77925000D01*
X73362500Y-79825000D02*
X75030000Y-79825000D01*
%TO.N,VDD*%
X66690000Y-70830000D02*
X66690000Y-69510000D01*
X69190000Y-74690000D02*
X66690000Y-72190000D01*
X67630000Y-68570000D02*
X76140000Y-68570000D01*
X76140000Y-68570000D02*
X78220000Y-70650000D01*
X76550000Y-79625000D02*
X77695000Y-79625000D01*
X67637500Y-79175000D02*
X68675000Y-79175000D01*
X84245000Y-80970000D02*
X87822500Y-80970000D01*
X66530000Y-70830000D02*
X65510000Y-69810000D01*
X87822500Y-80970000D02*
X92472500Y-85620000D01*
X77695000Y-79625000D02*
X77920000Y-79850000D01*
X75930000Y-79175000D02*
X76370000Y-79615000D01*
X73362500Y-79175000D02*
X67637500Y-79175000D01*
X66690000Y-72190000D02*
X66690000Y-70830000D01*
X73362500Y-79175000D02*
X75930000Y-79175000D01*
X69190000Y-78660000D02*
X69190000Y-74690000D01*
X65510000Y-69810000D02*
X63940000Y-69810000D01*
X66690000Y-69510000D02*
X67630000Y-68570000D01*
X68675000Y-79175000D02*
X69190000Y-78660000D01*
X78220000Y-70650000D02*
X78220000Y-73770000D01*
X76300000Y-79685000D02*
X76370000Y-79615000D01*
X66690000Y-70830000D02*
X66530000Y-70830000D01*
%TO.N,PD0*%
X65620000Y-76730000D02*
X66115000Y-77225000D01*
X66115000Y-77225000D02*
X67637500Y-77225000D01*
%TO.N,PD1*%
X65875000Y-77875000D02*
X67637500Y-77875000D01*
D23*
X65650000Y-78100000D02*
X65875000Y-77875000D01*
D22*
%TO.N,Net-(U1-NRST)*%
X67637500Y-78525000D02*
X66655000Y-78525000D01*
X66655000Y-78525000D02*
X66060000Y-79120000D01*
X66060000Y-79120000D02*
X65710000Y-79470000D01*
X65710000Y-79470000D02*
X65520000Y-79470000D01*
%TO.N,KEY1*%
X63560000Y-82720000D02*
X63560000Y-85760000D01*
X66455000Y-79825000D02*
X65730000Y-80550000D01*
X67637500Y-79825000D02*
X66455000Y-79825000D01*
X65730000Y-80550000D02*
X63560000Y-82720000D01*
%TO.N,KEY2*%
X65020000Y-84860000D02*
X65970000Y-85810000D01*
X65970000Y-85810000D02*
X70100000Y-85810000D01*
X67637500Y-80475000D02*
X66535000Y-80475000D01*
X66535000Y-80475000D02*
X66350000Y-80660000D01*
X65020000Y-81990000D02*
X65020000Y-84860000D01*
X66350000Y-80660000D02*
X65020000Y-81990000D01*
%TO.N,KEY3*%
X65530000Y-84050000D02*
X65930000Y-84450000D01*
X65530000Y-82187106D02*
X65530000Y-83660000D01*
X66000000Y-84520000D02*
X76230000Y-84520000D01*
X65930000Y-84450000D02*
X66000000Y-84520000D01*
X76230000Y-84520000D02*
X77540000Y-85830000D01*
X67637500Y-81125000D02*
X66592106Y-81125000D01*
X65530000Y-83660000D02*
X65530000Y-84050000D01*
X66592106Y-81125000D02*
X66307106Y-81410000D01*
X66307106Y-81410000D02*
X65530000Y-82187106D01*
%TO.N,KEY4*%
X84070000Y-83960000D02*
X85920000Y-85810000D01*
X66070000Y-82354212D02*
X66070000Y-83340000D01*
X66267106Y-82157106D02*
X66070000Y-82354212D01*
X66070000Y-83340000D02*
X66690000Y-83960000D01*
X66690000Y-83960000D02*
X71570000Y-83960000D01*
X67637500Y-81775000D02*
X66649212Y-81775000D01*
X71570000Y-83960000D02*
X84070000Y-83960000D01*
X66649212Y-81775000D02*
X66267106Y-82157106D01*
%TO.N,Net-(D1-A)*%
X95915000Y-90730000D02*
X94207500Y-90730000D01*
X94207500Y-90730000D02*
X94117500Y-90640000D01*
%TO.N,Net-(D2-A)*%
X95915000Y-85680000D02*
X94182500Y-85680000D01*
X94182500Y-85680000D02*
X94122500Y-85620000D01*
%TO.N,SWDIO*%
X71945000Y-77225000D02*
X70590000Y-75870000D01*
X70590000Y-74390000D02*
X69230000Y-73030000D01*
X70590000Y-75870000D02*
X70590000Y-74390000D01*
X69230000Y-73030000D02*
X69230000Y-70830000D01*
X73362500Y-77225000D02*
X71945000Y-77225000D01*
%TO.N,SWCLK*%
X72595000Y-76575000D02*
X71770000Y-75750000D01*
X71770000Y-75750000D02*
X71770000Y-70830000D01*
X73362500Y-76575000D02*
X72595000Y-76575000D01*
%TO.N,Net-(J2-D-)*%
X82310000Y-76630000D02*
X82600000Y-76340000D01*
X82600000Y-76340000D02*
X82600000Y-74535000D01*
X79360000Y-76630000D02*
X82310000Y-76630000D01*
X78220000Y-77770000D02*
X79360000Y-76630000D01*
X82600000Y-74535000D02*
X80910000Y-72845000D01*
%TO.N,Net-(J2-D+)*%
X80525000Y-75770000D02*
X80910000Y-75385000D01*
X78220000Y-75770000D02*
X80525000Y-75770000D01*
%TO.N,Net-(U1-BOOT0{slash}PB8)*%
X67637500Y-74962500D02*
X67615000Y-74940000D01*
X67637500Y-76575000D02*
X67637500Y-74962500D01*
%TO.N,DP*%
X73362500Y-77875000D02*
X74775000Y-77875000D01*
X75050000Y-76530000D02*
X75810000Y-75770000D01*
X76395000Y-75770000D02*
X76395000Y-73770000D01*
X75810000Y-75770000D02*
X76395000Y-75770000D01*
X75050000Y-77600000D02*
X75050000Y-76530000D01*
X74775000Y-77875000D02*
X75050000Y-77600000D01*
%TO.N,DM*%
X75640000Y-78525000D02*
X76395000Y-77770000D01*
X73362500Y-78525000D02*
X75640000Y-78525000D01*
%TO.N,LED*%
X92467500Y-88807500D02*
X92467500Y-90640000D01*
X86610000Y-82950000D02*
X92467500Y-88807500D01*
X75810000Y-82950000D02*
X86610000Y-82950000D01*
X75131459Y-81128541D02*
X75131459Y-82271459D01*
X75131459Y-82271459D02*
X75810000Y-82950000D01*
X74477918Y-80475000D02*
X73362500Y-80475000D01*
X75131459Y-81128541D02*
X74477918Y-80475000D01*
%TD*%
%TA.AperFunction,Conductor*%
%TO.N,GND*%
G36*
X75883336Y-69240462D02*
G01*
X75914195Y-69264141D01*
X77525859Y-70875804D01*
X77564423Y-70942599D01*
X77569500Y-70981163D01*
X77569500Y-72594379D01*
X77549538Y-72668879D01*
X77498722Y-72721195D01*
X77488848Y-72727285D01*
X77488845Y-72727287D01*
X77412858Y-72803274D01*
X77346063Y-72841837D01*
X77268935Y-72841837D01*
X77202141Y-72803273D01*
X77126156Y-72727288D01*
X77116278Y-72721195D01*
X76976834Y-72635186D01*
X76853687Y-72594379D01*
X76810298Y-72580001D01*
X76793165Y-72578250D01*
X76707509Y-72569500D01*
X76707504Y-72569500D01*
X76082496Y-72569500D01*
X75979702Y-72580001D01*
X75813166Y-72635186D01*
X75663843Y-72727288D01*
X75539788Y-72851343D01*
X75447686Y-73000666D01*
X75392501Y-73167201D01*
X75382000Y-73269995D01*
X75382000Y-74270003D01*
X75392501Y-74372797D01*
X75447686Y-74539334D01*
X75447687Y-74539337D01*
X75541714Y-74691780D01*
X75563834Y-74765668D01*
X75546046Y-74840717D01*
X75541714Y-74848220D01*
X75447687Y-75000662D01*
X75447686Y-75000666D01*
X75392501Y-75167201D01*
X75392499Y-75167209D01*
X75386469Y-75226237D01*
X75359039Y-75298322D01*
X75343600Y-75316452D01*
X74625387Y-76034666D01*
X74558592Y-76073230D01*
X74481464Y-76073230D01*
X74429323Y-76047517D01*
X74392311Y-76019117D01*
X74302841Y-75950464D01*
X74302840Y-75950463D01*
X74222944Y-75917369D01*
X74156762Y-75889956D01*
X74156760Y-75889955D01*
X74156756Y-75889954D01*
X74156759Y-75889954D01*
X74039366Y-75874500D01*
X74039361Y-75874500D01*
X72876164Y-75874500D01*
X72801664Y-75854538D01*
X72770805Y-75830859D01*
X72464141Y-75524195D01*
X72425577Y-75457400D01*
X72420500Y-75418836D01*
X72420500Y-72100736D01*
X72440462Y-72026236D01*
X72484035Y-71978683D01*
X72641401Y-71868495D01*
X72808495Y-71701401D01*
X72918253Y-71544650D01*
X72977335Y-71495075D01*
X73053291Y-71481682D01*
X73125768Y-71508061D01*
X73162358Y-71544652D01*
X73271888Y-71701076D01*
X73438923Y-71868111D01*
X73632411Y-72003593D01*
X73632420Y-72003599D01*
X73846508Y-72103430D01*
X73846513Y-72103432D01*
X74060000Y-72160634D01*
X74060000Y-71263012D01*
X74117007Y-71295925D01*
X74244174Y-71330000D01*
X74375826Y-71330000D01*
X74502993Y-71295925D01*
X74560000Y-71263012D01*
X74560000Y-72160633D01*
X74773486Y-72103432D01*
X74773491Y-72103430D01*
X74987579Y-72003599D01*
X74987588Y-72003593D01*
X75181076Y-71868111D01*
X75348111Y-71701076D01*
X75483593Y-71507588D01*
X75483599Y-71507579D01*
X75583430Y-71293491D01*
X75583431Y-71293489D01*
X75640636Y-71080000D01*
X74743012Y-71080000D01*
X74775925Y-71022993D01*
X74810000Y-70895826D01*
X74810000Y-70764174D01*
X74775925Y-70637007D01*
X74743012Y-70580000D01*
X75640636Y-70580000D01*
X75640635Y-70579999D01*
X75583431Y-70366512D01*
X75483597Y-70152419D01*
X75348108Y-69958920D01*
X75181076Y-69791888D01*
X74987588Y-69656406D01*
X74987579Y-69656400D01*
X74773491Y-69556569D01*
X74773489Y-69556568D01*
X74612468Y-69513423D01*
X74545673Y-69474859D01*
X74507109Y-69408064D01*
X74507109Y-69330936D01*
X74545673Y-69264141D01*
X74612468Y-69225577D01*
X74651032Y-69220500D01*
X75808836Y-69220500D01*
X75883336Y-69240462D01*
G37*
%TD.AperFunction*%
%TA.AperFunction,Conductor*%
G36*
X102534496Y-67170771D02*
G01*
X102822298Y-67188180D01*
X102840134Y-67190346D01*
X103119307Y-67241506D01*
X103136772Y-67245811D01*
X103407730Y-67330245D01*
X103424546Y-67336622D01*
X103683362Y-67453106D01*
X103699293Y-67461468D01*
X103942163Y-67608288D01*
X103956971Y-67618509D01*
X104041590Y-67684804D01*
X104180377Y-67793536D01*
X104193845Y-67805467D01*
X104394532Y-68006154D01*
X104406463Y-68019622D01*
X104581490Y-68243028D01*
X104591711Y-68257836D01*
X104738531Y-68500706D01*
X104746893Y-68516637D01*
X104863375Y-68775449D01*
X104869755Y-68792273D01*
X104954187Y-69063225D01*
X104958493Y-69080695D01*
X105009651Y-69359852D01*
X105011820Y-69377714D01*
X105029228Y-69665503D01*
X105029500Y-69674499D01*
X105029500Y-93665500D01*
X105029228Y-93674496D01*
X105011820Y-93962285D01*
X105009651Y-93980147D01*
X104958493Y-94259304D01*
X104954187Y-94276774D01*
X104869755Y-94547726D01*
X104863375Y-94564550D01*
X104746893Y-94823362D01*
X104738531Y-94839293D01*
X104591711Y-95082163D01*
X104581490Y-95096971D01*
X104406463Y-95320377D01*
X104394532Y-95333845D01*
X104193845Y-95534532D01*
X104180377Y-95546463D01*
X103956971Y-95721490D01*
X103942163Y-95731711D01*
X103699293Y-95878531D01*
X103683362Y-95886893D01*
X103424550Y-96003375D01*
X103407726Y-96009755D01*
X103136774Y-96094187D01*
X103119304Y-96098493D01*
X102840147Y-96149651D01*
X102822285Y-96151820D01*
X102534497Y-96169228D01*
X102525501Y-96169500D01*
X53534499Y-96169500D01*
X53525503Y-96169228D01*
X53237714Y-96151820D01*
X53219852Y-96149651D01*
X52940695Y-96098493D01*
X52923225Y-96094187D01*
X52652273Y-96009755D01*
X52635449Y-96003375D01*
X52376637Y-95886893D01*
X52360706Y-95878531D01*
X52117836Y-95731711D01*
X52103028Y-95721490D01*
X51879622Y-95546463D01*
X51866154Y-95534532D01*
X51665467Y-95333845D01*
X51653536Y-95320377D01*
X51534518Y-95168462D01*
X51478509Y-95096971D01*
X51468288Y-95082163D01*
X51408579Y-94983393D01*
X51321467Y-94839291D01*
X51313106Y-94823362D01*
X51196622Y-94564546D01*
X51190244Y-94547726D01*
X51176357Y-94503162D01*
X51105811Y-94276772D01*
X51101506Y-94259304D01*
X51097061Y-94235046D01*
X51050346Y-93980134D01*
X51048180Y-93962298D01*
X51030772Y-93674496D01*
X51030636Y-93669994D01*
X51524390Y-93669994D01*
X51524390Y-93670005D01*
X51544802Y-93955417D01*
X51544804Y-93955427D01*
X51605629Y-94235040D01*
X51705633Y-94503162D01*
X51842771Y-94754312D01*
X51946128Y-94892380D01*
X52014261Y-94983395D01*
X52216605Y-95185739D01*
X52353641Y-95288323D01*
X52445687Y-95357228D01*
X52655487Y-95471787D01*
X52696839Y-95494367D01*
X52964954Y-95594369D01*
X53244572Y-95655196D01*
X53244579Y-95655196D01*
X53244582Y-95655197D01*
X53529995Y-95675610D01*
X53530000Y-95675610D01*
X53530005Y-95675610D01*
X53815417Y-95655197D01*
X53815418Y-95655196D01*
X53815428Y-95655196D01*
X54095046Y-95594369D01*
X54363161Y-95494367D01*
X54502911Y-95418057D01*
X54614312Y-95357228D01*
X54645548Y-95333845D01*
X54843395Y-95185739D01*
X55045739Y-94983395D01*
X55217226Y-94754315D01*
X55354367Y-94503161D01*
X55454369Y-94235046D01*
X55515196Y-93955428D01*
X55523311Y-93841969D01*
X55535610Y-93670005D01*
X55535610Y-93669994D01*
X100524390Y-93669994D01*
X100524390Y-93670005D01*
X100544802Y-93955417D01*
X100544804Y-93955427D01*
X100605629Y-94235040D01*
X100705633Y-94503162D01*
X100842771Y-94754312D01*
X100946128Y-94892380D01*
X101014261Y-94983395D01*
X101216605Y-95185739D01*
X101353641Y-95288323D01*
X101445687Y-95357228D01*
X101655487Y-95471787D01*
X101696839Y-95494367D01*
X101964954Y-95594369D01*
X102244572Y-95655196D01*
X102244579Y-95655196D01*
X102244582Y-95655197D01*
X102529995Y-95675610D01*
X102530000Y-95675610D01*
X102530005Y-95675610D01*
X102815417Y-95655197D01*
X102815418Y-95655196D01*
X102815428Y-95655196D01*
X103095046Y-95594369D01*
X103363161Y-95494367D01*
X103502911Y-95418057D01*
X103614312Y-95357228D01*
X103645548Y-95333845D01*
X103843395Y-95185739D01*
X104045739Y-94983395D01*
X104217226Y-94754315D01*
X104354367Y-94503161D01*
X104454369Y-94235046D01*
X104515196Y-93955428D01*
X104523311Y-93841969D01*
X104535610Y-93670005D01*
X104535610Y-93669994D01*
X104515197Y-93384582D01*
X104515196Y-93384579D01*
X104515196Y-93384572D01*
X104454369Y-93104954D01*
X104354367Y-92836839D01*
X104305083Y-92746582D01*
X104217228Y-92585687D01*
X104148323Y-92493641D01*
X104045739Y-92356605D01*
X103843395Y-92154261D01*
X103752380Y-92086128D01*
X103614312Y-91982771D01*
X103363162Y-91845633D01*
X103170122Y-91773633D01*
X103095046Y-91745631D01*
X103095044Y-91745630D01*
X103095040Y-91745629D01*
X102882098Y-91699307D01*
X102815428Y-91684804D01*
X102815426Y-91684803D01*
X102815417Y-91684802D01*
X102530005Y-91664390D01*
X102529995Y-91664390D01*
X102244582Y-91684802D01*
X102244572Y-91684804D01*
X101964959Y-91745629D01*
X101696837Y-91845633D01*
X101445687Y-91982771D01*
X101216606Y-92154260D01*
X101014260Y-92356606D01*
X100842771Y-92585687D01*
X100705633Y-92836837D01*
X100605629Y-93104959D01*
X100544804Y-93384572D01*
X100544802Y-93384582D01*
X100524390Y-93669994D01*
X55535610Y-93669994D01*
X55515197Y-93384582D01*
X55515196Y-93384579D01*
X55515196Y-93384572D01*
X55454369Y-93104954D01*
X55354367Y-92836839D01*
X55305083Y-92746582D01*
X55217228Y-92585687D01*
X55148323Y-92493641D01*
X55045739Y-92356605D01*
X54843395Y-92154261D01*
X54752380Y-92086128D01*
X54614312Y-91982771D01*
X54363162Y-91845633D01*
X54170122Y-91773633D01*
X54095046Y-91745631D01*
X54095044Y-91745630D01*
X54095040Y-91745629D01*
X53882098Y-91699307D01*
X53815428Y-91684804D01*
X53815426Y-91684803D01*
X53815417Y-91684802D01*
X53530005Y-91664390D01*
X53529995Y-91664390D01*
X53244582Y-91684802D01*
X53244572Y-91684804D01*
X52964959Y-91745629D01*
X52696837Y-91845633D01*
X52445687Y-91982771D01*
X52216606Y-92154260D01*
X52014260Y-92356606D01*
X51842771Y-92585687D01*
X51705633Y-92836837D01*
X51605629Y-93104959D01*
X51544804Y-93384572D01*
X51544802Y-93384582D01*
X51524390Y-93669994D01*
X51030636Y-93669994D01*
X51030500Y-93665500D01*
X51030500Y-88842114D01*
X60389500Y-88842114D01*
X60389500Y-91537863D01*
X60389502Y-91537888D01*
X60395908Y-91597478D01*
X60395909Y-91597484D01*
X60446202Y-91732329D01*
X60446204Y-91732333D01*
X60532452Y-91847544D01*
X60532455Y-91847547D01*
X60647666Y-91933795D01*
X60647670Y-91933797D01*
X60782517Y-91984091D01*
X60842114Y-91990499D01*
X60842118Y-91990499D01*
X60842127Y-91990500D01*
X63537872Y-91990499D01*
X63597483Y-91984091D01*
X63693447Y-91948298D01*
X63732329Y-91933797D01*
X63732333Y-91933795D01*
X63789938Y-91890671D01*
X63847546Y-91847546D01*
X63902877Y-91773633D01*
X63933795Y-91732333D01*
X63933797Y-91732329D01*
X63964130Y-91651001D01*
X63984091Y-91597483D01*
X63988285Y-91558475D01*
X63990499Y-91537885D01*
X63990499Y-91537882D01*
X63990500Y-91537873D01*
X63990499Y-90189995D01*
X65464953Y-90189995D01*
X65464953Y-90190004D01*
X65485112Y-90459016D01*
X65485115Y-90459038D01*
X65545143Y-90722039D01*
X65545145Y-90722046D01*
X65643707Y-90973176D01*
X65643709Y-90973181D01*
X65778599Y-91206816D01*
X65778604Y-91206824D01*
X65832295Y-91274150D01*
X66668958Y-90437487D01*
X66693978Y-90497890D01*
X66765112Y-90604351D01*
X66855649Y-90694888D01*
X66962110Y-90766022D01*
X67022511Y-90791041D01*
X66184849Y-91628702D01*
X66367481Y-91753219D01*
X66610532Y-91870266D01*
X66610553Y-91870274D01*
X66868333Y-91949789D01*
X66868337Y-91949790D01*
X67135105Y-91989999D01*
X67135112Y-91990000D01*
X67404888Y-91990000D01*
X67404894Y-91989999D01*
X67671662Y-91949790D01*
X67671666Y-91949789D01*
X67929449Y-91870273D01*
X67929453Y-91870272D01*
X68172526Y-91753215D01*
X68172533Y-91753211D01*
X68355150Y-91628703D01*
X67517488Y-90791041D01*
X67577890Y-90766022D01*
X67684351Y-90694888D01*
X67774888Y-90604351D01*
X67846022Y-90497890D01*
X67871041Y-90437488D01*
X68707703Y-91274150D01*
X68707704Y-91274150D01*
X68761393Y-91206828D01*
X68761398Y-91206820D01*
X68896290Y-90973181D01*
X68896292Y-90973176D01*
X68994854Y-90722046D01*
X68994856Y-90722039D01*
X69054884Y-90459038D01*
X69054887Y-90459016D01*
X69075047Y-90190004D01*
X69075047Y-90189995D01*
X69075047Y-90189994D01*
X70544451Y-90189994D01*
X70544451Y-90190005D01*
X70564615Y-90459090D01*
X70564618Y-90459113D01*
X70624663Y-90722187D01*
X70624665Y-90722194D01*
X70722555Y-90971609D01*
X70723257Y-90973398D01*
X70858185Y-91207102D01*
X70858189Y-91207107D01*
X70972289Y-91350184D01*
X71026439Y-91418085D01*
X71224259Y-91601635D01*
X71447226Y-91753651D01*
X71690359Y-91870738D01*
X71948228Y-91950280D01*
X72215071Y-91990500D01*
X72215074Y-91990500D01*
X72484926Y-91990500D01*
X72484929Y-91990500D01*
X72751772Y-91950280D01*
X73009641Y-91870738D01*
X73252775Y-91753651D01*
X73475741Y-91601635D01*
X73673561Y-91418085D01*
X73841815Y-91207102D01*
X73976743Y-90973398D01*
X74075334Y-90722195D01*
X74126530Y-90497890D01*
X74135381Y-90459113D01*
X74135381Y-90459110D01*
X74135383Y-90459103D01*
X74155549Y-90190000D01*
X74155549Y-90189994D01*
X75624451Y-90189994D01*
X75624451Y-90190005D01*
X75644615Y-90459090D01*
X75644618Y-90459113D01*
X75704663Y-90722187D01*
X75704665Y-90722194D01*
X75802555Y-90971609D01*
X75803257Y-90973398D01*
X75938185Y-91207102D01*
X75938189Y-91207107D01*
X76052289Y-91350184D01*
X76106439Y-91418085D01*
X76304259Y-91601635D01*
X76527226Y-91753651D01*
X76770359Y-91870738D01*
X77028228Y-91950280D01*
X77295071Y-91990500D01*
X77295074Y-91990500D01*
X77564926Y-91990500D01*
X77564929Y-91990500D01*
X77831772Y-91950280D01*
X78089641Y-91870738D01*
X78332775Y-91753651D01*
X78555741Y-91601635D01*
X78753561Y-91418085D01*
X78921815Y-91207102D01*
X79056743Y-90973398D01*
X79155334Y-90722195D01*
X79206530Y-90497890D01*
X79215381Y-90459113D01*
X79215381Y-90459110D01*
X79215383Y-90459103D01*
X79235549Y-90190000D01*
X79235549Y-90189995D01*
X80704953Y-90189995D01*
X80704953Y-90190004D01*
X80725112Y-90459016D01*
X80725115Y-90459038D01*
X80785143Y-90722039D01*
X80785145Y-90722046D01*
X80883707Y-90973176D01*
X80883709Y-90973181D01*
X81018599Y-91206816D01*
X81018604Y-91206824D01*
X81072295Y-91274150D01*
X81908958Y-90437487D01*
X81933978Y-90497890D01*
X82005112Y-90604351D01*
X82095649Y-90694888D01*
X82202110Y-90766022D01*
X82262511Y-90791041D01*
X81424849Y-91628702D01*
X81607481Y-91753219D01*
X81850532Y-91870266D01*
X81850553Y-91870274D01*
X82108333Y-91949789D01*
X82108337Y-91949790D01*
X82375105Y-91989999D01*
X82375112Y-91990000D01*
X82644888Y-91990000D01*
X82644894Y-91989999D01*
X82911662Y-91949790D01*
X82911666Y-91949789D01*
X83169449Y-91870273D01*
X83169453Y-91870272D01*
X83412526Y-91753215D01*
X83412533Y-91753211D01*
X83595150Y-91628703D01*
X82757488Y-90791041D01*
X82817890Y-90766022D01*
X82924351Y-90694888D01*
X83014888Y-90604351D01*
X83086022Y-90497890D01*
X83111041Y-90437488D01*
X83947703Y-91274150D01*
X83947704Y-91274150D01*
X84001393Y-91206828D01*
X84001398Y-91206820D01*
X84136290Y-90973181D01*
X84136292Y-90973176D01*
X84234854Y-90722046D01*
X84234856Y-90722039D01*
X84294884Y-90459038D01*
X84294887Y-90459016D01*
X84315047Y-90190004D01*
X84315047Y-90189995D01*
X84315047Y-90189994D01*
X85784451Y-90189994D01*
X85784451Y-90190005D01*
X85804615Y-90459090D01*
X85804618Y-90459113D01*
X85864663Y-90722187D01*
X85864665Y-90722194D01*
X85962555Y-90971609D01*
X85963257Y-90973398D01*
X86098185Y-91207102D01*
X86098189Y-91207107D01*
X86212289Y-91350184D01*
X86266439Y-91418085D01*
X86464259Y-91601635D01*
X86687226Y-91753651D01*
X86930359Y-91870738D01*
X87188228Y-91950280D01*
X87455071Y-91990500D01*
X87455074Y-91990500D01*
X87724926Y-91990500D01*
X87724929Y-91990500D01*
X87991772Y-91950280D01*
X88249641Y-91870738D01*
X88492775Y-91753651D01*
X88715741Y-91601635D01*
X88913561Y-91418085D01*
X89081815Y-91207102D01*
X89216743Y-90973398D01*
X89315334Y-90722195D01*
X89366530Y-90497890D01*
X89375381Y-90459113D01*
X89375381Y-90459110D01*
X89375383Y-90459103D01*
X89395549Y-90190000D01*
X89386960Y-90075391D01*
X89375384Y-89920909D01*
X89375383Y-89920907D01*
X89375383Y-89920897D01*
X89375381Y-89920891D01*
X89375381Y-89920886D01*
X89315336Y-89657812D01*
X89315334Y-89657805D01*
X89290721Y-89595094D01*
X89216743Y-89406602D01*
X89081815Y-89172898D01*
X88913561Y-88961915D01*
X88715741Y-88778365D01*
X88492775Y-88626349D01*
X88492772Y-88626348D01*
X88492770Y-88626346D01*
X88249650Y-88509266D01*
X88249646Y-88509264D01*
X88249641Y-88509262D01*
X88249633Y-88509259D01*
X88249629Y-88509258D01*
X87991777Y-88429721D01*
X87991773Y-88429720D01*
X87724932Y-88389500D01*
X87724929Y-88389500D01*
X87455071Y-88389500D01*
X87455067Y-88389500D01*
X87188226Y-88429720D01*
X87188222Y-88429721D01*
X86930370Y-88509258D01*
X86930349Y-88509266D01*
X86687227Y-88626348D01*
X86464259Y-88778364D01*
X86266438Y-88961915D01*
X86098189Y-89172892D01*
X86098186Y-89172896D01*
X86098185Y-89172898D01*
X86069671Y-89222284D01*
X85963257Y-89406601D01*
X85963255Y-89406606D01*
X85864665Y-89657805D01*
X85864663Y-89657812D01*
X85804618Y-89920886D01*
X85804615Y-89920909D01*
X85784451Y-90189994D01*
X84315047Y-90189994D01*
X84294887Y-89920983D01*
X84294884Y-89920961D01*
X84234856Y-89657960D01*
X84234854Y-89657953D01*
X84136292Y-89406823D01*
X84136290Y-89406818D01*
X84001400Y-89173183D01*
X84001395Y-89173175D01*
X83947703Y-89105848D01*
X83111041Y-89942510D01*
X83086022Y-89882110D01*
X83014888Y-89775649D01*
X82924351Y-89685112D01*
X82817890Y-89613978D01*
X82757487Y-89588957D01*
X83595149Y-88751296D01*
X83412521Y-88626782D01*
X83169453Y-88509727D01*
X83169449Y-88509726D01*
X82911666Y-88430210D01*
X82911662Y-88430209D01*
X82644894Y-88390000D01*
X82375105Y-88390000D01*
X82108337Y-88430209D01*
X82108333Y-88430210D01*
X81850553Y-88509725D01*
X81850532Y-88509733D01*
X81607478Y-88626782D01*
X81424849Y-88751295D01*
X81424849Y-88751296D01*
X82262511Y-89588958D01*
X82202110Y-89613978D01*
X82095649Y-89685112D01*
X82005112Y-89775649D01*
X81933978Y-89882110D01*
X81908958Y-89942511D01*
X81072295Y-89105848D01*
X81072294Y-89105848D01*
X81018603Y-89173176D01*
X81018600Y-89173181D01*
X80883709Y-89406818D01*
X80883707Y-89406823D01*
X80785145Y-89657953D01*
X80785143Y-89657960D01*
X80725115Y-89920961D01*
X80725112Y-89920983D01*
X80704953Y-90189995D01*
X79235549Y-90189995D01*
X79226960Y-90075391D01*
X79215384Y-89920909D01*
X79215383Y-89920907D01*
X79215383Y-89920897D01*
X79215381Y-89920891D01*
X79215381Y-89920886D01*
X79155336Y-89657812D01*
X79155334Y-89657805D01*
X79130721Y-89595094D01*
X79056743Y-89406602D01*
X78921815Y-89172898D01*
X78753561Y-88961915D01*
X78555741Y-88778365D01*
X78332775Y-88626349D01*
X78332772Y-88626348D01*
X78332770Y-88626346D01*
X78089650Y-88509266D01*
X78089646Y-88509264D01*
X78089641Y-88509262D01*
X78089633Y-88509259D01*
X78089629Y-88509258D01*
X77831777Y-88429721D01*
X77831773Y-88429720D01*
X77564932Y-88389500D01*
X77564929Y-88389500D01*
X77295071Y-88389500D01*
X77295067Y-88389500D01*
X77028226Y-88429720D01*
X77028222Y-88429721D01*
X76770370Y-88509258D01*
X76770349Y-88509266D01*
X76527227Y-88626348D01*
X76304259Y-88778364D01*
X76106438Y-88961915D01*
X75938189Y-89172892D01*
X75938186Y-89172896D01*
X75938185Y-89172898D01*
X75909671Y-89222284D01*
X75803257Y-89406601D01*
X75803255Y-89406606D01*
X75704665Y-89657805D01*
X75704663Y-89657812D01*
X75644618Y-89920886D01*
X75644615Y-89920909D01*
X75624451Y-90189994D01*
X74155549Y-90189994D01*
X74146960Y-90075391D01*
X74135384Y-89920909D01*
X74135383Y-89920907D01*
X74135383Y-89920897D01*
X74135381Y-89920891D01*
X74135381Y-89920886D01*
X74075336Y-89657812D01*
X74075334Y-89657805D01*
X74050721Y-89595094D01*
X73976743Y-89406602D01*
X73841815Y-89172898D01*
X73673561Y-88961915D01*
X73475741Y-88778365D01*
X73252775Y-88626349D01*
X73252772Y-88626348D01*
X73252770Y-88626346D01*
X73009650Y-88509266D01*
X73009646Y-88509264D01*
X73009641Y-88509262D01*
X73009633Y-88509259D01*
X73009629Y-88509258D01*
X72751777Y-88429721D01*
X72751773Y-88429720D01*
X72484932Y-88389500D01*
X72484929Y-88389500D01*
X72215071Y-88389500D01*
X72215067Y-88389500D01*
X71948226Y-88429720D01*
X71948222Y-88429721D01*
X71690370Y-88509258D01*
X71690349Y-88509266D01*
X71447227Y-88626348D01*
X71224259Y-88778364D01*
X71026438Y-88961915D01*
X70858189Y-89172892D01*
X70858186Y-89172896D01*
X70858185Y-89172898D01*
X70829671Y-89222284D01*
X70723257Y-89406601D01*
X70723255Y-89406606D01*
X70624665Y-89657805D01*
X70624663Y-89657812D01*
X70564618Y-89920886D01*
X70564615Y-89920909D01*
X70544451Y-90189994D01*
X69075047Y-90189994D01*
X69054887Y-89920983D01*
X69054884Y-89920961D01*
X68994856Y-89657960D01*
X68994854Y-89657953D01*
X68896292Y-89406823D01*
X68896290Y-89406818D01*
X68761400Y-89173183D01*
X68761395Y-89173175D01*
X68707703Y-89105848D01*
X67871041Y-89942510D01*
X67846022Y-89882110D01*
X67774888Y-89775649D01*
X67684351Y-89685112D01*
X67577890Y-89613978D01*
X67517487Y-89588957D01*
X68355149Y-88751296D01*
X68172521Y-88626782D01*
X67929453Y-88509727D01*
X67929449Y-88509726D01*
X67671666Y-88430210D01*
X67671662Y-88430209D01*
X67404894Y-88390000D01*
X67135105Y-88390000D01*
X66868337Y-88430209D01*
X66868333Y-88430210D01*
X66610553Y-88509725D01*
X66610532Y-88509733D01*
X66367478Y-88626782D01*
X66184849Y-88751295D01*
X66184849Y-88751296D01*
X67022511Y-89588958D01*
X66962110Y-89613978D01*
X66855649Y-89685112D01*
X66765112Y-89775649D01*
X66693978Y-89882110D01*
X66668958Y-89942511D01*
X65832295Y-89105848D01*
X65832294Y-89105848D01*
X65778603Y-89173176D01*
X65778600Y-89173181D01*
X65643709Y-89406818D01*
X65643707Y-89406823D01*
X65545145Y-89657953D01*
X65545143Y-89657960D01*
X65485115Y-89920961D01*
X65485112Y-89920983D01*
X65464953Y-90189995D01*
X63990499Y-90189995D01*
X63990499Y-88842128D01*
X63984091Y-88782517D01*
X63969511Y-88743427D01*
X63933797Y-88647670D01*
X63933795Y-88647666D01*
X63847547Y-88532455D01*
X63847544Y-88532452D01*
X63732333Y-88446204D01*
X63732329Y-88446202D01*
X63597482Y-88395908D01*
X63537876Y-88389500D01*
X60842136Y-88389500D01*
X60842111Y-88389502D01*
X60782521Y-88395908D01*
X60782515Y-88395909D01*
X60647670Y-88446202D01*
X60647666Y-88446204D01*
X60532455Y-88532452D01*
X60532452Y-88532455D01*
X60446204Y-88647666D01*
X60446202Y-88647670D01*
X60395908Y-88782517D01*
X60389500Y-88842114D01*
X51030500Y-88842114D01*
X51030500Y-85760000D01*
X62554659Y-85760000D01*
X62573976Y-85956134D01*
X62631187Y-86144731D01*
X62724083Y-86318526D01*
X62724087Y-86318532D01*
X62724090Y-86318538D01*
X62849117Y-86470883D01*
X63001462Y-86595910D01*
X63001471Y-86595915D01*
X63001473Y-86595916D01*
X63175268Y-86688812D01*
X63175270Y-86688812D01*
X63175273Y-86688814D01*
X63363868Y-86746024D01*
X63560000Y-86765341D01*
X63756132Y-86746024D01*
X63944727Y-86688814D01*
X64118538Y-86595910D01*
X64270883Y-86470883D01*
X64395910Y-86318538D01*
X64488814Y-86144727D01*
X64546024Y-85956132D01*
X64565341Y-85760000D01*
X64558665Y-85692216D01*
X64571228Y-85616118D01*
X64620157Y-85556497D01*
X64692342Y-85529329D01*
X64768440Y-85541892D01*
X64812306Y-85572252D01*
X65555331Y-86315277D01*
X65635043Y-86368538D01*
X65661873Y-86386465D01*
X65780256Y-86435501D01*
X65905931Y-86460500D01*
X69269090Y-86460500D01*
X69343590Y-86480462D01*
X69384268Y-86514975D01*
X69389114Y-86520880D01*
X69389115Y-86520881D01*
X69389117Y-86520883D01*
X69541462Y-86645910D01*
X69541471Y-86645915D01*
X69541473Y-86645916D01*
X69715268Y-86738812D01*
X69715270Y-86738812D01*
X69715273Y-86738814D01*
X69903868Y-86796024D01*
X70100000Y-86815341D01*
X70296132Y-86796024D01*
X70484727Y-86738814D01*
X70658538Y-86645910D01*
X70810883Y-86520883D01*
X70935910Y-86368538D01*
X71028814Y-86194727D01*
X71086024Y-86006132D01*
X71105341Y-85810000D01*
X71086024Y-85613868D01*
X71028814Y-85425273D01*
X71028812Y-85425270D01*
X71028812Y-85425268D01*
X71009821Y-85389738D01*
X70992307Y-85314625D01*
X71014696Y-85240818D01*
X71070989Y-85188094D01*
X71141227Y-85170500D01*
X75898836Y-85170500D01*
X75973336Y-85190462D01*
X76004195Y-85214141D01*
X76492484Y-85702430D01*
X76531048Y-85769225D01*
X76535408Y-85822386D01*
X76534659Y-85829994D01*
X76534659Y-85829995D01*
X76553976Y-86026134D01*
X76611187Y-86214731D01*
X76704083Y-86388526D01*
X76704087Y-86388532D01*
X76704090Y-86388538D01*
X76829117Y-86540883D01*
X76981462Y-86665910D01*
X76981471Y-86665915D01*
X76981473Y-86665916D01*
X77155268Y-86758812D01*
X77155270Y-86758812D01*
X77155273Y-86758814D01*
X77343868Y-86816024D01*
X77540000Y-86835341D01*
X77736132Y-86816024D01*
X77924727Y-86758814D01*
X77948656Y-86746024D01*
X77990546Y-86723633D01*
X78098538Y-86665910D01*
X78250883Y-86540883D01*
X78375910Y-86388538D01*
X78468814Y-86214727D01*
X78526024Y-86026132D01*
X78545341Y-85830000D01*
X78526024Y-85633868D01*
X78468814Y-85445273D01*
X78468812Y-85445270D01*
X78468812Y-85445268D01*
X78375916Y-85271473D01*
X78375915Y-85271471D01*
X78375910Y-85271462D01*
X78250883Y-85119117D01*
X78098538Y-84994090D01*
X78098532Y-84994087D01*
X78098526Y-84994083D01*
X77924729Y-84901186D01*
X77917970Y-84898387D01*
X77918742Y-84896521D01*
X77862190Y-84861356D01*
X77825832Y-84793336D01*
X77828355Y-84716249D01*
X77869083Y-84650751D01*
X77937103Y-84614393D01*
X77970939Y-84610500D01*
X83738836Y-84610500D01*
X83813336Y-84630462D01*
X83844195Y-84654141D01*
X84872484Y-85682430D01*
X84911048Y-85749225D01*
X84915408Y-85802386D01*
X84914659Y-85809994D01*
X84914659Y-85809995D01*
X84914659Y-85810000D01*
X84916629Y-85830000D01*
X84933976Y-86006134D01*
X84991187Y-86194731D01*
X85084083Y-86368526D01*
X85084087Y-86368532D01*
X85084090Y-86368538D01*
X85209117Y-86520883D01*
X85361462Y-86645910D01*
X85361471Y-86645915D01*
X85361473Y-86645916D01*
X85535268Y-86738812D01*
X85535270Y-86738812D01*
X85535273Y-86738814D01*
X85723868Y-86796024D01*
X85920000Y-86815341D01*
X86116132Y-86796024D01*
X86304727Y-86738814D01*
X86478538Y-86645910D01*
X86630883Y-86520883D01*
X86755910Y-86368538D01*
X86848814Y-86194727D01*
X86906024Y-86006132D01*
X86925341Y-85810000D01*
X86906024Y-85613868D01*
X86848814Y-85425273D01*
X86848812Y-85425270D01*
X86848812Y-85425268D01*
X86755916Y-85251473D01*
X86755915Y-85251471D01*
X86755910Y-85251462D01*
X86630883Y-85099117D01*
X86478538Y-84974090D01*
X86478532Y-84974087D01*
X86478526Y-84974083D01*
X86304731Y-84881187D01*
X86116134Y-84823976D01*
X86050754Y-84817537D01*
X85920000Y-84804659D01*
X85919997Y-84804659D01*
X85919996Y-84804659D01*
X85919995Y-84804659D01*
X85912386Y-84805408D01*
X85836289Y-84792841D01*
X85792430Y-84762484D01*
X84884805Y-83854859D01*
X84846241Y-83788064D01*
X84846241Y-83710936D01*
X84884805Y-83644141D01*
X84951600Y-83605577D01*
X84990164Y-83600500D01*
X86278836Y-83600500D01*
X86353336Y-83620462D01*
X86384195Y-83644141D01*
X91773359Y-89033305D01*
X91811923Y-89100100D01*
X91817000Y-89138664D01*
X91817000Y-89763125D01*
X91797038Y-89837625D01*
X91773359Y-89868484D01*
X91712027Y-89929815D01*
X91624024Y-90075391D01*
X91624021Y-90075396D01*
X91588308Y-90190005D01*
X91573414Y-90237804D01*
X91567000Y-90308384D01*
X91567000Y-90971616D01*
X91573414Y-91042196D01*
X91624022Y-91204606D01*
X91642909Y-91235848D01*
X91710375Y-91347452D01*
X91712028Y-91350185D01*
X91832315Y-91470472D01*
X91977894Y-91558478D01*
X92140304Y-91609086D01*
X92210884Y-91615500D01*
X92210891Y-91615500D01*
X92724109Y-91615500D01*
X92724116Y-91615500D01*
X92794696Y-91609086D01*
X92957106Y-91558478D01*
X93102685Y-91470472D01*
X93187141Y-91386016D01*
X93253936Y-91347452D01*
X93331064Y-91347452D01*
X93397859Y-91386016D01*
X93482315Y-91470472D01*
X93627894Y-91558478D01*
X93790304Y-91609086D01*
X93860884Y-91615500D01*
X93860891Y-91615500D01*
X94374109Y-91615500D01*
X94374116Y-91615500D01*
X94444696Y-91609086D01*
X94607106Y-91558478D01*
X94752685Y-91470472D01*
X94755195Y-91467961D01*
X94757835Y-91466437D01*
X94759777Y-91464916D01*
X94759992Y-91465191D01*
X94821986Y-91429395D01*
X94899114Y-91429391D01*
X94965911Y-91467951D01*
X94985965Y-91496535D01*
X94987582Y-91495538D01*
X94992137Y-91502923D01*
X94992138Y-91502925D01*
X95083474Y-91651003D01*
X95206497Y-91774026D01*
X95354575Y-91865362D01*
X95519725Y-91920087D01*
X95621652Y-91930500D01*
X95621656Y-91930500D01*
X96208344Y-91930500D01*
X96208348Y-91930500D01*
X96310275Y-91920087D01*
X96475425Y-91865362D01*
X96623503Y-91774026D01*
X96746526Y-91651003D01*
X96746527Y-91651000D01*
X96747495Y-91650033D01*
X96814290Y-91611469D01*
X96891418Y-91611469D01*
X96958213Y-91650033D01*
X97081813Y-91773633D01*
X97229789Y-91864905D01*
X97394829Y-91919593D01*
X97394829Y-91919594D01*
X97496681Y-91929999D01*
X97496692Y-91930000D01*
X97540000Y-91930000D01*
X98040000Y-91930000D01*
X98083308Y-91930000D01*
X98083318Y-91929999D01*
X98185170Y-91919594D01*
X98185170Y-91919593D01*
X98350209Y-91864905D01*
X98350210Y-91864905D01*
X98498186Y-91773633D01*
X98621133Y-91650686D01*
X98712405Y-91502710D01*
X98712405Y-91502709D01*
X98767093Y-91337670D01*
X98767094Y-91337670D01*
X98777499Y-91235818D01*
X98777500Y-91235808D01*
X98777500Y-90980000D01*
X98040000Y-90980000D01*
X98040000Y-91930000D01*
X97540000Y-91930000D01*
X97540000Y-90480000D01*
X98040000Y-90480000D01*
X98777500Y-90480000D01*
X98777500Y-90224191D01*
X98777499Y-90224181D01*
X98767094Y-90122329D01*
X98712405Y-89957290D01*
X98712405Y-89957289D01*
X98621133Y-89809313D01*
X98498186Y-89686366D01*
X98350210Y-89595094D01*
X98185170Y-89540406D01*
X98185170Y-89540405D01*
X98083318Y-89530000D01*
X98040000Y-89530000D01*
X98040000Y-90480000D01*
X97540000Y-90480000D01*
X97540000Y-89530000D01*
X97496681Y-89530000D01*
X97394829Y-89540405D01*
X97394829Y-89540406D01*
X97229790Y-89595094D01*
X97229789Y-89595094D01*
X97081813Y-89686366D01*
X96958213Y-89809967D01*
X96891418Y-89848531D01*
X96814290Y-89848531D01*
X96747495Y-89809967D01*
X96746527Y-89808999D01*
X96746526Y-89808997D01*
X96623503Y-89685974D01*
X96475425Y-89594638D01*
X96310275Y-89539913D01*
X96208348Y-89529500D01*
X95621652Y-89529500D01*
X95540110Y-89537830D01*
X95519724Y-89539913D01*
X95354574Y-89594638D01*
X95206498Y-89685973D01*
X95083472Y-89808999D01*
X95056003Y-89853534D01*
X94999902Y-89906462D01*
X94924853Y-89924249D01*
X94850965Y-89902128D01*
X94823828Y-89880671D01*
X94752684Y-89809527D01*
X94704158Y-89780192D01*
X94607106Y-89721522D01*
X94444696Y-89670914D01*
X94374116Y-89664500D01*
X93860884Y-89664500D01*
X93799126Y-89670112D01*
X93790303Y-89670914D01*
X93627896Y-89721521D01*
X93627891Y-89721524D01*
X93482315Y-89809527D01*
X93397859Y-89893984D01*
X93331064Y-89932548D01*
X93253936Y-89932548D01*
X93187141Y-89893984D01*
X93161641Y-89868484D01*
X93123077Y-89801689D01*
X93118000Y-89763125D01*
X93118000Y-88743435D01*
X93117999Y-88743427D01*
X93098950Y-88647666D01*
X93093001Y-88617756D01*
X93043965Y-88499373D01*
X93008439Y-88446204D01*
X92972777Y-88392831D01*
X87024669Y-82444723D01*
X86918127Y-82373535D01*
X86918123Y-82373533D01*
X86918121Y-82373532D01*
X86837668Y-82340207D01*
X86799744Y-82324499D01*
X86799742Y-82324498D01*
X86799743Y-82324498D01*
X86674072Y-82299500D01*
X86674069Y-82299500D01*
X77248091Y-82299500D01*
X77173591Y-82279538D01*
X77119053Y-82225000D01*
X77099091Y-82150500D01*
X77119053Y-82076000D01*
X77169869Y-82023684D01*
X77252732Y-81972572D01*
X77372572Y-81852732D01*
X77461546Y-81708485D01*
X77514856Y-81547603D01*
X77514857Y-81547603D01*
X77524999Y-81448325D01*
X77525000Y-81448315D01*
X77525000Y-81425000D01*
X76699000Y-81425000D01*
X76624500Y-81405038D01*
X76569962Y-81350500D01*
X76550000Y-81276000D01*
X76550000Y-81268309D01*
X81745001Y-81268309D01*
X81755144Y-81367606D01*
X81755144Y-81367609D01*
X81808453Y-81528485D01*
X81897427Y-81672732D01*
X82017267Y-81792572D01*
X82161514Y-81881546D01*
X82322392Y-81934855D01*
X82421689Y-81944999D01*
X82444999Y-81944998D01*
X82445000Y-81944998D01*
X82445000Y-81220000D01*
X81745001Y-81220000D01*
X81745001Y-81268309D01*
X76550000Y-81268309D01*
X76550000Y-81074000D01*
X76569962Y-80999500D01*
X76624500Y-80944962D01*
X76699000Y-80925000D01*
X77524999Y-80925000D01*
X77543885Y-80906113D01*
X77544961Y-80902101D01*
X77599499Y-80847563D01*
X77673999Y-80827601D01*
X77717250Y-80834016D01*
X77723868Y-80836024D01*
X77920000Y-80855341D01*
X78116132Y-80836024D01*
X78304727Y-80778814D01*
X78478538Y-80685910D01*
X78495885Y-80671674D01*
X81745000Y-80671674D01*
X81745000Y-80720000D01*
X82445000Y-80720000D01*
X82445000Y-79995000D01*
X82945000Y-79995000D01*
X82945000Y-81944999D01*
X82968310Y-81944999D01*
X83067606Y-81934855D01*
X83067609Y-81934855D01*
X83228485Y-81881546D01*
X83372733Y-81792571D01*
X83377176Y-81789059D01*
X83447995Y-81758508D01*
X83524602Y-81767460D01*
X83562010Y-81789057D01*
X83566955Y-81792967D01*
X83566956Y-81792968D01*
X83711303Y-81882003D01*
X83872292Y-81935349D01*
X83971655Y-81945500D01*
X84518344Y-81945499D01*
X84617708Y-81935349D01*
X84778697Y-81882003D01*
X84923044Y-81792968D01*
X85042968Y-81673044D01*
X85042968Y-81673043D01*
X85049104Y-81666908D01*
X85050955Y-81668759D01*
X85101644Y-81631026D01*
X85156651Y-81620500D01*
X87491336Y-81620500D01*
X87565836Y-81640462D01*
X87596695Y-81664141D01*
X88035930Y-82103376D01*
X88074494Y-82170171D01*
X88078853Y-82194129D01*
X88083975Y-82246126D01*
X88083976Y-82246132D01*
X88141187Y-82434731D01*
X88234083Y-82608526D01*
X88234087Y-82608532D01*
X88234090Y-82608538D01*
X88359117Y-82760883D01*
X88511462Y-82885910D01*
X88511471Y-82885915D01*
X88511473Y-82885916D01*
X88685268Y-82978812D01*
X88685270Y-82978812D01*
X88685273Y-82978814D01*
X88873868Y-83036024D01*
X88925869Y-83041145D01*
X88998053Y-83068314D01*
X89016623Y-83084069D01*
X91528359Y-85595805D01*
X91566923Y-85662600D01*
X91572000Y-85701164D01*
X91572000Y-85951616D01*
X91578414Y-86022196D01*
X91629022Y-86184606D01*
X91647500Y-86215172D01*
X91715375Y-86327452D01*
X91717028Y-86330185D01*
X91837315Y-86450472D01*
X91982894Y-86538478D01*
X92145304Y-86589086D01*
X92215884Y-86595500D01*
X92215891Y-86595500D01*
X92729109Y-86595500D01*
X92729116Y-86595500D01*
X92799696Y-86589086D01*
X92962106Y-86538478D01*
X93107685Y-86450472D01*
X93192141Y-86366016D01*
X93258936Y-86327452D01*
X93336064Y-86327452D01*
X93402859Y-86366016D01*
X93487315Y-86450472D01*
X93632894Y-86538478D01*
X93795304Y-86589086D01*
X93865884Y-86595500D01*
X93865891Y-86595500D01*
X94379109Y-86595500D01*
X94379116Y-86595500D01*
X94449696Y-86589086D01*
X94612106Y-86538478D01*
X94757685Y-86450472D01*
X94768510Y-86439646D01*
X94835302Y-86401082D01*
X94912430Y-86401080D01*
X94979226Y-86439642D01*
X95000681Y-86466775D01*
X95083474Y-86601003D01*
X95206497Y-86724026D01*
X95354575Y-86815362D01*
X95519725Y-86870087D01*
X95621652Y-86880500D01*
X95621656Y-86880500D01*
X96208344Y-86880500D01*
X96208348Y-86880500D01*
X96310275Y-86870087D01*
X96475425Y-86815362D01*
X96623503Y-86724026D01*
X96746526Y-86601003D01*
X96746527Y-86601000D01*
X96747495Y-86600033D01*
X96814290Y-86561469D01*
X96891418Y-86561469D01*
X96958213Y-86600033D01*
X97081813Y-86723633D01*
X97229789Y-86814905D01*
X97394829Y-86869593D01*
X97394829Y-86869594D01*
X97496681Y-86879999D01*
X97496692Y-86880000D01*
X97540000Y-86880000D01*
X98040000Y-86880000D01*
X98083308Y-86880000D01*
X98083318Y-86879999D01*
X98185170Y-86869594D01*
X98185170Y-86869593D01*
X98350209Y-86814905D01*
X98350210Y-86814905D01*
X98498186Y-86723633D01*
X98621133Y-86600686D01*
X98712405Y-86452710D01*
X98712405Y-86452709D01*
X98767093Y-86287670D01*
X98767094Y-86287670D01*
X98777499Y-86185818D01*
X98777500Y-86185808D01*
X98777500Y-85930000D01*
X98040000Y-85930000D01*
X98040000Y-86880000D01*
X97540000Y-86880000D01*
X97540000Y-85430000D01*
X98040000Y-85430000D01*
X98777500Y-85430000D01*
X98777500Y-85174191D01*
X98777499Y-85174181D01*
X98767094Y-85072329D01*
X98712405Y-84907290D01*
X98712405Y-84907289D01*
X98621133Y-84759313D01*
X98498186Y-84636366D01*
X98350210Y-84545094D01*
X98185170Y-84490406D01*
X98185170Y-84490405D01*
X98083318Y-84480000D01*
X98040000Y-84480000D01*
X98040000Y-85430000D01*
X97540000Y-85430000D01*
X97540000Y-84480000D01*
X97496681Y-84480000D01*
X97394829Y-84490405D01*
X97394829Y-84490406D01*
X97229790Y-84545094D01*
X97229789Y-84545094D01*
X97081813Y-84636366D01*
X96958213Y-84759967D01*
X96891418Y-84798531D01*
X96814290Y-84798531D01*
X96747495Y-84759967D01*
X96746527Y-84758999D01*
X96746526Y-84758997D01*
X96623503Y-84635974D01*
X96475425Y-84544638D01*
X96310275Y-84489913D01*
X96208348Y-84479500D01*
X95621652Y-84479500D01*
X95540110Y-84487830D01*
X95519724Y-84489913D01*
X95354574Y-84544638D01*
X95206498Y-84635973D01*
X95083471Y-84759000D01*
X95046464Y-84818997D01*
X94990363Y-84871925D01*
X94915313Y-84889711D01*
X94841426Y-84867589D01*
X94814290Y-84846133D01*
X94757684Y-84789527D01*
X94707181Y-84758997D01*
X94612106Y-84701522D01*
X94449696Y-84650914D01*
X94379116Y-84644500D01*
X93865884Y-84644500D01*
X93804126Y-84650112D01*
X93795303Y-84650914D01*
X93632896Y-84701521D01*
X93632891Y-84701524D01*
X93487315Y-84789527D01*
X93402859Y-84873984D01*
X93336064Y-84912548D01*
X93258936Y-84912548D01*
X93192141Y-84873984D01*
X93107684Y-84789527D01*
X93057181Y-84758997D01*
X92962106Y-84701522D01*
X92799696Y-84650914D01*
X92729116Y-84644500D01*
X92729109Y-84644500D01*
X92478664Y-84644500D01*
X92404164Y-84624538D01*
X92373305Y-84600859D01*
X90102497Y-82330051D01*
X90063933Y-82263256D01*
X90059574Y-82210087D01*
X90075341Y-82050004D01*
X90075341Y-82050000D01*
X90056024Y-81853868D01*
X89998814Y-81665273D01*
X89998812Y-81665270D01*
X89998812Y-81665268D01*
X89905916Y-81491473D01*
X89905915Y-81491471D01*
X89905910Y-81491462D01*
X89780883Y-81339117D01*
X89628538Y-81214090D01*
X89628532Y-81214087D01*
X89628526Y-81214083D01*
X89454731Y-81121187D01*
X89266134Y-81063976D01*
X89135377Y-81051098D01*
X89070000Y-81044659D01*
X89069999Y-81044659D01*
X88909911Y-81060426D01*
X88833813Y-81047861D01*
X88789948Y-81017502D01*
X88237169Y-80464723D01*
X88130627Y-80393535D01*
X88130623Y-80393533D01*
X88130621Y-80393532D01*
X88050168Y-80360207D01*
X88012244Y-80344499D01*
X88012242Y-80344498D01*
X88012243Y-80344498D01*
X87886572Y-80319500D01*
X87886569Y-80319500D01*
X85156651Y-80319500D01*
X85082151Y-80299538D01*
X85050236Y-80271959D01*
X85049104Y-80273092D01*
X84923044Y-80147032D01*
X84778699Y-80057998D01*
X84778698Y-80057997D01*
X84778697Y-80057997D01*
X84617708Y-80004651D01*
X84518345Y-79994500D01*
X84518340Y-79994500D01*
X83971660Y-79994500D01*
X83872291Y-80004651D01*
X83711300Y-80057998D01*
X83566953Y-80147033D01*
X83562004Y-80150947D01*
X83491182Y-80181493D01*
X83414576Y-80172535D01*
X83377182Y-80150946D01*
X83372729Y-80147425D01*
X83228485Y-80058453D01*
X83067603Y-80005143D01*
X83067603Y-80005142D01*
X82968325Y-79995000D01*
X82945000Y-79995000D01*
X82445000Y-79995000D01*
X82445000Y-79994999D01*
X82421691Y-79995000D01*
X82421690Y-79995000D01*
X82322393Y-80005144D01*
X82322390Y-80005144D01*
X82161514Y-80058453D01*
X82017267Y-80147427D01*
X81897427Y-80267267D01*
X81808453Y-80411514D01*
X81755143Y-80572396D01*
X81755142Y-80572396D01*
X81745000Y-80671674D01*
X78495885Y-80671674D01*
X78630883Y-80560883D01*
X78755910Y-80408538D01*
X78848814Y-80234727D01*
X78906024Y-80046132D01*
X78925341Y-79850000D01*
X78906024Y-79653868D01*
X78848814Y-79465273D01*
X78848812Y-79465270D01*
X78848812Y-79465268D01*
X78755916Y-79291473D01*
X78755915Y-79291471D01*
X78755910Y-79291462D01*
X78653897Y-79167159D01*
X78622066Y-79096906D01*
X78629626Y-79020150D01*
X78674552Y-78957456D01*
X78722206Y-78931200D01*
X78801834Y-78904814D01*
X78951156Y-78812712D01*
X79075212Y-78688656D01*
X79167314Y-78539334D01*
X79222499Y-78372797D01*
X79233000Y-78270009D01*
X79232999Y-77738663D01*
X79252961Y-77664164D01*
X79276639Y-77633307D01*
X79312223Y-77597722D01*
X79379017Y-77559157D01*
X79456145Y-77559156D01*
X79522940Y-77597719D01*
X79534126Y-77617093D01*
X79534633Y-77616705D01*
X79579364Y-77675000D01*
X80476988Y-77675000D01*
X80444075Y-77732007D01*
X80410000Y-77859174D01*
X80410000Y-77990826D01*
X80444075Y-78117993D01*
X80476988Y-78175000D01*
X79579364Y-78175000D01*
X79636568Y-78388489D01*
X79636569Y-78388491D01*
X79736400Y-78602579D01*
X79736406Y-78602588D01*
X79871888Y-78796076D01*
X80038923Y-78963111D01*
X80232411Y-79098593D01*
X80232420Y-79098599D01*
X80446508Y-79198430D01*
X80446513Y-79198432D01*
X80660000Y-79255634D01*
X80660000Y-78358012D01*
X80717007Y-78390925D01*
X80844174Y-78425000D01*
X80975826Y-78425000D01*
X81102993Y-78390925D01*
X81160000Y-78358012D01*
X81160000Y-79255633D01*
X81373486Y-79198432D01*
X81373491Y-79198430D01*
X81587579Y-79098599D01*
X81587588Y-79098593D01*
X81781076Y-78963111D01*
X81948111Y-78796076D01*
X82083593Y-78602588D01*
X82083599Y-78602579D01*
X82183430Y-78388491D01*
X82183431Y-78388489D01*
X82240636Y-78175000D01*
X81343012Y-78175000D01*
X81375925Y-78117993D01*
X81410000Y-77990826D01*
X81410000Y-77859174D01*
X81375925Y-77732007D01*
X81343012Y-77675000D01*
X82240636Y-77675000D01*
X82240635Y-77674999D01*
X82185187Y-77468065D01*
X82185187Y-77390936D01*
X82223751Y-77324141D01*
X82290545Y-77285577D01*
X82329110Y-77280500D01*
X82374065Y-77280500D01*
X82374069Y-77280500D01*
X82499744Y-77255501D01*
X82618127Y-77206465D01*
X82637477Y-77193536D01*
X82637478Y-77193536D01*
X82724663Y-77135281D01*
X82724662Y-77135281D01*
X82724669Y-77135277D01*
X83105277Y-76754669D01*
X83176465Y-76648127D01*
X83225501Y-76529744D01*
X83229243Y-76510931D01*
X83250500Y-76404069D01*
X83250500Y-74470931D01*
X83225501Y-74345256D01*
X83176465Y-74226873D01*
X83165836Y-74210965D01*
X83154726Y-74194338D01*
X83105278Y-74120332D01*
X82267915Y-73282969D01*
X82229351Y-73216174D01*
X82229351Y-73139046D01*
X82229668Y-73137859D01*
X82245063Y-73080408D01*
X82265659Y-72845000D01*
X82245063Y-72609592D01*
X82183903Y-72381337D01*
X82084035Y-72167171D01*
X81948495Y-71973599D01*
X81854075Y-71879179D01*
X81815512Y-71812385D01*
X81815512Y-71735257D01*
X81854076Y-71668462D01*
X81907366Y-71634215D01*
X81938278Y-71622685D01*
X82002327Y-71598798D01*
X82002333Y-71598795D01*
X82059938Y-71555671D01*
X82117546Y-71512546D01*
X82203796Y-71397331D01*
X82218754Y-71357228D01*
X82241618Y-71295925D01*
X82254091Y-71262483D01*
X82257573Y-71230099D01*
X82260499Y-71202885D01*
X82260499Y-71202882D01*
X82260500Y-71202873D01*
X82260499Y-69669994D01*
X100524390Y-69669994D01*
X100524390Y-69670005D01*
X100544802Y-69955417D01*
X100544803Y-69955426D01*
X100544804Y-69955428D01*
X100545494Y-69958599D01*
X100605629Y-70235040D01*
X100605630Y-70235044D01*
X100605631Y-70235046D01*
X100641047Y-70330000D01*
X100705633Y-70503162D01*
X100842771Y-70754312D01*
X100899431Y-70830000D01*
X101014261Y-70983395D01*
X101216605Y-71185739D01*
X101353641Y-71288323D01*
X101445687Y-71357228D01*
X101696837Y-71494366D01*
X101696839Y-71494367D01*
X101964954Y-71594369D01*
X102244572Y-71655196D01*
X102244579Y-71655196D01*
X102244582Y-71655197D01*
X102529995Y-71675610D01*
X102530000Y-71675610D01*
X102530005Y-71675610D01*
X102815417Y-71655197D01*
X102815418Y-71655196D01*
X102815428Y-71655196D01*
X103095046Y-71594369D01*
X103363161Y-71494367D01*
X103540865Y-71397333D01*
X103614312Y-71357228D01*
X103614315Y-71357226D01*
X103843395Y-71185739D01*
X104045739Y-70983395D01*
X104217226Y-70754315D01*
X104235120Y-70721546D01*
X104283703Y-70632572D01*
X104354367Y-70503161D01*
X104454369Y-70235046D01*
X104515196Y-69955428D01*
X104515197Y-69955417D01*
X104535610Y-69670005D01*
X104535610Y-69669994D01*
X104515197Y-69384582D01*
X104515196Y-69384579D01*
X104515196Y-69384572D01*
X104454369Y-69104954D01*
X104354367Y-68836839D01*
X104325332Y-68783665D01*
X104217228Y-68585687D01*
X104145069Y-68489295D01*
X104045739Y-68356605D01*
X103843395Y-68154261D01*
X103723785Y-68064722D01*
X103614312Y-67982771D01*
X103363162Y-67845633D01*
X103199454Y-67784573D01*
X103095046Y-67745631D01*
X103095044Y-67745630D01*
X103095040Y-67745629D01*
X102882098Y-67699307D01*
X102815428Y-67684804D01*
X102815426Y-67684803D01*
X102815417Y-67684802D01*
X102530005Y-67664390D01*
X102529995Y-67664390D01*
X102244582Y-67684802D01*
X102244572Y-67684804D01*
X101964959Y-67745629D01*
X101696837Y-67845633D01*
X101445687Y-67982771D01*
X101216606Y-68154260D01*
X101014260Y-68356606D01*
X100842771Y-68585687D01*
X100705633Y-68836837D01*
X100605629Y-69104959D01*
X100544804Y-69384572D01*
X100544802Y-69384582D01*
X100524390Y-69669994D01*
X82260499Y-69669994D01*
X82260499Y-69407128D01*
X82254091Y-69347517D01*
X82237949Y-69304237D01*
X82203797Y-69212670D01*
X82203795Y-69212666D01*
X82117547Y-69097455D01*
X82117544Y-69097452D01*
X82002333Y-69011204D01*
X82002329Y-69011202D01*
X81867482Y-68960908D01*
X81807876Y-68954500D01*
X80012136Y-68954500D01*
X80012111Y-68954502D01*
X79952521Y-68960908D01*
X79952515Y-68960909D01*
X79817670Y-69011202D01*
X79817666Y-69011204D01*
X79702455Y-69097452D01*
X79702452Y-69097455D01*
X79616204Y-69212666D01*
X79616202Y-69212670D01*
X79565908Y-69347517D01*
X79559500Y-69407114D01*
X79559500Y-71202863D01*
X79559502Y-71202888D01*
X79565908Y-71262478D01*
X79565909Y-71262484D01*
X79616202Y-71397329D01*
X79616204Y-71397333D01*
X79702452Y-71512544D01*
X79702455Y-71512547D01*
X79817666Y-71598795D01*
X79817668Y-71598795D01*
X79817669Y-71598796D01*
X79912633Y-71634215D01*
X79975460Y-71678953D01*
X80007501Y-71749111D01*
X80000170Y-71825890D01*
X79965923Y-71879179D01*
X79871509Y-71973593D01*
X79841270Y-72016779D01*
X79735965Y-72167171D01*
X79673825Y-72300430D01*
X79636096Y-72381340D01*
X79574937Y-72609590D01*
X79554341Y-72845000D01*
X79574937Y-73080409D01*
X79612913Y-73222140D01*
X79636097Y-73308663D01*
X79735965Y-73522830D01*
X79871505Y-73716401D01*
X80038599Y-73883495D01*
X80194913Y-73992947D01*
X80244489Y-74052030D01*
X80257882Y-74127986D01*
X80231503Y-74200463D01*
X80194912Y-74237054D01*
X80038597Y-74346506D01*
X79871507Y-74513596D01*
X79741488Y-74699284D01*
X79735965Y-74707171D01*
X79636703Y-74920038D01*
X79636096Y-74921340D01*
X79612591Y-75009064D01*
X79574027Y-75075859D01*
X79507232Y-75114423D01*
X79468668Y-75119500D01*
X79314285Y-75119500D01*
X79239785Y-75099538D01*
X79185247Y-75045000D01*
X79172850Y-75017372D01*
X79167314Y-75000666D01*
X79075212Y-74851344D01*
X79075210Y-74851342D01*
X79073285Y-74848221D01*
X79051165Y-74774333D01*
X79068952Y-74699284D01*
X79073285Y-74691779D01*
X79075210Y-74688657D01*
X79075212Y-74688656D01*
X79167314Y-74539334D01*
X79222499Y-74372797D01*
X79233000Y-74270009D01*
X79232999Y-73269992D01*
X79222499Y-73167203D01*
X79167314Y-73000666D01*
X79075212Y-72851344D01*
X78951156Y-72727288D01*
X78941278Y-72721195D01*
X78888350Y-72665094D01*
X78870500Y-72594379D01*
X78870500Y-70585935D01*
X78870499Y-70585927D01*
X78865231Y-70559446D01*
X78845501Y-70460256D01*
X78796465Y-70341873D01*
X78725276Y-70235331D01*
X78634669Y-70144724D01*
X76554669Y-68064723D01*
X76448127Y-67993535D01*
X76448123Y-67993533D01*
X76448121Y-67993532D01*
X76367668Y-67960207D01*
X76329744Y-67944499D01*
X76329742Y-67944498D01*
X76329743Y-67944498D01*
X76204072Y-67919500D01*
X76204069Y-67919500D01*
X67565931Y-67919500D01*
X67565927Y-67919500D01*
X67440256Y-67944498D01*
X67440254Y-67944499D01*
X67347851Y-67982774D01*
X67321877Y-67993532D01*
X67215332Y-68064722D01*
X67215330Y-68064723D01*
X66184725Y-69095329D01*
X66184724Y-69095329D01*
X66176748Y-69107267D01*
X66141847Y-69159501D01*
X66125145Y-69184498D01*
X66113535Y-69201873D01*
X66113531Y-69201879D01*
X66108703Y-69213536D01*
X66061748Y-69274724D01*
X65990490Y-69304237D01*
X65914022Y-69294167D01*
X65888268Y-69280401D01*
X65879772Y-69274724D01*
X65818127Y-69233535D01*
X65818123Y-69233533D01*
X65818121Y-69233532D01*
X65737668Y-69200207D01*
X65699744Y-69184499D01*
X65699742Y-69184498D01*
X65699743Y-69184498D01*
X65574072Y-69159500D01*
X65574069Y-69159500D01*
X64851651Y-69159500D01*
X64777151Y-69139538D01*
X64745236Y-69111959D01*
X64744104Y-69113092D01*
X64618044Y-68987032D01*
X64473699Y-68897998D01*
X64473698Y-68897997D01*
X64473697Y-68897997D01*
X64312708Y-68844651D01*
X64213345Y-68834500D01*
X64213340Y-68834500D01*
X63666660Y-68834500D01*
X63567291Y-68844651D01*
X63406300Y-68897998D01*
X63261953Y-68987033D01*
X63257004Y-68990947D01*
X63186182Y-69021493D01*
X63109576Y-69012535D01*
X63072182Y-68990946D01*
X63067729Y-68987425D01*
X62923485Y-68898453D01*
X62762603Y-68845143D01*
X62762603Y-68845142D01*
X62663325Y-68835000D01*
X62640000Y-68835000D01*
X62640000Y-70784999D01*
X62663310Y-70784999D01*
X62762606Y-70774855D01*
X62762609Y-70774855D01*
X62923485Y-70721546D01*
X63067733Y-70632571D01*
X63072176Y-70629059D01*
X63142995Y-70598508D01*
X63219602Y-70607460D01*
X63257010Y-70629057D01*
X63261955Y-70632967D01*
X63261956Y-70632968D01*
X63406303Y-70722003D01*
X63567292Y-70775349D01*
X63666655Y-70785500D01*
X64213344Y-70785499D01*
X64312708Y-70775349D01*
X64473697Y-70722003D01*
X64618044Y-70632968D01*
X64737968Y-70513044D01*
X64737968Y-70513043D01*
X64744104Y-70506908D01*
X64745955Y-70508759D01*
X64796644Y-70471026D01*
X64851651Y-70460500D01*
X65178836Y-70460500D01*
X65253336Y-70480462D01*
X65284195Y-70504141D01*
X65295859Y-70515805D01*
X65334423Y-70582600D01*
X65339500Y-70621164D01*
X65339500Y-71727863D01*
X65339502Y-71727888D01*
X65345908Y-71787478D01*
X65345909Y-71787484D01*
X65396202Y-71922329D01*
X65396204Y-71922333D01*
X65482452Y-72037544D01*
X65482455Y-72037547D01*
X65597666Y-72123795D01*
X65597670Y-72123797D01*
X65732517Y-72174091D01*
X65792114Y-72180499D01*
X65792118Y-72180499D01*
X65792127Y-72180500D01*
X65902586Y-72180499D01*
X65977084Y-72200461D01*
X66031622Y-72254998D01*
X66048722Y-72300430D01*
X66064498Y-72379742D01*
X66113532Y-72498121D01*
X66113533Y-72498123D01*
X66113535Y-72498127D01*
X66161225Y-72569501D01*
X66184722Y-72604667D01*
X66184723Y-72604669D01*
X67314160Y-73734106D01*
X67352724Y-73800901D01*
X67352724Y-73878029D01*
X67314160Y-73944824D01*
X67253129Y-73981718D01*
X67125402Y-74021519D01*
X67125398Y-74021520D01*
X67125394Y-74021522D01*
X67102516Y-74035352D01*
X66979815Y-74109527D01*
X66895005Y-74194338D01*
X66828210Y-74232902D01*
X66751082Y-74232902D01*
X66684287Y-74194338D01*
X66599872Y-74109923D01*
X66454401Y-74021983D01*
X66454394Y-74021980D01*
X66292109Y-73971409D01*
X66221569Y-73965000D01*
X66215000Y-73965000D01*
X66215000Y-74791000D01*
X66195038Y-74865500D01*
X66140500Y-74920038D01*
X66066000Y-74940000D01*
X65965000Y-74940000D01*
X65965000Y-75041000D01*
X65945038Y-75115500D01*
X65890500Y-75170038D01*
X65816000Y-75190000D01*
X65065001Y-75190000D01*
X65065001Y-75271569D01*
X65071409Y-75342104D01*
X65071410Y-75342111D01*
X65121980Y-75504395D01*
X65203978Y-75640037D01*
X65225436Y-75714120D01*
X65206978Y-75789007D01*
X65153549Y-75844632D01*
X65146705Y-75848526D01*
X65061469Y-75894085D01*
X65061465Y-75894088D01*
X65061463Y-75894089D01*
X65061462Y-75894090D01*
X64909117Y-76019117D01*
X64793686Y-76159770D01*
X64784088Y-76171465D01*
X64784083Y-76171473D01*
X64691187Y-76345268D01*
X64633976Y-76533865D01*
X64614659Y-76730000D01*
X64633976Y-76926134D01*
X64691187Y-77114731D01*
X64784085Y-77288531D01*
X64784088Y-77288535D01*
X64825300Y-77338752D01*
X64857131Y-77409006D01*
X64849571Y-77485762D01*
X64825305Y-77527796D01*
X64814090Y-77541462D01*
X64814083Y-77541473D01*
X64721187Y-77715268D01*
X64663976Y-77903865D01*
X64644659Y-78100000D01*
X64663976Y-78296134D01*
X64721187Y-78484731D01*
X64797752Y-78627974D01*
X64815266Y-78703087D01*
X64792877Y-78776894D01*
X64781525Y-78792736D01*
X64684092Y-78911459D01*
X64684083Y-78911473D01*
X64591187Y-79085268D01*
X64533976Y-79273865D01*
X64514659Y-79470000D01*
X64533976Y-79666134D01*
X64591187Y-79854731D01*
X64684083Y-80028526D01*
X64684087Y-80028532D01*
X64684090Y-80028538D01*
X64809117Y-80180883D01*
X64885287Y-80243394D01*
X64930212Y-80306086D01*
X64937772Y-80382843D01*
X64905941Y-80453096D01*
X64896121Y-80463931D01*
X63054723Y-82305330D01*
X63054722Y-82305332D01*
X62983537Y-82411870D01*
X62983532Y-82411878D01*
X62934498Y-82530257D01*
X62909500Y-82655927D01*
X62909500Y-84929089D01*
X62889538Y-85003589D01*
X62855032Y-85044262D01*
X62849118Y-85049115D01*
X62830067Y-85072329D01*
X62751448Y-85168127D01*
X62724088Y-85201465D01*
X62724083Y-85201473D01*
X62631187Y-85375268D01*
X62573976Y-85563865D01*
X62554659Y-85760000D01*
X51030500Y-85760000D01*
X51030500Y-80029999D01*
X60694723Y-80029999D01*
X60694723Y-80030000D01*
X60713793Y-80247978D01*
X60770424Y-80459328D01*
X60770425Y-80459330D01*
X60862894Y-80657633D01*
X60862897Y-80657638D01*
X60882694Y-80685911D01*
X60988402Y-80836877D01*
X61143123Y-80991598D01*
X61258936Y-81072691D01*
X61322361Y-81117102D01*
X61322366Y-81117105D01*
X61432633Y-81168522D01*
X61520670Y-81209575D01*
X61732023Y-81266207D01*
X61950000Y-81285277D01*
X62167977Y-81266207D01*
X62379330Y-81209575D01*
X62577639Y-81117102D01*
X62756877Y-80991598D01*
X62911598Y-80836877D01*
X63037102Y-80657639D01*
X63129575Y-80459330D01*
X63186207Y-80247977D01*
X63205277Y-80030000D01*
X63186207Y-79812023D01*
X63129575Y-79600670D01*
X63037102Y-79402362D01*
X62911598Y-79223123D01*
X62756877Y-79068402D01*
X62598430Y-78957456D01*
X62577638Y-78942897D01*
X62577633Y-78942894D01*
X62379330Y-78850425D01*
X62379328Y-78850424D01*
X62167977Y-78793793D01*
X62167978Y-78793793D01*
X61950000Y-78774723D01*
X61732021Y-78793793D01*
X61520673Y-78850424D01*
X61520672Y-78850424D01*
X61520670Y-78850425D01*
X61322362Y-78942898D01*
X61322359Y-78942899D01*
X61322359Y-78942900D01*
X61143120Y-79068404D01*
X60988404Y-79223120D01*
X60988402Y-79223123D01*
X60862898Y-79402362D01*
X60831358Y-79470000D01*
X60770424Y-79600673D01*
X60713793Y-79812021D01*
X60694723Y-80029999D01*
X51030500Y-80029999D01*
X51030500Y-75149999D01*
X60694723Y-75149999D01*
X60694723Y-75150000D01*
X60713793Y-75367978D01*
X60770424Y-75579328D01*
X60770425Y-75579330D01*
X60862894Y-75777633D01*
X60862897Y-75777638D01*
X60862898Y-75777639D01*
X60988402Y-75956877D01*
X61143123Y-76111598D01*
X61258487Y-76192377D01*
X61322361Y-76237102D01*
X61322366Y-76237105D01*
X61424369Y-76284669D01*
X61520670Y-76329575D01*
X61732023Y-76386207D01*
X61950000Y-76405277D01*
X62167977Y-76386207D01*
X62379330Y-76329575D01*
X62577639Y-76237102D01*
X62756877Y-76111598D01*
X62911598Y-75956877D01*
X63037102Y-75777639D01*
X63129575Y-75579330D01*
X63186207Y-75367977D01*
X63205277Y-75150000D01*
X63186207Y-74932023D01*
X63129575Y-74720670D01*
X63077236Y-74608430D01*
X65065000Y-74608430D01*
X65065000Y-74690000D01*
X65715000Y-74690000D01*
X65715000Y-73965000D01*
X65714999Y-73965000D01*
X65708420Y-73965001D01*
X65637894Y-73971409D01*
X65637888Y-73971410D01*
X65475604Y-74021980D01*
X65475598Y-74021983D01*
X65330128Y-74109923D01*
X65330127Y-74109923D01*
X65209923Y-74230127D01*
X65209923Y-74230128D01*
X65121983Y-74375598D01*
X65121980Y-74375605D01*
X65071409Y-74537890D01*
X65065000Y-74608430D01*
X63077236Y-74608430D01*
X63037102Y-74522362D01*
X62911598Y-74343123D01*
X62756877Y-74188402D01*
X62644798Y-74109923D01*
X62577638Y-74062897D01*
X62577633Y-74062894D01*
X62379330Y-73970425D01*
X62379328Y-73970424D01*
X62167977Y-73913793D01*
X62167978Y-73913793D01*
X61950000Y-73894723D01*
X61732021Y-73913793D01*
X61520673Y-73970424D01*
X61520672Y-73970424D01*
X61520670Y-73970425D01*
X61322362Y-74062898D01*
X61322359Y-74062899D01*
X61322359Y-74062900D01*
X61143120Y-74188404D01*
X60988404Y-74343120D01*
X60988402Y-74343123D01*
X60862898Y-74522362D01*
X60776720Y-74707171D01*
X60770424Y-74720673D01*
X60713793Y-74932021D01*
X60694723Y-75149999D01*
X51030500Y-75149999D01*
X51030500Y-69674499D01*
X51030636Y-69669994D01*
X51524390Y-69669994D01*
X51524390Y-69670005D01*
X51544802Y-69955417D01*
X51544803Y-69955426D01*
X51544804Y-69955428D01*
X51545494Y-69958599D01*
X51605629Y-70235040D01*
X51605630Y-70235044D01*
X51605631Y-70235046D01*
X51641047Y-70330000D01*
X51705633Y-70503162D01*
X51842771Y-70754312D01*
X51899431Y-70830000D01*
X52014261Y-70983395D01*
X52216605Y-71185739D01*
X52353641Y-71288323D01*
X52445687Y-71357228D01*
X52696837Y-71494366D01*
X52696839Y-71494367D01*
X52964954Y-71594369D01*
X53244572Y-71655196D01*
X53244579Y-71655196D01*
X53244582Y-71655197D01*
X53529995Y-71675610D01*
X53530000Y-71675610D01*
X53530005Y-71675610D01*
X53815417Y-71655197D01*
X53815418Y-71655196D01*
X53815428Y-71655196D01*
X54095046Y-71594369D01*
X54363161Y-71494367D01*
X54540865Y-71397333D01*
X54614312Y-71357228D01*
X54614315Y-71357226D01*
X54843395Y-71185739D01*
X55045739Y-70983395D01*
X55217226Y-70754315D01*
X55235120Y-70721546D01*
X55283703Y-70632572D01*
X55354367Y-70503161D01*
X55454369Y-70235046D01*
X55481939Y-70108309D01*
X61440001Y-70108309D01*
X61450144Y-70207606D01*
X61450144Y-70207609D01*
X61503453Y-70368485D01*
X61592427Y-70512732D01*
X61712267Y-70632572D01*
X61856514Y-70721546D01*
X62017392Y-70774855D01*
X62116689Y-70784999D01*
X62139999Y-70784998D01*
X62140000Y-70784998D01*
X62140000Y-70060000D01*
X61440001Y-70060000D01*
X61440001Y-70108309D01*
X55481939Y-70108309D01*
X55515196Y-69955428D01*
X55515197Y-69955417D01*
X55535610Y-69670005D01*
X55535610Y-69669994D01*
X55524287Y-69511674D01*
X61440000Y-69511674D01*
X61440000Y-69560000D01*
X62140000Y-69560000D01*
X62140000Y-68834999D01*
X62116691Y-68835000D01*
X62116690Y-68835000D01*
X62017393Y-68845144D01*
X62017390Y-68845144D01*
X61856514Y-68898453D01*
X61712267Y-68987427D01*
X61592427Y-69107267D01*
X61503453Y-69251514D01*
X61450143Y-69412396D01*
X61450142Y-69412396D01*
X61440000Y-69511674D01*
X55524287Y-69511674D01*
X55515197Y-69384582D01*
X55515196Y-69384579D01*
X55515196Y-69384572D01*
X55454369Y-69104954D01*
X55354367Y-68836839D01*
X55325332Y-68783665D01*
X55217228Y-68585687D01*
X55145069Y-68489295D01*
X55045739Y-68356605D01*
X54843395Y-68154261D01*
X54723785Y-68064722D01*
X54614312Y-67982771D01*
X54363162Y-67845633D01*
X54199454Y-67784573D01*
X54095046Y-67745631D01*
X54095044Y-67745630D01*
X54095040Y-67745629D01*
X53882098Y-67699307D01*
X53815428Y-67684804D01*
X53815426Y-67684803D01*
X53815417Y-67684802D01*
X53530005Y-67664390D01*
X53529995Y-67664390D01*
X53244582Y-67684802D01*
X53244572Y-67684804D01*
X52964959Y-67745629D01*
X52696837Y-67845633D01*
X52445687Y-67982771D01*
X52216606Y-68154260D01*
X52014260Y-68356606D01*
X51842771Y-68585687D01*
X51705633Y-68836837D01*
X51605629Y-69104959D01*
X51544804Y-69384572D01*
X51544802Y-69384582D01*
X51524390Y-69669994D01*
X51030636Y-69669994D01*
X51030772Y-69665503D01*
X51031322Y-69656406D01*
X51048180Y-69377699D01*
X51050346Y-69359867D01*
X51101507Y-69080688D01*
X51105812Y-69063225D01*
X51190247Y-68792263D01*
X51196620Y-68775459D01*
X51313110Y-68516628D01*
X51321463Y-68500714D01*
X51468293Y-68257827D01*
X51478503Y-68243036D01*
X51653543Y-68019613D01*
X51665459Y-68006162D01*
X51866162Y-67805459D01*
X51879613Y-67793543D01*
X52103036Y-67618503D01*
X52117827Y-67608293D01*
X52360714Y-67461463D01*
X52376628Y-67453110D01*
X52635459Y-67336620D01*
X52652263Y-67330247D01*
X52923231Y-67245810D01*
X52940688Y-67241507D01*
X53219867Y-67190346D01*
X53237699Y-67188180D01*
X53525503Y-67170771D01*
X53534499Y-67170500D01*
X53595892Y-67170500D01*
X56464108Y-67170500D01*
X99464108Y-67170500D01*
X102464108Y-67170500D01*
X102525501Y-67170500D01*
X102534496Y-67170771D01*
G37*
%TD.AperFunction*%
%TD*%
M02*
