%TF.GenerationSoftware,KiCad,Pcbnew,8.0.7*%
%TF.CreationDate,2025-04-18T18:12:16+03:00*%
%TF.ProjectId,PUBG_KEY,50554247-5f4b-4455-992e-6b696361645f,rev?*%
%TF.SameCoordinates,Original*%
%TF.FileFunction,Copper,L2,Bot*%
%TF.FilePolarity,Positive*%
%FSLAX46Y46*%
G04 Gerber Fmt 4.6, Leading zero omitted, Abs format (unit mm)*
G04 Created by KiCad (PCBNEW 8.0.7) date 2025-04-18 18:12:16*
%MOMM*%
%LPD*%
G01*
G04 APERTURE LIST*
G04 Aperture macros list*
%AMRoundRect*
0 Rectangle with rounded corners*
0 $1 Rounding radius*
0 $2 $3 $4 $5 $6 $7 $8 $9 X,Y pos of 4 corners*
0 Add a 4 corners polygon primitive as box body*
4,1,4,$2,$3,$4,$5,$6,$7,$8,$9,$2,$3,0*
0 Add four circle primitives for the rounded corners*
1,1,$1+$1,$2,$3*
1,1,$1+$1,$4,$5*
1,1,$1+$1,$6,$7*
1,1,$1+$1,$8,$9*
0 Add four rect primitives between the rounded corners*
20,1,$1+$1,$2,$3,$4,$5,0*
20,1,$1+$1,$4,$5,$6,$7,0*
20,1,$1+$1,$6,$7,$8,$9,0*
20,1,$1+$1,$8,$9,$2,$3,0*%
G04 Aperture macros list end*
%TA.AperFunction,ComponentPad*%
%ADD10R,1.700000X1.700000*%
%TD*%
%TA.AperFunction,ComponentPad*%
%ADD11O,1.700000X1.700000*%
%TD*%
%TA.AperFunction,ComponentPad*%
%ADD12R,2.600000X2.600000*%
%TD*%
%TA.AperFunction,ComponentPad*%
%ADD13C,2.600000*%
%TD*%
%TA.AperFunction,ComponentPad*%
%ADD14C,1.500000*%
%TD*%
%TA.AperFunction,SMDPad,CuDef*%
%ADD15RoundRect,0.250001X0.924999X-0.499999X0.924999X0.499999X-0.924999X0.499999X-0.924999X-0.499999X0*%
%TD*%
%TA.AperFunction,SMDPad,CuDef*%
%ADD16RoundRect,0.225000X0.225000X0.250000X-0.225000X0.250000X-0.225000X-0.250000X0.225000X-0.250000X0*%
%TD*%
%TA.AperFunction,SMDPad,CuDef*%
%ADD17RoundRect,0.200000X0.200000X0.275000X-0.200000X0.275000X-0.200000X-0.275000X0.200000X-0.275000X0*%
%TD*%
%TA.AperFunction,SMDPad,CuDef*%
%ADD18RoundRect,0.250000X-0.250000X-0.475000X0.250000X-0.475000X0.250000X0.475000X-0.250000X0.475000X0*%
%TD*%
%TA.AperFunction,SMDPad,CuDef*%
%ADD19RoundRect,0.375000X-0.375000X0.625000X-0.375000X-0.625000X0.375000X-0.625000X0.375000X0.625000X0*%
%TD*%
%TA.AperFunction,SMDPad,CuDef*%
%ADD20RoundRect,0.500000X-1.400000X0.500000X-1.400000X-0.500000X1.400000X-0.500000X1.400000X0.500000X0*%
%TD*%
%TA.AperFunction,SMDPad,CuDef*%
%ADD21RoundRect,0.250001X0.499999X0.924999X-0.499999X0.924999X-0.499999X-0.924999X0.499999X-0.924999X0*%
%TD*%
%TA.AperFunction,SMDPad,CuDef*%
%ADD22RoundRect,0.225000X-0.250000X0.225000X-0.250000X-0.225000X0.250000X-0.225000X0.250000X0.225000X0*%
%TD*%
%TA.AperFunction,SMDPad,CuDef*%
%ADD23RoundRect,0.225000X-0.225000X-0.250000X0.225000X-0.250000X0.225000X0.250000X-0.225000X0.250000X0*%
%TD*%
%TA.AperFunction,SMDPad,CuDef*%
%ADD24RoundRect,0.200000X-0.200000X-0.275000X0.200000X-0.275000X0.200000X0.275000X-0.200000X0.275000X0*%
%TD*%
%TA.AperFunction,ViaPad*%
%ADD25C,1.000000*%
%TD*%
%TA.AperFunction,Conductor*%
%ADD26C,0.300000*%
%TD*%
%TA.AperFunction,Conductor*%
%ADD27C,0.200000*%
%TD*%
G04 APERTURE END LIST*
D10*
%TO.P,USB,1,VBUS*%
%TO.N,+5V*%
X80910000Y-70305000D03*
D11*
%TO.P,USB,2,D-*%
%TO.N,Net-(J2-D-)*%
X80910000Y-72845000D03*
%TO.P,USB,3,D+*%
%TO.N,Net-(J2-D+)*%
X80910000Y-75385000D03*
%TO.P,USB,4,ID*%
%TO.N,GND*%
X80910000Y-77925000D03*
%TD*%
D12*
%TO.P,J3,1,Pin_1*%
%TO.N,KEY1*%
X62190000Y-90190000D03*
D13*
%TO.P,J3,2,Pin_2*%
%TO.N,GND*%
X67270000Y-90190000D03*
%TO.P,J3,3,Pin_3*%
%TO.N,KEY2*%
X72350000Y-90190000D03*
%TO.P,J3,4,Pin_4*%
%TO.N,KEY3*%
X77430000Y-90190000D03*
%TO.P,J3,5,Pin_5*%
%TO.N,GND*%
X82510000Y-90190000D03*
%TO.P,J3,6,Pin_6*%
%TO.N,KEY4*%
X87590000Y-90190000D03*
%TD*%
D14*
%TO.P,Y1,1,1*%
%TO.N,PD0*%
X61950000Y-75150000D03*
%TO.P,Y1,2,2*%
%TO.N,PD1*%
X61950000Y-80030000D03*
%TD*%
D10*
%TO.P,Debug,1,Pin_1*%
%TO.N,VDD*%
X66690000Y-70830000D03*
D11*
%TO.P,Debug,2,Pin_2*%
%TO.N,SWDIO*%
X69230000Y-70830000D03*
%TO.P,Debug,3,Pin_3*%
%TO.N,SWCLK*%
X71770000Y-70830000D03*
%TO.P,Debug,4,Pin_4*%
%TO.N,GND*%
X74310000Y-70830000D03*
%TD*%
D15*
%TO.P,C2,1*%
%TO.N,VDD*%
X84255000Y-75915000D03*
%TO.P,C2,2*%
%TO.N,GND*%
X84255000Y-72665000D03*
%TD*%
D16*
%TO.P,C10,1*%
%TO.N,KEY2*%
X70625000Y-87330000D03*
%TO.P,C10,2*%
%TO.N,GND*%
X69075000Y-87330000D03*
%TD*%
D17*
%TO.P,R7,1*%
%TO.N,KEY3*%
X77660000Y-87330000D03*
%TO.P,R7,2*%
%TO.N,VDD*%
X76010000Y-87330000D03*
%TD*%
D16*
%TO.P,C12,1*%
%TO.N,KEY4*%
X85925000Y-87330000D03*
%TO.P,C12,2*%
%TO.N,GND*%
X84375000Y-87330000D03*
%TD*%
D18*
%TO.P,C6,1*%
%TO.N,GND*%
X60060000Y-82330000D03*
%TO.P,C6,2*%
%TO.N,PD1*%
X61960000Y-82330000D03*
%TD*%
D19*
%TO.P,U2,1,GND*%
%TO.N,GND*%
X87400000Y-72960000D03*
%TO.P,U2,2,VO*%
%TO.N,VDD*%
X89700000Y-72960000D03*
D20*
X89700000Y-79260000D03*
D19*
%TO.P,U2,3,VI*%
%TO.N,+5V*%
X92000000Y-72960000D03*
%TD*%
D21*
%TO.P,C1,1*%
%TO.N,+5V*%
X92170000Y-69860000D03*
%TO.P,C1,2*%
%TO.N,GND*%
X88920000Y-69860000D03*
%TD*%
D22*
%TO.P,C8,1*%
%TO.N,Net-(U1-NRST)*%
X65520000Y-80960000D03*
%TO.P,C8,2*%
%TO.N,GND*%
X65520000Y-82510000D03*
%TD*%
D23*
%TO.P,C11,1*%
%TO.N,KEY3*%
X79175000Y-87330000D03*
%TO.P,C11,2*%
%TO.N,GND*%
X80725000Y-87330000D03*
%TD*%
D18*
%TO.P,C5,1*%
%TO.N,GND*%
X59920000Y-72760000D03*
%TO.P,C5,2*%
%TO.N,PD0*%
X61820000Y-72760000D03*
%TD*%
D24*
%TO.P,R6,1*%
%TO.N,KEY2*%
X72135000Y-87330000D03*
%TO.P,R6,2*%
%TO.N,VDD*%
X73785000Y-87330000D03*
%TD*%
D23*
%TO.P,C9,1*%
%TO.N,KEY1*%
X63785000Y-87330000D03*
%TO.P,C9,2*%
%TO.N,GND*%
X65335000Y-87330000D03*
%TD*%
D17*
%TO.P,R5,1*%
%TO.N,KEY1*%
X62155000Y-87330000D03*
%TO.P,R5,2*%
%TO.N,VDD*%
X60505000Y-87330000D03*
%TD*%
D24*
%TO.P,R8,1*%
%TO.N,KEY4*%
X87420000Y-87330000D03*
%TO.P,R8,2*%
%TO.N,VDD*%
X89070000Y-87330000D03*
%TD*%
D25*
%TO.N,GND*%
X83180000Y-67790000D03*
X65770000Y-73490000D03*
X87225000Y-70580000D03*
%TO.N,VDD*%
X89070000Y-82050000D03*
X77920000Y-79850000D03*
%TO.N,PD0*%
X65620000Y-76730000D03*
%TO.N,PD1*%
X65650000Y-78100000D03*
%TO.N,Net-(U1-NRST)*%
X65520000Y-79470000D03*
%TO.N,KEY1*%
X63560000Y-85760000D03*
%TO.N,KEY2*%
X70100000Y-85810000D03*
%TO.N,KEY3*%
X77540000Y-85830000D03*
%TO.N,KEY4*%
X85920000Y-85810000D03*
%TO.N,LED*%
X75131459Y-81128541D03*
%TD*%
D26*
%TO.N,+5V*%
X92170000Y-69860000D02*
X92170000Y-72790000D01*
X83585000Y-70305000D02*
X85980000Y-67910000D01*
X92170000Y-72790000D02*
X92000000Y-72960000D01*
X91490000Y-67910000D02*
X92170000Y-68590000D01*
X80910000Y-70305000D02*
X83585000Y-70305000D01*
X85980000Y-67910000D02*
X91490000Y-67910000D01*
X92275000Y-69965000D02*
X92170000Y-69860000D01*
X92170000Y-68590000D02*
X92170000Y-69860000D01*
%TO.N,GND*%
X63570000Y-71290000D02*
X63560000Y-71290000D01*
X68140000Y-92900000D02*
X81620000Y-92900000D01*
X87225000Y-72785000D02*
X87400000Y-72960000D01*
X60550000Y-84030000D02*
X64340000Y-84030000D01*
X58990000Y-91260000D02*
X58990000Y-83400000D01*
X87225000Y-70250000D02*
X87225000Y-70580000D01*
X63560000Y-71290000D02*
X63460000Y-71190000D01*
X69075000Y-88245000D02*
X67300000Y-90020000D01*
X84255000Y-72665000D02*
X87105000Y-72665000D01*
X82540000Y-90020000D02*
X80725000Y-88205000D01*
X88920000Y-69860000D02*
X87615000Y-69860000D01*
X67300000Y-90020000D02*
X65335000Y-88055000D01*
X69075000Y-87270000D02*
X69075000Y-88245000D01*
X65335000Y-88055000D02*
X65335000Y-87350000D01*
X65770000Y-73490000D02*
X63570000Y-71290000D01*
X87105000Y-72665000D02*
X87400000Y-72960000D01*
X60630000Y-92900000D02*
X58990000Y-91260000D01*
X63460000Y-71190000D02*
X60580000Y-71190000D01*
X60580000Y-71190000D02*
X59920000Y-71850000D01*
X65770000Y-73490000D02*
X73490000Y-73490000D01*
X82540000Y-91980000D02*
X82540000Y-90020000D01*
X73490000Y-73490000D02*
X74310000Y-72670000D01*
X87225000Y-70580000D02*
X87225000Y-72785000D01*
D27*
X59920000Y-82190000D02*
X60060000Y-82330000D01*
D26*
X60060000Y-82330000D02*
X60060000Y-83540000D01*
X68140000Y-92900000D02*
X60630000Y-92900000D01*
X59920000Y-72760000D02*
X59920000Y-82190000D01*
X67300000Y-92060000D02*
X68140000Y-92900000D01*
X82540000Y-90020000D02*
X84375000Y-88185000D01*
X74310000Y-72670000D02*
X74310000Y-70830000D01*
X77350000Y-67790000D02*
X83180000Y-67790000D01*
X80725000Y-88205000D02*
X80725000Y-87410000D01*
X84375000Y-88185000D02*
X84375000Y-87460000D01*
X81620000Y-92900000D02*
X82540000Y-91980000D01*
D27*
X65520000Y-82850000D02*
X65520000Y-82510000D01*
D26*
X87615000Y-69860000D02*
X87225000Y-70250000D01*
X64340000Y-84030000D02*
X65520000Y-82850000D01*
X58990000Y-83400000D02*
X60060000Y-82330000D01*
D27*
X60060000Y-72900000D02*
X59920000Y-72760000D01*
D26*
X59920000Y-71850000D02*
X59920000Y-72760000D01*
X60060000Y-83540000D02*
X60550000Y-84030000D01*
X67300000Y-90020000D02*
X67300000Y-92060000D01*
X74310000Y-70830000D02*
X77350000Y-67790000D01*
%TO.N,VDD*%
X89020000Y-84910000D02*
X89070000Y-84860000D01*
X86810000Y-79850000D02*
X87400000Y-79260000D01*
X61340000Y-84910000D02*
X73160000Y-84910000D01*
X89700000Y-72960000D02*
X89700000Y-79260000D01*
X89070000Y-82050000D02*
X89070000Y-79890000D01*
X77920000Y-79850000D02*
X86810000Y-79850000D01*
X87400000Y-79260000D02*
X89700000Y-79260000D01*
X73785000Y-85535000D02*
X73785000Y-87330000D01*
X89070000Y-79890000D02*
X89700000Y-79260000D01*
X73160000Y-84910000D02*
X89020000Y-84910000D01*
X60505000Y-87330000D02*
X60505000Y-85745000D01*
X84255000Y-75915000D02*
X86355000Y-75915000D01*
X89070000Y-84860000D02*
X89070000Y-82050000D01*
X76010000Y-87330000D02*
X73785000Y-87330000D01*
X60505000Y-85745000D02*
X61340000Y-84910000D01*
X86355000Y-75915000D02*
X89700000Y-79260000D01*
X89070000Y-87330000D02*
X89070000Y-84860000D01*
X73160000Y-84910000D02*
X73785000Y-85535000D01*
%TO.N,PD0*%
X63530000Y-76730000D02*
X61950000Y-75150000D01*
D27*
X61950000Y-75150000D02*
X61950000Y-74900000D01*
X61950000Y-74900000D02*
X61820000Y-74770000D01*
D26*
X61950000Y-75150000D02*
X61950000Y-72890000D01*
D27*
X61950000Y-72890000D02*
X61820000Y-72760000D01*
D26*
X65620000Y-76730000D02*
X63530000Y-76730000D01*
%TO.N,PD1*%
X65650000Y-78100000D02*
X63880000Y-78100000D01*
X63880000Y-78100000D02*
X61950000Y-80030000D01*
X61950000Y-82320000D02*
X61960000Y-82330000D01*
X61950000Y-80030000D02*
X61950000Y-82320000D01*
%TO.N,Net-(U1-NRST)*%
X65520000Y-79470000D02*
X65520000Y-80960000D01*
%TO.N,KEY1*%
X63785000Y-87330000D02*
X63785000Y-85985000D01*
X63765000Y-87330000D02*
X63785000Y-87350000D01*
X63785000Y-87350000D02*
X63785000Y-88455000D01*
X63785000Y-85985000D02*
X63560000Y-85760000D01*
X62155000Y-87330000D02*
X63765000Y-87330000D01*
X63785000Y-88455000D02*
X62220000Y-90020000D01*
%TO.N,KEY2*%
X70625000Y-87330000D02*
X70625000Y-86335000D01*
X70625000Y-87270000D02*
X72125000Y-87270000D01*
X72125000Y-87270000D02*
X72135000Y-87280000D01*
X70625000Y-88265000D02*
X72380000Y-90020000D01*
X70625000Y-86335000D02*
X70100000Y-85810000D01*
X70625000Y-87270000D02*
X70625000Y-88265000D01*
%TO.N,KEY3*%
X77660000Y-85950000D02*
X77540000Y-85830000D01*
X77660000Y-87420000D02*
X79165000Y-87420000D01*
X79165000Y-87420000D02*
X79175000Y-87410000D01*
X79175000Y-87410000D02*
X79175000Y-88305000D01*
X79175000Y-88305000D02*
X77460000Y-90020000D01*
X77660000Y-87330000D02*
X77660000Y-85950000D01*
%TO.N,KEY4*%
X85925000Y-87330000D02*
X85925000Y-85815000D01*
X85925000Y-88325000D02*
X87620000Y-90020000D01*
X85925000Y-85815000D02*
X85920000Y-85810000D01*
X87380000Y-87460000D02*
X87420000Y-87420000D01*
X85925000Y-87460000D02*
X85925000Y-88325000D01*
X85925000Y-87460000D02*
X87380000Y-87460000D01*
%TD*%
%TA.AperFunction,Conductor*%
%TO.N,GND*%
G36*
X85514336Y-67190462D02*
G01*
X85568874Y-67245000D01*
X85588836Y-67319500D01*
X85568874Y-67394000D01*
X85545195Y-67424859D01*
X83359195Y-69610859D01*
X83292400Y-69649423D01*
X83253836Y-69654500D01*
X82409499Y-69654500D01*
X82334999Y-69634538D01*
X82280461Y-69580000D01*
X82260499Y-69505500D01*
X82260499Y-69407136D01*
X82260499Y-69407128D01*
X82254091Y-69347517D01*
X82231709Y-69287508D01*
X82203797Y-69212670D01*
X82203795Y-69212666D01*
X82117547Y-69097455D01*
X82117544Y-69097452D01*
X82002333Y-69011204D01*
X82002329Y-69011202D01*
X81867482Y-68960908D01*
X81807876Y-68954500D01*
X80012136Y-68954500D01*
X80012111Y-68954502D01*
X79952521Y-68960908D01*
X79952515Y-68960909D01*
X79817670Y-69011202D01*
X79817666Y-69011204D01*
X79702455Y-69097452D01*
X79702452Y-69097455D01*
X79616204Y-69212666D01*
X79616202Y-69212670D01*
X79565908Y-69347517D01*
X79559500Y-69407114D01*
X79559500Y-71202863D01*
X79559502Y-71202888D01*
X79565908Y-71262478D01*
X79565909Y-71262484D01*
X79616202Y-71397329D01*
X79616204Y-71397333D01*
X79702452Y-71512544D01*
X79702455Y-71512547D01*
X79817666Y-71598795D01*
X79817668Y-71598795D01*
X79817669Y-71598796D01*
X79912633Y-71634215D01*
X79975460Y-71678953D01*
X80007501Y-71749111D01*
X80000170Y-71825890D01*
X79965923Y-71879179D01*
X79871509Y-71973593D01*
X79780095Y-72104147D01*
X79735965Y-72167171D01*
X79636097Y-72381337D01*
X79636096Y-72381340D01*
X79574937Y-72609590D01*
X79554341Y-72845000D01*
X79574937Y-73080409D01*
X79629758Y-73285008D01*
X79636097Y-73308663D01*
X79735965Y-73522830D01*
X79871505Y-73716401D01*
X80038599Y-73883495D01*
X80194913Y-73992947D01*
X80244489Y-74052030D01*
X80257882Y-74127986D01*
X80231503Y-74200463D01*
X80194912Y-74237054D01*
X80038597Y-74346506D01*
X79871507Y-74513596D01*
X79758491Y-74675001D01*
X79735965Y-74707171D01*
X79636097Y-74921337D01*
X79636096Y-74921340D01*
X79574937Y-75149590D01*
X79554341Y-75385000D01*
X79574937Y-75620409D01*
X79623375Y-75801186D01*
X79636097Y-75848663D01*
X79735965Y-76062830D01*
X79871505Y-76256401D01*
X80038599Y-76423495D01*
X80195349Y-76533253D01*
X80244925Y-76592335D01*
X80258318Y-76668291D01*
X80231939Y-76740768D01*
X80195348Y-76777358D01*
X80038923Y-76886888D01*
X79871891Y-77053920D01*
X79736402Y-77247419D01*
X79636568Y-77461512D01*
X79579364Y-77674999D01*
X79579364Y-77675000D01*
X80476988Y-77675000D01*
X80444075Y-77732007D01*
X80410000Y-77859174D01*
X80410000Y-77990826D01*
X80444075Y-78117993D01*
X80476988Y-78175000D01*
X79579364Y-78175000D01*
X79636568Y-78388489D01*
X79636569Y-78388491D01*
X79736400Y-78602579D01*
X79736406Y-78602588D01*
X79871888Y-78796076D01*
X80020953Y-78945141D01*
X80059517Y-79011936D01*
X80059517Y-79089064D01*
X80020953Y-79155859D01*
X79954158Y-79194423D01*
X79915594Y-79199500D01*
X78750910Y-79199500D01*
X78676410Y-79179538D01*
X78635732Y-79145025D01*
X78630885Y-79139119D01*
X78613681Y-79125000D01*
X78478538Y-79014090D01*
X78478532Y-79014087D01*
X78478526Y-79014083D01*
X78304731Y-78921187D01*
X78116134Y-78863976D01*
X77920000Y-78844659D01*
X77723865Y-78863976D01*
X77535268Y-78921187D01*
X77361473Y-79014083D01*
X77361465Y-79014088D01*
X77361463Y-79014089D01*
X77361462Y-79014090D01*
X77209117Y-79139117D01*
X77098530Y-79273868D01*
X77084088Y-79291465D01*
X77084083Y-79291473D01*
X76991187Y-79465268D01*
X76933976Y-79653865D01*
X76914659Y-79850000D01*
X76933976Y-80046134D01*
X76991187Y-80234731D01*
X77084083Y-80408526D01*
X77084087Y-80408532D01*
X77084090Y-80408538D01*
X77209117Y-80560883D01*
X77361462Y-80685910D01*
X77361471Y-80685915D01*
X77361473Y-80685916D01*
X77535268Y-80778812D01*
X77535270Y-80778812D01*
X77535273Y-80778814D01*
X77723868Y-80836024D01*
X77920000Y-80855341D01*
X78116132Y-80836024D01*
X78304727Y-80778814D01*
X78478538Y-80685910D01*
X78630883Y-80560883D01*
X78635732Y-80554975D01*
X78698425Y-80510050D01*
X78750910Y-80500500D01*
X86874065Y-80500500D01*
X86874069Y-80500500D01*
X86999744Y-80475501D01*
X87118127Y-80426465D01*
X87159510Y-80398814D01*
X87224669Y-80355277D01*
X87256656Y-80323289D01*
X87323446Y-80284726D01*
X87400574Y-80284724D01*
X87467370Y-80323286D01*
X87477491Y-80334488D01*
X87588891Y-80471109D01*
X87588895Y-80471113D01*
X87746586Y-80599693D01*
X87746589Y-80599694D01*
X87746593Y-80599698D01*
X87926951Y-80693909D01*
X88122582Y-80749886D01*
X88241963Y-80760500D01*
X88270498Y-80760499D01*
X88344996Y-80780459D01*
X88399535Y-80834995D01*
X88419500Y-80909494D01*
X88419500Y-81219089D01*
X88399538Y-81293589D01*
X88365032Y-81334262D01*
X88359118Y-81339115D01*
X88234088Y-81491465D01*
X88234083Y-81491473D01*
X88141187Y-81665268D01*
X88083976Y-81853865D01*
X88064659Y-82050000D01*
X88083976Y-82246134D01*
X88141187Y-82434731D01*
X88234083Y-82608526D01*
X88234087Y-82608532D01*
X88234090Y-82608538D01*
X88359117Y-82760883D01*
X88359119Y-82760885D01*
X88365025Y-82765732D01*
X88409950Y-82828425D01*
X88419500Y-82880910D01*
X88419500Y-84110500D01*
X88399538Y-84185000D01*
X88345000Y-84239538D01*
X88270500Y-84259500D01*
X61275927Y-84259500D01*
X61155101Y-84283535D01*
X61150256Y-84284498D01*
X61031878Y-84333532D01*
X61031870Y-84333537D01*
X60925331Y-84404723D01*
X60925329Y-84404724D01*
X59999725Y-85330329D01*
X59999724Y-85330329D01*
X59942966Y-85415276D01*
X59942964Y-85415278D01*
X59928538Y-85436866D01*
X59928531Y-85436880D01*
X59879499Y-85555254D01*
X59879498Y-85555256D01*
X59854500Y-85680927D01*
X59854500Y-86453125D01*
X59834538Y-86527625D01*
X59810859Y-86558484D01*
X59749527Y-86619815D01*
X59661524Y-86765391D01*
X59661521Y-86765396D01*
X59659615Y-86771514D01*
X59610914Y-86927804D01*
X59604500Y-86998384D01*
X59604500Y-87661616D01*
X59610914Y-87732196D01*
X59661522Y-87894606D01*
X59680000Y-87925172D01*
X59747969Y-88037607D01*
X59749528Y-88040185D01*
X59869815Y-88160472D01*
X60015394Y-88248478D01*
X60177804Y-88299086D01*
X60248384Y-88305500D01*
X60248391Y-88305500D01*
X60404685Y-88305500D01*
X60479185Y-88325462D01*
X60533723Y-88380000D01*
X60553685Y-88454500D01*
X60533723Y-88529000D01*
X60523965Y-88543793D01*
X60446205Y-88647666D01*
X60446202Y-88647670D01*
X60395908Y-88782517D01*
X60389500Y-88842114D01*
X60389500Y-91537863D01*
X60389502Y-91537888D01*
X60395908Y-91597478D01*
X60395909Y-91597484D01*
X60446202Y-91732329D01*
X60446204Y-91732333D01*
X60532452Y-91847544D01*
X60532455Y-91847547D01*
X60647666Y-91933795D01*
X60647670Y-91933797D01*
X60782517Y-91984091D01*
X60842114Y-91990499D01*
X60842118Y-91990499D01*
X60842127Y-91990500D01*
X63537872Y-91990499D01*
X63597483Y-91984091D01*
X63693447Y-91948298D01*
X63732329Y-91933797D01*
X63732333Y-91933795D01*
X63789938Y-91890671D01*
X63847546Y-91847546D01*
X63890671Y-91789938D01*
X63933795Y-91732333D01*
X63933797Y-91732329D01*
X63959136Y-91664390D01*
X63984091Y-91597483D01*
X63985823Y-91581370D01*
X63990499Y-91537885D01*
X63990499Y-91537882D01*
X63990500Y-91537873D01*
X63990499Y-90189995D01*
X65464953Y-90189995D01*
X65464953Y-90190004D01*
X65485112Y-90459016D01*
X65485115Y-90459038D01*
X65545143Y-90722039D01*
X65545145Y-90722046D01*
X65643707Y-90973176D01*
X65643709Y-90973181D01*
X65778599Y-91206816D01*
X65778604Y-91206824D01*
X65832295Y-91274150D01*
X66668958Y-90437487D01*
X66693978Y-90497890D01*
X66765112Y-90604351D01*
X66855649Y-90694888D01*
X66962110Y-90766022D01*
X67022511Y-90791041D01*
X66184849Y-91628702D01*
X66367481Y-91753219D01*
X66610532Y-91870266D01*
X66610553Y-91870274D01*
X66868333Y-91949789D01*
X66868337Y-91949790D01*
X67135105Y-91989999D01*
X67135112Y-91990000D01*
X67404888Y-91990000D01*
X67404894Y-91989999D01*
X67671662Y-91949790D01*
X67671666Y-91949789D01*
X67929449Y-91870273D01*
X67929453Y-91870272D01*
X68172526Y-91753215D01*
X68172533Y-91753211D01*
X68355150Y-91628703D01*
X67517488Y-90791041D01*
X67577890Y-90766022D01*
X67684351Y-90694888D01*
X67774888Y-90604351D01*
X67846022Y-90497890D01*
X67871041Y-90437488D01*
X68707703Y-91274150D01*
X68707704Y-91274150D01*
X68761393Y-91206828D01*
X68761398Y-91206820D01*
X68896290Y-90973181D01*
X68896292Y-90973176D01*
X68994854Y-90722046D01*
X68994856Y-90722039D01*
X69054884Y-90459038D01*
X69054887Y-90459016D01*
X69075047Y-90190004D01*
X69075047Y-90189995D01*
X69054887Y-89920983D01*
X69054884Y-89920961D01*
X68994856Y-89657960D01*
X68994854Y-89657953D01*
X68896292Y-89406823D01*
X68896290Y-89406818D01*
X68761400Y-89173183D01*
X68761395Y-89173175D01*
X68707703Y-89105848D01*
X67871041Y-89942510D01*
X67846022Y-89882110D01*
X67774888Y-89775649D01*
X67684351Y-89685112D01*
X67577890Y-89613978D01*
X67517487Y-89588957D01*
X68355149Y-88751296D01*
X68172521Y-88626782D01*
X67929453Y-88509727D01*
X67929449Y-88509726D01*
X67671666Y-88430210D01*
X67671662Y-88430209D01*
X67404894Y-88390000D01*
X67135105Y-88390000D01*
X66868337Y-88430209D01*
X66868333Y-88430210D01*
X66610553Y-88509725D01*
X66610532Y-88509733D01*
X66367478Y-88626782D01*
X66184849Y-88751295D01*
X66184849Y-88751296D01*
X67022511Y-89588958D01*
X66962110Y-89613978D01*
X66855649Y-89685112D01*
X66765112Y-89775649D01*
X66693978Y-89882110D01*
X66668958Y-89942511D01*
X65832295Y-89105848D01*
X65832294Y-89105848D01*
X65778603Y-89173176D01*
X65778600Y-89173181D01*
X65643709Y-89406818D01*
X65643707Y-89406823D01*
X65545145Y-89657953D01*
X65545143Y-89657960D01*
X65485115Y-89920961D01*
X65485112Y-89920983D01*
X65464953Y-90189995D01*
X63990499Y-90189995D01*
X63990499Y-89231162D01*
X64010461Y-89156663D01*
X64034136Y-89125808D01*
X64290276Y-88869669D01*
X64361465Y-88763127D01*
X64410501Y-88644744D01*
X64416790Y-88613127D01*
X64435500Y-88519069D01*
X64435500Y-88282752D01*
X64455462Y-88208252D01*
X64510000Y-88153714D01*
X64584500Y-88133752D01*
X64659000Y-88153714D01*
X64662723Y-88155936D01*
X64801516Y-88241547D01*
X64962392Y-88294855D01*
X65061689Y-88304999D01*
X65585000Y-88304999D01*
X65608310Y-88304999D01*
X65707606Y-88294855D01*
X65707609Y-88294855D01*
X65868485Y-88241546D01*
X66012732Y-88152572D01*
X66132572Y-88032732D01*
X66221546Y-87888485D01*
X66274856Y-87727603D01*
X66274857Y-87727603D01*
X66284999Y-87628325D01*
X66285000Y-87628315D01*
X66285000Y-87628309D01*
X68125001Y-87628309D01*
X68135144Y-87727606D01*
X68135144Y-87727609D01*
X68188453Y-87888485D01*
X68277427Y-88032732D01*
X68397267Y-88152572D01*
X68541514Y-88241546D01*
X68702392Y-88294855D01*
X68801689Y-88304999D01*
X68824999Y-88304998D01*
X68825000Y-88304998D01*
X68825000Y-87580000D01*
X68125001Y-87580000D01*
X68125001Y-87628309D01*
X66285000Y-87628309D01*
X66285000Y-87580000D01*
X65585000Y-87580000D01*
X65585000Y-88304999D01*
X65061689Y-88304999D01*
X65084999Y-88304998D01*
X65085000Y-88304998D01*
X65085000Y-87080000D01*
X65585000Y-87080000D01*
X66284999Y-87080000D01*
X66284999Y-87031690D01*
X66284997Y-87031674D01*
X68125000Y-87031674D01*
X68125000Y-87080000D01*
X68825000Y-87080000D01*
X68825000Y-86354999D01*
X68801691Y-86355000D01*
X68801690Y-86355000D01*
X68702393Y-86365144D01*
X68702390Y-86365144D01*
X68541514Y-86418453D01*
X68397267Y-86507427D01*
X68277427Y-86627267D01*
X68188453Y-86771514D01*
X68135143Y-86932396D01*
X68135142Y-86932396D01*
X68125000Y-87031674D01*
X66284997Y-87031674D01*
X66274855Y-86932393D01*
X66274855Y-86932390D01*
X66221546Y-86771514D01*
X66132572Y-86627267D01*
X66012732Y-86507427D01*
X65868485Y-86418453D01*
X65707603Y-86365143D01*
X65707603Y-86365142D01*
X65608325Y-86355000D01*
X65585000Y-86355000D01*
X65585000Y-87080000D01*
X65085000Y-87080000D01*
X65085000Y-86354999D01*
X65061691Y-86355000D01*
X65061690Y-86355000D01*
X64962393Y-86365144D01*
X64962390Y-86365144D01*
X64801514Y-86418453D01*
X64662722Y-86504063D01*
X64588834Y-86526184D01*
X64513785Y-86508397D01*
X64457684Y-86455469D01*
X64435563Y-86381581D01*
X64435500Y-86377247D01*
X64435500Y-86281792D01*
X64453093Y-86211555D01*
X64488814Y-86144727D01*
X64546024Y-85956132D01*
X64565341Y-85760000D01*
X64561806Y-85724104D01*
X64574369Y-85648007D01*
X64623298Y-85588386D01*
X64695483Y-85561218D01*
X64710088Y-85560500D01*
X68954836Y-85560500D01*
X69029336Y-85580462D01*
X69083874Y-85635000D01*
X69103836Y-85709500D01*
X69103119Y-85724101D01*
X69099504Y-85760805D01*
X69094659Y-85809999D01*
X69113976Y-86006134D01*
X69171187Y-86194731D01*
X69264085Y-86368531D01*
X69264088Y-86368535D01*
X69264090Y-86368538D01*
X69291178Y-86401545D01*
X69323009Y-86471795D01*
X69325000Y-86496069D01*
X69325000Y-88304999D01*
X69348310Y-88304999D01*
X69447606Y-88294855D01*
X69447609Y-88294855D01*
X69608483Y-88241547D01*
X69747277Y-88155936D01*
X69821165Y-88133815D01*
X69896214Y-88151601D01*
X69952316Y-88204529D01*
X69974437Y-88278417D01*
X69974500Y-88282752D01*
X69974500Y-88329072D01*
X69987796Y-88395910D01*
X69999498Y-88454742D01*
X70048532Y-88573121D01*
X70048533Y-88573123D01*
X70048535Y-88573127D01*
X70119722Y-88679667D01*
X70119723Y-88679669D01*
X70689055Y-89249001D01*
X70727619Y-89315796D01*
X70727619Y-89392924D01*
X70722396Y-89408796D01*
X70624665Y-89657805D01*
X70624663Y-89657812D01*
X70564618Y-89920886D01*
X70564615Y-89920909D01*
X70544451Y-90189994D01*
X70544451Y-90190005D01*
X70564615Y-90459090D01*
X70564618Y-90459113D01*
X70624663Y-90722187D01*
X70624665Y-90722194D01*
X70723170Y-90973176D01*
X70723257Y-90973398D01*
X70858185Y-91207102D01*
X71026439Y-91418085D01*
X71224259Y-91601635D01*
X71447226Y-91753651D01*
X71690359Y-91870738D01*
X71948228Y-91950280D01*
X72215071Y-91990500D01*
X72215074Y-91990500D01*
X72484926Y-91990500D01*
X72484929Y-91990500D01*
X72751772Y-91950280D01*
X73009641Y-91870738D01*
X73252775Y-91753651D01*
X73475741Y-91601635D01*
X73673561Y-91418085D01*
X73841815Y-91207102D01*
X73976743Y-90973398D01*
X74075334Y-90722195D01*
X74135383Y-90459103D01*
X74155549Y-90190000D01*
X74135389Y-89920983D01*
X74135384Y-89920909D01*
X74135383Y-89920907D01*
X74135383Y-89920897D01*
X74135381Y-89920891D01*
X74135381Y-89920886D01*
X74075336Y-89657812D01*
X74075334Y-89657805D01*
X73977604Y-89408796D01*
X73976743Y-89406602D01*
X73841815Y-89172898D01*
X73673561Y-88961915D01*
X73475741Y-88778365D01*
X73252775Y-88626349D01*
X73252772Y-88626348D01*
X73252770Y-88626346D01*
X73009650Y-88509266D01*
X73009646Y-88509264D01*
X73009641Y-88509262D01*
X73009633Y-88509259D01*
X73009629Y-88509258D01*
X72786629Y-88440471D01*
X72721323Y-88399436D01*
X72685284Y-88331246D01*
X72688168Y-88254172D01*
X72729203Y-88188866D01*
X72753468Y-88170578D01*
X72770182Y-88160474D01*
X72770182Y-88160473D01*
X72770185Y-88160472D01*
X72854641Y-88076016D01*
X72921436Y-88037452D01*
X72998564Y-88037452D01*
X73065359Y-88076016D01*
X73149815Y-88160472D01*
X73295394Y-88248478D01*
X73457804Y-88299086D01*
X73528384Y-88305500D01*
X73528391Y-88305500D01*
X74041609Y-88305500D01*
X74041616Y-88305500D01*
X74112196Y-88299086D01*
X74274606Y-88248478D01*
X74420185Y-88160472D01*
X74540472Y-88040185D01*
X74540474Y-88040180D01*
X74542492Y-88037607D01*
X74544736Y-88035920D01*
X74546845Y-88033812D01*
X74547144Y-88034111D01*
X74604152Y-87991274D01*
X74659781Y-87980500D01*
X75135219Y-87980500D01*
X75209719Y-88000462D01*
X75248146Y-88033820D01*
X75248155Y-88033812D01*
X75248277Y-88033934D01*
X75252508Y-88037607D01*
X75254527Y-88040184D01*
X75254528Y-88040185D01*
X75374815Y-88160472D01*
X75520394Y-88248478D01*
X75682804Y-88299086D01*
X75753384Y-88305500D01*
X75753391Y-88305500D01*
X76266609Y-88305500D01*
X76266616Y-88305500D01*
X76337196Y-88299086D01*
X76499606Y-88248478D01*
X76645185Y-88160472D01*
X76729641Y-88076016D01*
X76796436Y-88037452D01*
X76873564Y-88037452D01*
X76940359Y-88076016D01*
X77024815Y-88160472D01*
X77036464Y-88167514D01*
X77089893Y-88223138D01*
X77108353Y-88298024D01*
X77086896Y-88372108D01*
X77031272Y-88425537D01*
X77003302Y-88437407D01*
X76770370Y-88509258D01*
X76770349Y-88509266D01*
X76527227Y-88626348D01*
X76304259Y-88778364D01*
X76106438Y-88961915D01*
X75938189Y-89172892D01*
X75938186Y-89172896D01*
X75938185Y-89172898D01*
X75909671Y-89222284D01*
X75803257Y-89406601D01*
X75803255Y-89406606D01*
X75704665Y-89657805D01*
X75704663Y-89657812D01*
X75644618Y-89920886D01*
X75644615Y-89920909D01*
X75624451Y-90189994D01*
X75624451Y-90190005D01*
X75644615Y-90459090D01*
X75644618Y-90459113D01*
X75704663Y-90722187D01*
X75704665Y-90722194D01*
X75803170Y-90973176D01*
X75803257Y-90973398D01*
X75938185Y-91207102D01*
X76106439Y-91418085D01*
X76304259Y-91601635D01*
X76527226Y-91753651D01*
X76770359Y-91870738D01*
X77028228Y-91950280D01*
X77295071Y-91990500D01*
X77295074Y-91990500D01*
X77564926Y-91990500D01*
X77564929Y-91990500D01*
X77831772Y-91950280D01*
X78089641Y-91870738D01*
X78332775Y-91753651D01*
X78555741Y-91601635D01*
X78753561Y-91418085D01*
X78921815Y-91207102D01*
X79056743Y-90973398D01*
X79155334Y-90722195D01*
X79215383Y-90459103D01*
X79235549Y-90190000D01*
X79235549Y-90189995D01*
X80704953Y-90189995D01*
X80704953Y-90190004D01*
X80725112Y-90459016D01*
X80725115Y-90459038D01*
X80785143Y-90722039D01*
X80785145Y-90722046D01*
X80883707Y-90973176D01*
X80883709Y-90973181D01*
X81018599Y-91206816D01*
X81018604Y-91206824D01*
X81072295Y-91274150D01*
X81908958Y-90437487D01*
X81933978Y-90497890D01*
X82005112Y-90604351D01*
X82095649Y-90694888D01*
X82202110Y-90766022D01*
X82262511Y-90791041D01*
X81424849Y-91628702D01*
X81607481Y-91753219D01*
X81850532Y-91870266D01*
X81850553Y-91870274D01*
X82108333Y-91949789D01*
X82108337Y-91949790D01*
X82375105Y-91989999D01*
X82375112Y-91990000D01*
X82644888Y-91990000D01*
X82644894Y-91989999D01*
X82911662Y-91949790D01*
X82911666Y-91949789D01*
X83169449Y-91870273D01*
X83169453Y-91870272D01*
X83412526Y-91753215D01*
X83412533Y-91753211D01*
X83595150Y-91628703D01*
X82757488Y-90791041D01*
X82817890Y-90766022D01*
X82924351Y-90694888D01*
X83014888Y-90604351D01*
X83086022Y-90497890D01*
X83111041Y-90437488D01*
X83947703Y-91274150D01*
X83947704Y-91274150D01*
X84001393Y-91206828D01*
X84001398Y-91206820D01*
X84136290Y-90973181D01*
X84136292Y-90973176D01*
X84234854Y-90722046D01*
X84234856Y-90722039D01*
X84294884Y-90459038D01*
X84294887Y-90459016D01*
X84315047Y-90190004D01*
X84315047Y-90189995D01*
X84294887Y-89920983D01*
X84294884Y-89920961D01*
X84234856Y-89657960D01*
X84234854Y-89657953D01*
X84136292Y-89406823D01*
X84136290Y-89406818D01*
X84001400Y-89173183D01*
X84001395Y-89173175D01*
X83947703Y-89105848D01*
X83111041Y-89942510D01*
X83086022Y-89882110D01*
X83014888Y-89775649D01*
X82924351Y-89685112D01*
X82817890Y-89613978D01*
X82757487Y-89588957D01*
X83595149Y-88751296D01*
X83412521Y-88626782D01*
X83169453Y-88509727D01*
X83169449Y-88509726D01*
X82911666Y-88430210D01*
X82911662Y-88430209D01*
X82644894Y-88390000D01*
X82375105Y-88390000D01*
X82108337Y-88430209D01*
X82108333Y-88430210D01*
X81850553Y-88509725D01*
X81850532Y-88509733D01*
X81607478Y-88626782D01*
X81424849Y-88751295D01*
X81424849Y-88751296D01*
X82262511Y-89588958D01*
X82202110Y-89613978D01*
X82095649Y-89685112D01*
X82005112Y-89775649D01*
X81933978Y-89882110D01*
X81908958Y-89942511D01*
X81072295Y-89105848D01*
X81072294Y-89105848D01*
X81018603Y-89173176D01*
X81018600Y-89173181D01*
X80883709Y-89406818D01*
X80883707Y-89406823D01*
X80785145Y-89657953D01*
X80785143Y-89657960D01*
X80725115Y-89920961D01*
X80725112Y-89920983D01*
X80704953Y-90189995D01*
X79235549Y-90189995D01*
X79215389Y-89920983D01*
X79215384Y-89920909D01*
X79215383Y-89920907D01*
X79215383Y-89920897D01*
X79215381Y-89920891D01*
X79215381Y-89920886D01*
X79155336Y-89657812D01*
X79155334Y-89657805D01*
X79074515Y-89451884D01*
X79065879Y-89375241D01*
X79096722Y-89304549D01*
X79107856Y-89292089D01*
X79294097Y-89105848D01*
X79680276Y-88719670D01*
X79751465Y-88613127D01*
X79800501Y-88494744D01*
X79825500Y-88369069D01*
X79825500Y-88282752D01*
X79845462Y-88208252D01*
X79900000Y-88153714D01*
X79974500Y-88133752D01*
X80049000Y-88153714D01*
X80052723Y-88155936D01*
X80191516Y-88241547D01*
X80352392Y-88294855D01*
X80451689Y-88304999D01*
X80975000Y-88304999D01*
X80998310Y-88304999D01*
X81097606Y-88294855D01*
X81097609Y-88294855D01*
X81258485Y-88241546D01*
X81402732Y-88152572D01*
X81522572Y-88032732D01*
X81611546Y-87888485D01*
X81664856Y-87727603D01*
X81664857Y-87727603D01*
X81674999Y-87628325D01*
X81675000Y-87628315D01*
X81675000Y-87628309D01*
X83425001Y-87628309D01*
X83435144Y-87727606D01*
X83435144Y-87727609D01*
X83488453Y-87888485D01*
X83577427Y-88032732D01*
X83697267Y-88152572D01*
X83841514Y-88241546D01*
X84002392Y-88294855D01*
X84101689Y-88304999D01*
X84124999Y-88304998D01*
X84125000Y-88304998D01*
X84125000Y-87580000D01*
X83425001Y-87580000D01*
X83425001Y-87628309D01*
X81675000Y-87628309D01*
X81675000Y-87580000D01*
X80975000Y-87580000D01*
X80975000Y-88304999D01*
X80451689Y-88304999D01*
X80474999Y-88304998D01*
X80475000Y-88304998D01*
X80475000Y-87080000D01*
X80975000Y-87080000D01*
X81674999Y-87080000D01*
X81674999Y-87031690D01*
X81674997Y-87031674D01*
X83425000Y-87031674D01*
X83425000Y-87080000D01*
X84125000Y-87080000D01*
X84125000Y-86354999D01*
X84101691Y-86355000D01*
X84101690Y-86355000D01*
X84002393Y-86365144D01*
X84002390Y-86365144D01*
X83841514Y-86418453D01*
X83697267Y-86507427D01*
X83577427Y-86627267D01*
X83488453Y-86771514D01*
X83435143Y-86932396D01*
X83435142Y-86932396D01*
X83425000Y-87031674D01*
X81674997Y-87031674D01*
X81664855Y-86932393D01*
X81664855Y-86932390D01*
X81611546Y-86771514D01*
X81522572Y-86627267D01*
X81402732Y-86507427D01*
X81258485Y-86418453D01*
X81097603Y-86365143D01*
X81097603Y-86365142D01*
X80998325Y-86355000D01*
X80975000Y-86355000D01*
X80975000Y-87080000D01*
X80475000Y-87080000D01*
X80475000Y-86354999D01*
X80451691Y-86355000D01*
X80451690Y-86355000D01*
X80352393Y-86365144D01*
X80352390Y-86365144D01*
X80191514Y-86418453D01*
X80047267Y-86507427D01*
X80042812Y-86510950D01*
X79971989Y-86541493D01*
X79895383Y-86532534D01*
X79857990Y-86510943D01*
X79853047Y-86507035D01*
X79853044Y-86507032D01*
X79748351Y-86442456D01*
X79708699Y-86417998D01*
X79708698Y-86417997D01*
X79708697Y-86417997D01*
X79547708Y-86364651D01*
X79448345Y-86354500D01*
X79448340Y-86354500D01*
X78901660Y-86354500D01*
X78802291Y-86364651D01*
X78802288Y-86364651D01*
X78652943Y-86414140D01*
X78575946Y-86418625D01*
X78507022Y-86384010D01*
X78464639Y-86319570D01*
X78460154Y-86242573D01*
X78468416Y-86215688D01*
X78468812Y-86214730D01*
X78468814Y-86214727D01*
X78526024Y-86026132D01*
X78545341Y-85830000D01*
X78534911Y-85724102D01*
X78547475Y-85648006D01*
X78596405Y-85588386D01*
X78668590Y-85561217D01*
X78683194Y-85560500D01*
X84774836Y-85560500D01*
X84849336Y-85580462D01*
X84903874Y-85635000D01*
X84923836Y-85709500D01*
X84923119Y-85724101D01*
X84919504Y-85760805D01*
X84914659Y-85809999D01*
X84933976Y-86006134D01*
X84992421Y-86198799D01*
X84994945Y-86275886D01*
X84958587Y-86343907D01*
X84893090Y-86384636D01*
X84816003Y-86387160D01*
X84802971Y-86383489D01*
X84747607Y-86365143D01*
X84747603Y-86365142D01*
X84648325Y-86355000D01*
X84625000Y-86355000D01*
X84625000Y-88304999D01*
X84648310Y-88304999D01*
X84747606Y-88294855D01*
X84747609Y-88294855D01*
X84908483Y-88241547D01*
X85047277Y-88155936D01*
X85121165Y-88133815D01*
X85196214Y-88151601D01*
X85252316Y-88204529D01*
X85274437Y-88278417D01*
X85274500Y-88282752D01*
X85274500Y-88389072D01*
X85287564Y-88454744D01*
X85299498Y-88514742D01*
X85348532Y-88633121D01*
X85348533Y-88633123D01*
X85348535Y-88633127D01*
X85419722Y-88739667D01*
X85419723Y-88739669D01*
X85929055Y-89249001D01*
X85967619Y-89315796D01*
X85967619Y-89392924D01*
X85962396Y-89408796D01*
X85864665Y-89657805D01*
X85864663Y-89657812D01*
X85804618Y-89920886D01*
X85804615Y-89920909D01*
X85784451Y-90189994D01*
X85784451Y-90190005D01*
X85804615Y-90459090D01*
X85804618Y-90459113D01*
X85864663Y-90722187D01*
X85864665Y-90722194D01*
X85963170Y-90973176D01*
X85963257Y-90973398D01*
X86098185Y-91207102D01*
X86266439Y-91418085D01*
X86464259Y-91601635D01*
X86687226Y-91753651D01*
X86930359Y-91870738D01*
X87188228Y-91950280D01*
X87455071Y-91990500D01*
X87455074Y-91990500D01*
X87724926Y-91990500D01*
X87724929Y-91990500D01*
X87991772Y-91950280D01*
X88249641Y-91870738D01*
X88492775Y-91753651D01*
X88715741Y-91601635D01*
X88913561Y-91418085D01*
X89081815Y-91207102D01*
X89216743Y-90973398D01*
X89315334Y-90722195D01*
X89375383Y-90459103D01*
X89395549Y-90190000D01*
X89375389Y-89920983D01*
X89375384Y-89920909D01*
X89375383Y-89920907D01*
X89375383Y-89920897D01*
X89375381Y-89920891D01*
X89375381Y-89920886D01*
X89315336Y-89657812D01*
X89315334Y-89657805D01*
X89217604Y-89408796D01*
X89216743Y-89406602D01*
X89081815Y-89172898D01*
X88913561Y-88961915D01*
X88715741Y-88778365D01*
X88492775Y-88626349D01*
X88492772Y-88626348D01*
X88492770Y-88626346D01*
X88249650Y-88509266D01*
X88249646Y-88509264D01*
X88249641Y-88509262D01*
X88249633Y-88509259D01*
X88249629Y-88509258D01*
X88056425Y-88449662D01*
X87991119Y-88408627D01*
X87955080Y-88340437D01*
X87957964Y-88263363D01*
X87998999Y-88198057D01*
X88023258Y-88179772D01*
X88055185Y-88160472D01*
X88139641Y-88076016D01*
X88206436Y-88037452D01*
X88283564Y-88037452D01*
X88350359Y-88076016D01*
X88434815Y-88160472D01*
X88580394Y-88248478D01*
X88742804Y-88299086D01*
X88813384Y-88305500D01*
X88813391Y-88305500D01*
X89326609Y-88305500D01*
X89326616Y-88305500D01*
X89397196Y-88299086D01*
X89559606Y-88248478D01*
X89705185Y-88160472D01*
X89825472Y-88040185D01*
X89913478Y-87894606D01*
X89964086Y-87732196D01*
X89970500Y-87661616D01*
X89970500Y-86998384D01*
X89964086Y-86927804D01*
X89913478Y-86765394D01*
X89825472Y-86619815D01*
X89764141Y-86558484D01*
X89725577Y-86491689D01*
X89720500Y-86453125D01*
X89720500Y-82880910D01*
X89740462Y-82806410D01*
X89774975Y-82765732D01*
X89777836Y-82763383D01*
X89780883Y-82760883D01*
X89905910Y-82608538D01*
X89998814Y-82434727D01*
X90056024Y-82246132D01*
X90075341Y-82050000D01*
X90056024Y-81853868D01*
X89998814Y-81665273D01*
X89998812Y-81665270D01*
X89998812Y-81665268D01*
X89905916Y-81491473D01*
X89905915Y-81491471D01*
X89905910Y-81491462D01*
X89780883Y-81339117D01*
X89780881Y-81339115D01*
X89774968Y-81334262D01*
X89730047Y-81271566D01*
X89720500Y-81219089D01*
X89720500Y-80909499D01*
X89740462Y-80834999D01*
X89795000Y-80780461D01*
X89869500Y-80760499D01*
X91158031Y-80760499D01*
X91158036Y-80760499D01*
X91277418Y-80749886D01*
X91473049Y-80693909D01*
X91653407Y-80599698D01*
X91811109Y-80471109D01*
X91939698Y-80313407D01*
X92033909Y-80133049D01*
X92089886Y-79937418D01*
X92100500Y-79818037D01*
X92100499Y-78701964D01*
X92089886Y-78582582D01*
X92033909Y-78386951D01*
X91939698Y-78206593D01*
X91939694Y-78206589D01*
X91939693Y-78206586D01*
X91811113Y-78048895D01*
X91811104Y-78048886D01*
X91653413Y-77920306D01*
X91653408Y-77920303D01*
X91653407Y-77920302D01*
X91567261Y-77875303D01*
X91473050Y-77826091D01*
X91277422Y-77770115D01*
X91277421Y-77770114D01*
X91277418Y-77770114D01*
X91158037Y-77759500D01*
X91158030Y-77759500D01*
X90499500Y-77759500D01*
X90425000Y-77739538D01*
X90370462Y-77685000D01*
X90350500Y-77610500D01*
X90350500Y-74518045D01*
X90370462Y-74443545D01*
X90425000Y-74389007D01*
X90433298Y-74384560D01*
X90549292Y-74327032D01*
X90549292Y-74327031D01*
X90549296Y-74327030D01*
X90697722Y-74207722D01*
X90733870Y-74162751D01*
X90796101Y-74117194D01*
X90872777Y-74108855D01*
X90943350Y-74139971D01*
X90966126Y-74162747D01*
X91002278Y-74207722D01*
X91038769Y-74237054D01*
X91150702Y-74327029D01*
X91150707Y-74327032D01*
X91236685Y-74369672D01*
X91321307Y-74411641D01*
X91506111Y-74457600D01*
X91548877Y-74460500D01*
X92451122Y-74460499D01*
X92493889Y-74457600D01*
X92678693Y-74411641D01*
X92849296Y-74327030D01*
X92997722Y-74207722D01*
X93117030Y-74059296D01*
X93201641Y-73888693D01*
X93247600Y-73703889D01*
X93250500Y-73661123D01*
X93250499Y-72258878D01*
X93247600Y-72216111D01*
X93201641Y-72031307D01*
X93147592Y-71922327D01*
X93117032Y-71860707D01*
X93117029Y-71860702D01*
X93010270Y-71727888D01*
X92997722Y-71712278D01*
X92987849Y-71704342D01*
X92942291Y-71642109D01*
X92933954Y-71565433D01*
X92965071Y-71494860D01*
X93002975Y-71461399D01*
X93138655Y-71377711D01*
X93262711Y-71253655D01*
X93354814Y-71104334D01*
X93409999Y-70937797D01*
X93420500Y-70835008D01*
X93420500Y-69669994D01*
X100524390Y-69669994D01*
X100524390Y-69670005D01*
X100544802Y-69955417D01*
X100544803Y-69955426D01*
X100544804Y-69955428D01*
X100545494Y-69958599D01*
X100605629Y-70235040D01*
X100705633Y-70503162D01*
X100842771Y-70754312D01*
X100903165Y-70834988D01*
X101014261Y-70983395D01*
X101216605Y-71185739D01*
X101353641Y-71288323D01*
X101445687Y-71357228D01*
X101684560Y-71487662D01*
X101696839Y-71494367D01*
X101964954Y-71594369D01*
X102244572Y-71655196D01*
X102244579Y-71655196D01*
X102244582Y-71655197D01*
X102529995Y-71675610D01*
X102530000Y-71675610D01*
X102530005Y-71675610D01*
X102815417Y-71655197D01*
X102815418Y-71655196D01*
X102815428Y-71655196D01*
X103095046Y-71594369D01*
X103363161Y-71494367D01*
X103540865Y-71397333D01*
X103614312Y-71357228D01*
X103614315Y-71357226D01*
X103843395Y-71185739D01*
X104045739Y-70983395D01*
X104217226Y-70754315D01*
X104354367Y-70503161D01*
X104454369Y-70235046D01*
X104515196Y-69955428D01*
X104515197Y-69955417D01*
X104535610Y-69670005D01*
X104535610Y-69669994D01*
X104515197Y-69384582D01*
X104515196Y-69384579D01*
X104515196Y-69384572D01*
X104454369Y-69104954D01*
X104354367Y-68836839D01*
X104324587Y-68782301D01*
X104217228Y-68585687D01*
X104127889Y-68466345D01*
X104045739Y-68356605D01*
X103843395Y-68154261D01*
X103750504Y-68084724D01*
X103614312Y-67982771D01*
X103363162Y-67845633D01*
X103199454Y-67784573D01*
X103095046Y-67745631D01*
X103095044Y-67745630D01*
X103095040Y-67745629D01*
X102882098Y-67699307D01*
X102815428Y-67684804D01*
X102815426Y-67684803D01*
X102815417Y-67684802D01*
X102530005Y-67664390D01*
X102529995Y-67664390D01*
X102244582Y-67684802D01*
X102244572Y-67684804D01*
X101964959Y-67745629D01*
X101696837Y-67845633D01*
X101445687Y-67982771D01*
X101216606Y-68154260D01*
X101014260Y-68356606D01*
X100842771Y-68585687D01*
X100705633Y-68836837D01*
X100605629Y-69104959D01*
X100544804Y-69384572D01*
X100544802Y-69384582D01*
X100524390Y-69669994D01*
X93420500Y-69669994D01*
X93420500Y-68884992D01*
X93409999Y-68782203D01*
X93354814Y-68615666D01*
X93262711Y-68466345D01*
X93138655Y-68342289D01*
X92989336Y-68250187D01*
X92989335Y-68250186D01*
X92989334Y-68250186D01*
X92905332Y-68222350D01*
X92822798Y-68195001D01*
X92822789Y-68194999D01*
X92733132Y-68185840D01*
X92661046Y-68158410D01*
X92642916Y-68142971D01*
X92584669Y-68084724D01*
X91924805Y-67424859D01*
X91886241Y-67358064D01*
X91886241Y-67280936D01*
X91924805Y-67214141D01*
X91991600Y-67175577D01*
X92030164Y-67170500D01*
X99464108Y-67170500D01*
X102464108Y-67170500D01*
X102525501Y-67170500D01*
X102534496Y-67170771D01*
X102822298Y-67188180D01*
X102840134Y-67190346D01*
X103119307Y-67241506D01*
X103136772Y-67245811D01*
X103407730Y-67330245D01*
X103424546Y-67336622D01*
X103683362Y-67453106D01*
X103699293Y-67461468D01*
X103942163Y-67608288D01*
X103956971Y-67618509D01*
X104041590Y-67684804D01*
X104180377Y-67793536D01*
X104193845Y-67805467D01*
X104394532Y-68006154D01*
X104406463Y-68019622D01*
X104581490Y-68243028D01*
X104591711Y-68257836D01*
X104738531Y-68500706D01*
X104746893Y-68516637D01*
X104863375Y-68775449D01*
X104869755Y-68792273D01*
X104954187Y-69063225D01*
X104958493Y-69080695D01*
X105009651Y-69359852D01*
X105011820Y-69377714D01*
X105029228Y-69665503D01*
X105029500Y-69674499D01*
X105029500Y-93665500D01*
X105029228Y-93674496D01*
X105011820Y-93962285D01*
X105009651Y-93980147D01*
X104958493Y-94259304D01*
X104954187Y-94276774D01*
X104869755Y-94547726D01*
X104863375Y-94564550D01*
X104746893Y-94823362D01*
X104738531Y-94839293D01*
X104591711Y-95082163D01*
X104581490Y-95096971D01*
X104406463Y-95320377D01*
X104394532Y-95333845D01*
X104193845Y-95534532D01*
X104180377Y-95546463D01*
X103956971Y-95721490D01*
X103942163Y-95731711D01*
X103699293Y-95878531D01*
X103683362Y-95886893D01*
X103424550Y-96003375D01*
X103407726Y-96009755D01*
X103136774Y-96094187D01*
X103119304Y-96098493D01*
X102840147Y-96149651D01*
X102822285Y-96151820D01*
X102534497Y-96169228D01*
X102525501Y-96169500D01*
X53534499Y-96169500D01*
X53525503Y-96169228D01*
X53237714Y-96151820D01*
X53219852Y-96149651D01*
X52940695Y-96098493D01*
X52923225Y-96094187D01*
X52652273Y-96009755D01*
X52635449Y-96003375D01*
X52376637Y-95886893D01*
X52360706Y-95878531D01*
X52117836Y-95731711D01*
X52103028Y-95721490D01*
X51879622Y-95546463D01*
X51866154Y-95534532D01*
X51665467Y-95333845D01*
X51653536Y-95320377D01*
X51534518Y-95168462D01*
X51478509Y-95096971D01*
X51468288Y-95082163D01*
X51408579Y-94983393D01*
X51321467Y-94839291D01*
X51313106Y-94823362D01*
X51196622Y-94564546D01*
X51190244Y-94547726D01*
X51176357Y-94503162D01*
X51105811Y-94276772D01*
X51101506Y-94259304D01*
X51097061Y-94235046D01*
X51050346Y-93980134D01*
X51048180Y-93962298D01*
X51030772Y-93674496D01*
X51030636Y-93669994D01*
X51524390Y-93669994D01*
X51524390Y-93670005D01*
X51544802Y-93955417D01*
X51544804Y-93955427D01*
X51605629Y-94235040D01*
X51705633Y-94503162D01*
X51842771Y-94754312D01*
X51946128Y-94892380D01*
X52014261Y-94983395D01*
X52216605Y-95185739D01*
X52353641Y-95288323D01*
X52445687Y-95357228D01*
X52655487Y-95471787D01*
X52696839Y-95494367D01*
X52964954Y-95594369D01*
X53244572Y-95655196D01*
X53244579Y-95655196D01*
X53244582Y-95655197D01*
X53529995Y-95675610D01*
X53530000Y-95675610D01*
X53530005Y-95675610D01*
X53815417Y-95655197D01*
X53815418Y-95655196D01*
X53815428Y-95655196D01*
X54095046Y-95594369D01*
X54363161Y-95494367D01*
X54502911Y-95418057D01*
X54614312Y-95357228D01*
X54645548Y-95333845D01*
X54843395Y-95185739D01*
X55045739Y-94983395D01*
X55217226Y-94754315D01*
X55354367Y-94503161D01*
X55454369Y-94235046D01*
X55515196Y-93955428D01*
X55523311Y-93841969D01*
X55535610Y-93670005D01*
X55535610Y-93669994D01*
X100524390Y-93669994D01*
X100524390Y-93670005D01*
X100544802Y-93955417D01*
X100544804Y-93955427D01*
X100605629Y-94235040D01*
X100705633Y-94503162D01*
X100842771Y-94754312D01*
X100946128Y-94892380D01*
X101014261Y-94983395D01*
X101216605Y-95185739D01*
X101353641Y-95288323D01*
X101445687Y-95357228D01*
X101655487Y-95471787D01*
X101696839Y-95494367D01*
X101964954Y-95594369D01*
X102244572Y-95655196D01*
X102244579Y-95655196D01*
X102244582Y-95655197D01*
X102529995Y-95675610D01*
X102530000Y-95675610D01*
X102530005Y-95675610D01*
X102815417Y-95655197D01*
X102815418Y-95655196D01*
X102815428Y-95655196D01*
X103095046Y-95594369D01*
X103363161Y-95494367D01*
X103502911Y-95418057D01*
X103614312Y-95357228D01*
X103645548Y-95333845D01*
X103843395Y-95185739D01*
X104045739Y-94983395D01*
X104217226Y-94754315D01*
X104354367Y-94503161D01*
X104454369Y-94235046D01*
X104515196Y-93955428D01*
X104523311Y-93841969D01*
X104535610Y-93670005D01*
X104535610Y-93669994D01*
X104515197Y-93384582D01*
X104515196Y-93384579D01*
X104515196Y-93384572D01*
X104454369Y-93104954D01*
X104354367Y-92836839D01*
X104305083Y-92746582D01*
X104217228Y-92585687D01*
X104148323Y-92493641D01*
X104045739Y-92356605D01*
X103843395Y-92154261D01*
X103752380Y-92086128D01*
X103614312Y-91982771D01*
X103363162Y-91845633D01*
X103199454Y-91784573D01*
X103095046Y-91745631D01*
X103095044Y-91745630D01*
X103095040Y-91745629D01*
X102882098Y-91699307D01*
X102815428Y-91684804D01*
X102815426Y-91684803D01*
X102815417Y-91684802D01*
X102530005Y-91664390D01*
X102529995Y-91664390D01*
X102244582Y-91684802D01*
X102244572Y-91684804D01*
X101964959Y-91745629D01*
X101696837Y-91845633D01*
X101445687Y-91982771D01*
X101216606Y-92154260D01*
X101014260Y-92356606D01*
X100842771Y-92585687D01*
X100705633Y-92836837D01*
X100605629Y-93104959D01*
X100544804Y-93384572D01*
X100544802Y-93384582D01*
X100524390Y-93669994D01*
X55535610Y-93669994D01*
X55515197Y-93384582D01*
X55515196Y-93384579D01*
X55515196Y-93384572D01*
X55454369Y-93104954D01*
X55354367Y-92836839D01*
X55305083Y-92746582D01*
X55217228Y-92585687D01*
X55148323Y-92493641D01*
X55045739Y-92356605D01*
X54843395Y-92154261D01*
X54752380Y-92086128D01*
X54614312Y-91982771D01*
X54363162Y-91845633D01*
X54199454Y-91784573D01*
X54095046Y-91745631D01*
X54095044Y-91745630D01*
X54095040Y-91745629D01*
X53882098Y-91699307D01*
X53815428Y-91684804D01*
X53815426Y-91684803D01*
X53815417Y-91684802D01*
X53530005Y-91664390D01*
X53529995Y-91664390D01*
X53244582Y-91684802D01*
X53244572Y-91684804D01*
X52964959Y-91745629D01*
X52696837Y-91845633D01*
X52445687Y-91982771D01*
X52216606Y-92154260D01*
X52014260Y-92356606D01*
X51842771Y-92585687D01*
X51705633Y-92836837D01*
X51605629Y-93104959D01*
X51544804Y-93384572D01*
X51544802Y-93384582D01*
X51524390Y-93669994D01*
X51030636Y-93669994D01*
X51030500Y-93665500D01*
X51030500Y-82854973D01*
X59060001Y-82854973D01*
X59070494Y-82957696D01*
X59125642Y-83124121D01*
X59217680Y-83273340D01*
X59341659Y-83397319D01*
X59490878Y-83489357D01*
X59657302Y-83544505D01*
X59657311Y-83544507D01*
X59760016Y-83554999D01*
X59810000Y-83554999D01*
X59810000Y-82580000D01*
X59060001Y-82580000D01*
X59060001Y-82854973D01*
X51030500Y-82854973D01*
X51030500Y-81805010D01*
X59060000Y-81805010D01*
X59060000Y-82080000D01*
X59810000Y-82080000D01*
X59810000Y-81105000D01*
X59760025Y-81105000D01*
X59657303Y-81115494D01*
X59490878Y-81170642D01*
X59341659Y-81262680D01*
X59217680Y-81386659D01*
X59125642Y-81535878D01*
X59070494Y-81702302D01*
X59070492Y-81702311D01*
X59060000Y-81805010D01*
X51030500Y-81805010D01*
X51030500Y-73284973D01*
X58920001Y-73284973D01*
X58930494Y-73387696D01*
X58985642Y-73554121D01*
X59077680Y-73703340D01*
X59201659Y-73827319D01*
X59350878Y-73919357D01*
X59517302Y-73974505D01*
X59517311Y-73974507D01*
X59620016Y-73984999D01*
X59670000Y-73984999D01*
X59670000Y-73010000D01*
X58920001Y-73010000D01*
X58920001Y-73284973D01*
X51030500Y-73284973D01*
X51030500Y-72235010D01*
X58920000Y-72235010D01*
X58920000Y-72510000D01*
X59670000Y-72510000D01*
X59670000Y-71535000D01*
X60170000Y-71535000D01*
X60170000Y-73984999D01*
X60219974Y-73984999D01*
X60322696Y-73974505D01*
X60489121Y-73919357D01*
X60638340Y-73827319D01*
X60764287Y-73701373D01*
X60831082Y-73662809D01*
X60908210Y-73662809D01*
X60975005Y-73701373D01*
X60977288Y-73703656D01*
X61101344Y-73827712D01*
X61204611Y-73891407D01*
X61257538Y-73947507D01*
X61275326Y-74022555D01*
X61253206Y-74096444D01*
X61211853Y-74140276D01*
X61143122Y-74188402D01*
X60988404Y-74343120D01*
X60988402Y-74343123D01*
X60862898Y-74522362D01*
X60776720Y-74707171D01*
X60770424Y-74720673D01*
X60713793Y-74932021D01*
X60694723Y-75149999D01*
X60694723Y-75150000D01*
X60713793Y-75367978D01*
X60770424Y-75579328D01*
X60770425Y-75579330D01*
X60862894Y-75777633D01*
X60862897Y-75777638D01*
X60912628Y-75848661D01*
X60988402Y-75956877D01*
X61143123Y-76111598D01*
X61322361Y-76237102D01*
X61322366Y-76237105D01*
X61432633Y-76288522D01*
X61520670Y-76329575D01*
X61732023Y-76386207D01*
X61950000Y-76405277D01*
X62167977Y-76386207D01*
X62167985Y-76386204D01*
X62174387Y-76385077D01*
X62174852Y-76387714D01*
X62239456Y-76387683D01*
X62306269Y-76426215D01*
X63115330Y-77235276D01*
X63158454Y-77264090D01*
X63221873Y-77306465D01*
X63221875Y-77306466D01*
X63221877Y-77306467D01*
X63278295Y-77329836D01*
X63340256Y-77355501D01*
X63370711Y-77361559D01*
X63439882Y-77395669D01*
X63482733Y-77459798D01*
X63487779Y-77536761D01*
X63453667Y-77605936D01*
X63447000Y-77613054D01*
X62306319Y-78753733D01*
X62239524Y-78792297D01*
X62174844Y-78792323D01*
X62174386Y-78794923D01*
X62167977Y-78793793D01*
X61950000Y-78774723D01*
X61732021Y-78793793D01*
X61520673Y-78850424D01*
X61520672Y-78850424D01*
X61520670Y-78850425D01*
X61322362Y-78942898D01*
X61322359Y-78942899D01*
X61322359Y-78942900D01*
X61143120Y-79068404D01*
X60988404Y-79223120D01*
X60988402Y-79223123D01*
X60862898Y-79402362D01*
X60831358Y-79470000D01*
X60770424Y-79600673D01*
X60713793Y-79812021D01*
X60694723Y-80029999D01*
X60694723Y-80030000D01*
X60713793Y-80247978D01*
X60770424Y-80459328D01*
X60770425Y-80459330D01*
X60862894Y-80657633D01*
X60862897Y-80657638D01*
X60923235Y-80743809D01*
X60987084Y-80834995D01*
X60988403Y-80836878D01*
X61143124Y-80991599D01*
X61214645Y-81041679D01*
X61264222Y-81100762D01*
X61277615Y-81176719D01*
X61251235Y-81249195D01*
X61234541Y-81269091D01*
X61115005Y-81388627D01*
X61048210Y-81427191D01*
X60971082Y-81427191D01*
X60904287Y-81388627D01*
X60778340Y-81262680D01*
X60629121Y-81170642D01*
X60462697Y-81115494D01*
X60462688Y-81115492D01*
X60359989Y-81105000D01*
X60310000Y-81105000D01*
X60310000Y-83554999D01*
X60359974Y-83554999D01*
X60462696Y-83544505D01*
X60629121Y-83489357D01*
X60778340Y-83397319D01*
X60904287Y-83271373D01*
X60971082Y-83232809D01*
X61048210Y-83232809D01*
X61115005Y-83271373D01*
X61117288Y-83273656D01*
X61241344Y-83397712D01*
X61390666Y-83489814D01*
X61557203Y-83544999D01*
X61659991Y-83555500D01*
X62260008Y-83555499D01*
X62362797Y-83544999D01*
X62529334Y-83489814D01*
X62678656Y-83397712D01*
X62802712Y-83273656D01*
X62894814Y-83124334D01*
X62949999Y-82957797D01*
X62960500Y-82855009D01*
X62960500Y-82783309D01*
X64545001Y-82783309D01*
X64555144Y-82882606D01*
X64555144Y-82882609D01*
X64608453Y-83043485D01*
X64697427Y-83187732D01*
X64817267Y-83307572D01*
X64961514Y-83396546D01*
X65122396Y-83449856D01*
X65122396Y-83449857D01*
X65221679Y-83459999D01*
X65270000Y-83459999D01*
X65770000Y-83459999D01*
X65818310Y-83459999D01*
X65917606Y-83449855D01*
X65917609Y-83449855D01*
X66078485Y-83396546D01*
X66222732Y-83307572D01*
X66342572Y-83187732D01*
X66431546Y-83043485D01*
X66484856Y-82882603D01*
X66484857Y-82882603D01*
X66494999Y-82783325D01*
X66495000Y-82783315D01*
X66495000Y-82760000D01*
X65770000Y-82760000D01*
X65770000Y-83459999D01*
X65270000Y-83459999D01*
X65270000Y-82760000D01*
X64545001Y-82760000D01*
X64545001Y-82783309D01*
X62960500Y-82783309D01*
X62960499Y-81804992D01*
X62949999Y-81702203D01*
X62894814Y-81535666D01*
X62802712Y-81386344D01*
X62678656Y-81262288D01*
X62678653Y-81262286D01*
X62677221Y-81260854D01*
X62638657Y-81194060D01*
X62638657Y-81116932D01*
X62677221Y-81050136D01*
X62697113Y-81033444D01*
X62756877Y-80991598D01*
X62911598Y-80836877D01*
X63037102Y-80657639D01*
X63129575Y-80459330D01*
X63186207Y-80247977D01*
X63205277Y-80030000D01*
X63205149Y-80028542D01*
X63203448Y-80009100D01*
X63186207Y-79812023D01*
X63186205Y-79812015D01*
X63185077Y-79805613D01*
X63187695Y-79805151D01*
X63187711Y-79740440D01*
X63226264Y-79673680D01*
X64105804Y-78794141D01*
X64172599Y-78755577D01*
X64211163Y-78750500D01*
X64521534Y-78750500D01*
X64596034Y-78770462D01*
X64650572Y-78825000D01*
X64670534Y-78899500D01*
X64652940Y-78969738D01*
X64591187Y-79085268D01*
X64533976Y-79273865D01*
X64514659Y-79470000D01*
X64533976Y-79666134D01*
X64591187Y-79854731D01*
X64684085Y-80028531D01*
X64684088Y-80028535D01*
X64684090Y-80028538D01*
X64718481Y-80070443D01*
X64750312Y-80140694D01*
X64742753Y-80217451D01*
X64708664Y-80270323D01*
X64697033Y-80281954D01*
X64607998Y-80426300D01*
X64565360Y-80554975D01*
X64554651Y-80587292D01*
X64544576Y-80685916D01*
X64544500Y-80686659D01*
X64544500Y-81233339D01*
X64550655Y-81293589D01*
X64554651Y-81332708D01*
X64607997Y-81493697D01*
X64697032Y-81638044D01*
X64697035Y-81638047D01*
X64700943Y-81642990D01*
X64731492Y-81713811D01*
X64722538Y-81790417D01*
X64700950Y-81827812D01*
X64697427Y-81832267D01*
X64608453Y-81976514D01*
X64555143Y-82137396D01*
X64555142Y-82137396D01*
X64545000Y-82236674D01*
X64545000Y-82260000D01*
X66494999Y-82260000D01*
X66494999Y-82236690D01*
X66484855Y-82137393D01*
X66484855Y-82137390D01*
X66431546Y-81976514D01*
X66342570Y-81832264D01*
X66339055Y-81827818D01*
X66308507Y-81756997D01*
X66317462Y-81680391D01*
X66339061Y-81642984D01*
X66342961Y-81638050D01*
X66342968Y-81638044D01*
X66432003Y-81493697D01*
X66485349Y-81332708D01*
X66495500Y-81233345D01*
X66495500Y-81128541D01*
X74126118Y-81128541D01*
X74145435Y-81324675D01*
X74202646Y-81513272D01*
X74295542Y-81687067D01*
X74295546Y-81687073D01*
X74295549Y-81687079D01*
X74420576Y-81839424D01*
X74572921Y-81964451D01*
X74572930Y-81964456D01*
X74572932Y-81964457D01*
X74746727Y-82057353D01*
X74746729Y-82057353D01*
X74746732Y-82057355D01*
X74935327Y-82114565D01*
X75131459Y-82133882D01*
X75327591Y-82114565D01*
X75516186Y-82057355D01*
X75689997Y-81964451D01*
X75842342Y-81839424D01*
X75967369Y-81687079D01*
X76060273Y-81513268D01*
X76117483Y-81324673D01*
X76136800Y-81128541D01*
X76117483Y-80932409D01*
X76060273Y-80743814D01*
X76060271Y-80743811D01*
X76060271Y-80743809D01*
X75967375Y-80570014D01*
X75967374Y-80570012D01*
X75967369Y-80570003D01*
X75842342Y-80417658D01*
X75689997Y-80292631D01*
X75689991Y-80292628D01*
X75689985Y-80292624D01*
X75516190Y-80199728D01*
X75327593Y-80142517D01*
X75131459Y-80123200D01*
X74935324Y-80142517D01*
X74746727Y-80199728D01*
X74572932Y-80292624D01*
X74572924Y-80292629D01*
X74572922Y-80292630D01*
X74572921Y-80292631D01*
X74420576Y-80417658D01*
X74303035Y-80560882D01*
X74295547Y-80570006D01*
X74295542Y-80570014D01*
X74202646Y-80743809D01*
X74145435Y-80932406D01*
X74126118Y-81128541D01*
X66495500Y-81128541D01*
X66495499Y-80686656D01*
X66485349Y-80587292D01*
X66432003Y-80426303D01*
X66342968Y-80281956D01*
X66331338Y-80270326D01*
X66292774Y-80203531D01*
X66292774Y-80126403D01*
X66321520Y-80070441D01*
X66355910Y-80028538D01*
X66448814Y-79854727D01*
X66506024Y-79666132D01*
X66525341Y-79470000D01*
X66506024Y-79273868D01*
X66448814Y-79085273D01*
X66448812Y-79085270D01*
X66448812Y-79085268D01*
X66372247Y-78942025D01*
X66354733Y-78866912D01*
X66377122Y-78793105D01*
X66388475Y-78777262D01*
X66403366Y-78759117D01*
X66485910Y-78658538D01*
X66578814Y-78484727D01*
X66636024Y-78296132D01*
X66655341Y-78100000D01*
X66636024Y-77903868D01*
X66578814Y-77715273D01*
X66578812Y-77715270D01*
X66578812Y-77715268D01*
X66485914Y-77541468D01*
X66485907Y-77541458D01*
X66444700Y-77491247D01*
X66412868Y-77420994D01*
X66420428Y-77344237D01*
X66444700Y-77302196D01*
X66455910Y-77288538D01*
X66548814Y-77114727D01*
X66606024Y-76926132D01*
X66625341Y-76730000D01*
X66606024Y-76533868D01*
X66548814Y-76345273D01*
X66548812Y-76345270D01*
X66548812Y-76345268D01*
X66455916Y-76171473D01*
X66455915Y-76171471D01*
X66455910Y-76171462D01*
X66330883Y-76019117D01*
X66178538Y-75894090D01*
X66178532Y-75894087D01*
X66178526Y-75894083D01*
X66004731Y-75801187D01*
X65816134Y-75743976D01*
X65620000Y-75724659D01*
X65423865Y-75743976D01*
X65235268Y-75801187D01*
X65061473Y-75894083D01*
X65061465Y-75894088D01*
X65061463Y-75894089D01*
X65061462Y-75894090D01*
X64985289Y-75956603D01*
X64909114Y-76019119D01*
X64904268Y-76025025D01*
X64841575Y-76069950D01*
X64789090Y-76079500D01*
X63861164Y-76079500D01*
X63786664Y-76059538D01*
X63755805Y-76035859D01*
X63226266Y-75506320D01*
X63187702Y-75439525D01*
X63187702Y-75374849D01*
X63185077Y-75374387D01*
X63186204Y-75367985D01*
X63186207Y-75367977D01*
X63205277Y-75150000D01*
X63186207Y-74932023D01*
X63129575Y-74720670D01*
X63037102Y-74522362D01*
X62911598Y-74343123D01*
X62756877Y-74188402D01*
X62756875Y-74188400D01*
X62664037Y-74123394D01*
X62614460Y-74064311D01*
X62600500Y-74001341D01*
X62600500Y-73827586D01*
X62620462Y-73753086D01*
X62644141Y-73722227D01*
X62649967Y-73716401D01*
X62662712Y-73703656D01*
X62754814Y-73554334D01*
X62809999Y-73387797D01*
X62820500Y-73285009D01*
X62820499Y-72234992D01*
X62809999Y-72132203D01*
X62754814Y-71965666D01*
X62662712Y-71816344D01*
X62538656Y-71692288D01*
X62389334Y-71600186D01*
X62284457Y-71565433D01*
X62222798Y-71545001D01*
X62205665Y-71543250D01*
X62120009Y-71534500D01*
X62120004Y-71534500D01*
X61519996Y-71534500D01*
X61417202Y-71545001D01*
X61250666Y-71600186D01*
X61101343Y-71692288D01*
X60975005Y-71818627D01*
X60908210Y-71857191D01*
X60831082Y-71857191D01*
X60764287Y-71818627D01*
X60638340Y-71692680D01*
X60489121Y-71600642D01*
X60322697Y-71545494D01*
X60322688Y-71545492D01*
X60219989Y-71535000D01*
X60170000Y-71535000D01*
X59670000Y-71535000D01*
X59620025Y-71535000D01*
X59517303Y-71545494D01*
X59350878Y-71600642D01*
X59201659Y-71692680D01*
X59077680Y-71816659D01*
X58985642Y-71965878D01*
X58930494Y-72132302D01*
X58930492Y-72132311D01*
X58920000Y-72235010D01*
X51030500Y-72235010D01*
X51030500Y-69674499D01*
X51030636Y-69669994D01*
X51524390Y-69669994D01*
X51524390Y-69670005D01*
X51544802Y-69955417D01*
X51544803Y-69955426D01*
X51544804Y-69955428D01*
X51545494Y-69958599D01*
X51605629Y-70235040D01*
X51705633Y-70503162D01*
X51842771Y-70754312D01*
X51903165Y-70834988D01*
X52014261Y-70983395D01*
X52216605Y-71185739D01*
X52353641Y-71288323D01*
X52445687Y-71357228D01*
X52684560Y-71487662D01*
X52696839Y-71494367D01*
X52964954Y-71594369D01*
X53244572Y-71655196D01*
X53244579Y-71655196D01*
X53244582Y-71655197D01*
X53529995Y-71675610D01*
X53530000Y-71675610D01*
X53530005Y-71675610D01*
X53815417Y-71655197D01*
X53815418Y-71655196D01*
X53815428Y-71655196D01*
X54095046Y-71594369D01*
X54363161Y-71494367D01*
X54540865Y-71397333D01*
X54614312Y-71357228D01*
X54614315Y-71357226D01*
X54843395Y-71185739D01*
X55045739Y-70983395D01*
X55217226Y-70754315D01*
X55354367Y-70503161D01*
X55454369Y-70235046D01*
X55515196Y-69955428D01*
X55515197Y-69955417D01*
X55516864Y-69932114D01*
X65339500Y-69932114D01*
X65339500Y-71727863D01*
X65339502Y-71727888D01*
X65345908Y-71787478D01*
X65345909Y-71787484D01*
X65396202Y-71922329D01*
X65396204Y-71922333D01*
X65482452Y-72037544D01*
X65482455Y-72037547D01*
X65597666Y-72123795D01*
X65597670Y-72123797D01*
X65732517Y-72174091D01*
X65792114Y-72180499D01*
X65792118Y-72180499D01*
X65792127Y-72180500D01*
X67587872Y-72180499D01*
X67647483Y-72174091D01*
X67759791Y-72132203D01*
X67782329Y-72123797D01*
X67782333Y-72123795D01*
X67839938Y-72080671D01*
X67897546Y-72037546D01*
X67951197Y-71965878D01*
X67983795Y-71922333D01*
X67983798Y-71922327D01*
X68019215Y-71827367D01*
X68063953Y-71764540D01*
X68134110Y-71732498D01*
X68210889Y-71739829D01*
X68264180Y-71774076D01*
X68358599Y-71868495D01*
X68552170Y-72004035D01*
X68766337Y-72103903D01*
X68994592Y-72165063D01*
X69230000Y-72185659D01*
X69465408Y-72165063D01*
X69693663Y-72103903D01*
X69907830Y-72004035D01*
X70101401Y-71868495D01*
X70268495Y-71701401D01*
X70377947Y-71545086D01*
X70437030Y-71495511D01*
X70512986Y-71482118D01*
X70585463Y-71508497D01*
X70622051Y-71545085D01*
X70731505Y-71701401D01*
X70898599Y-71868495D01*
X71092170Y-72004035D01*
X71306337Y-72103903D01*
X71534592Y-72165063D01*
X71770000Y-72185659D01*
X72005408Y-72165063D01*
X72233663Y-72103903D01*
X72447830Y-72004035D01*
X72641401Y-71868495D01*
X72808495Y-71701401D01*
X72918253Y-71544650D01*
X72977335Y-71495075D01*
X73053291Y-71481682D01*
X73125768Y-71508061D01*
X73162358Y-71544652D01*
X73271888Y-71701076D01*
X73438923Y-71868111D01*
X73632411Y-72003593D01*
X73632420Y-72003599D01*
X73846508Y-72103430D01*
X73846513Y-72103432D01*
X74060000Y-72160634D01*
X74060000Y-71263012D01*
X74117007Y-71295925D01*
X74244174Y-71330000D01*
X74375826Y-71330000D01*
X74502993Y-71295925D01*
X74560000Y-71263012D01*
X74560000Y-72160633D01*
X74773486Y-72103432D01*
X74773491Y-72103430D01*
X74987579Y-72003599D01*
X74987588Y-72003593D01*
X75181076Y-71868111D01*
X75348111Y-71701076D01*
X75483593Y-71507588D01*
X75483599Y-71507579D01*
X75583430Y-71293491D01*
X75583431Y-71293489D01*
X75640636Y-71080000D01*
X74743012Y-71080000D01*
X74775925Y-71022993D01*
X74810000Y-70895826D01*
X74810000Y-70764174D01*
X74775925Y-70637007D01*
X74743012Y-70580000D01*
X75640636Y-70580000D01*
X75640635Y-70579999D01*
X75583431Y-70366512D01*
X75483597Y-70152419D01*
X75348108Y-69958920D01*
X75181076Y-69791888D01*
X74987588Y-69656406D01*
X74987579Y-69656400D01*
X74773491Y-69556569D01*
X74773489Y-69556568D01*
X74560000Y-69499364D01*
X74560000Y-70396988D01*
X74502993Y-70364075D01*
X74375826Y-70330000D01*
X74244174Y-70330000D01*
X74117007Y-70364075D01*
X74060000Y-70396988D01*
X74060000Y-69499364D01*
X74059999Y-69499364D01*
X73846512Y-69556568D01*
X73632419Y-69656402D01*
X73438920Y-69791891D01*
X73271888Y-69958923D01*
X73162358Y-70115348D01*
X73103275Y-70164925D01*
X73027318Y-70178318D01*
X72954842Y-70151938D01*
X72918251Y-70115348D01*
X72917946Y-70114912D01*
X72808495Y-69958599D01*
X72641401Y-69791505D01*
X72447830Y-69655965D01*
X72233663Y-69556097D01*
X72233661Y-69556096D01*
X72005409Y-69494937D01*
X71770000Y-69474341D01*
X71534590Y-69494937D01*
X71306340Y-69556096D01*
X71306339Y-69556096D01*
X71306337Y-69556097D01*
X71092171Y-69655965D01*
X71092168Y-69655966D01*
X71092168Y-69655967D01*
X70898596Y-69791507D01*
X70731506Y-69958597D01*
X70622054Y-70114912D01*
X70562970Y-70164489D01*
X70487014Y-70177882D01*
X70414537Y-70151503D01*
X70377946Y-70114912D01*
X70334239Y-70052492D01*
X70268495Y-69958599D01*
X70101401Y-69791505D01*
X69907830Y-69655965D01*
X69693663Y-69556097D01*
X69693661Y-69556096D01*
X69465409Y-69494937D01*
X69230000Y-69474341D01*
X68994590Y-69494937D01*
X68766340Y-69556096D01*
X68766339Y-69556096D01*
X68766337Y-69556097D01*
X68552171Y-69655965D01*
X68552168Y-69655966D01*
X68552168Y-69655967D01*
X68358593Y-69791509D01*
X68264179Y-69885923D01*
X68197384Y-69924487D01*
X68120256Y-69924487D01*
X68053462Y-69885922D01*
X68019215Y-69832633D01*
X68003876Y-69791506D01*
X67983796Y-69737669D01*
X67983795Y-69737668D01*
X67983795Y-69737666D01*
X67897547Y-69622455D01*
X67897544Y-69622452D01*
X67782333Y-69536204D01*
X67782329Y-69536202D01*
X67647482Y-69485908D01*
X67587876Y-69479500D01*
X65792136Y-69479500D01*
X65792111Y-69479502D01*
X65732521Y-69485908D01*
X65732515Y-69485909D01*
X65597670Y-69536202D01*
X65597666Y-69536204D01*
X65482455Y-69622452D01*
X65482452Y-69622455D01*
X65396204Y-69737666D01*
X65396202Y-69737670D01*
X65345908Y-69872517D01*
X65339500Y-69932114D01*
X55516864Y-69932114D01*
X55535610Y-69670005D01*
X55535610Y-69669994D01*
X55515197Y-69384582D01*
X55515196Y-69384579D01*
X55515196Y-69384572D01*
X55454369Y-69104954D01*
X55354367Y-68836839D01*
X55324587Y-68782301D01*
X55217228Y-68585687D01*
X55127889Y-68466345D01*
X55045739Y-68356605D01*
X54843395Y-68154261D01*
X54750504Y-68084724D01*
X54614312Y-67982771D01*
X54363162Y-67845633D01*
X54199454Y-67784573D01*
X54095046Y-67745631D01*
X54095044Y-67745630D01*
X54095040Y-67745629D01*
X53882098Y-67699307D01*
X53815428Y-67684804D01*
X53815426Y-67684803D01*
X53815417Y-67684802D01*
X53530005Y-67664390D01*
X53529995Y-67664390D01*
X53244582Y-67684802D01*
X53244572Y-67684804D01*
X52964959Y-67745629D01*
X52696837Y-67845633D01*
X52445687Y-67982771D01*
X52216606Y-68154260D01*
X52014260Y-68356606D01*
X51842771Y-68585687D01*
X51705633Y-68836837D01*
X51605629Y-69104959D01*
X51544804Y-69384572D01*
X51544802Y-69384582D01*
X51524390Y-69669994D01*
X51030636Y-69669994D01*
X51030772Y-69665503D01*
X51031322Y-69656406D01*
X51048180Y-69377699D01*
X51050346Y-69359867D01*
X51101507Y-69080688D01*
X51105812Y-69063225D01*
X51190247Y-68792263D01*
X51196620Y-68775459D01*
X51313110Y-68516628D01*
X51321463Y-68500714D01*
X51468293Y-68257827D01*
X51478503Y-68243036D01*
X51653543Y-68019613D01*
X51665459Y-68006162D01*
X51866162Y-67805459D01*
X51879613Y-67793543D01*
X52103036Y-67618503D01*
X52117827Y-67608293D01*
X52360714Y-67461463D01*
X52376628Y-67453110D01*
X52635459Y-67336620D01*
X52652263Y-67330247D01*
X52923231Y-67245810D01*
X52940688Y-67241507D01*
X53219867Y-67190346D01*
X53237699Y-67188180D01*
X53525503Y-67170771D01*
X53534499Y-67170500D01*
X53595892Y-67170500D01*
X56464108Y-67170500D01*
X85439836Y-67170500D01*
X85514336Y-67190462D01*
G37*
%TD.AperFunction*%
%TA.AperFunction,Conductor*%
G36*
X87622152Y-68580462D02*
G01*
X87676690Y-68635000D01*
X87696652Y-68709500D01*
X87689088Y-68756370D01*
X87680494Y-68782301D01*
X87680492Y-68782312D01*
X87670000Y-68885011D01*
X87670000Y-69610000D01*
X90170000Y-69610000D01*
X90170000Y-68885021D01*
X90169999Y-68885011D01*
X90159507Y-68782312D01*
X90159505Y-68782301D01*
X90150912Y-68756370D01*
X90146426Y-68679372D01*
X90181040Y-68610447D01*
X90245478Y-68568064D01*
X90292348Y-68560500D01*
X90797125Y-68560500D01*
X90871625Y-68580462D01*
X90926163Y-68635000D01*
X90946125Y-68709500D01*
X90938562Y-68756366D01*
X90933659Y-68771163D01*
X90930002Y-68782201D01*
X90930001Y-68782203D01*
X90919500Y-68884992D01*
X90919500Y-70835008D01*
X90930001Y-70937797D01*
X90985116Y-71104124D01*
X90985187Y-71104336D01*
X91077289Y-71253655D01*
X91181845Y-71358211D01*
X91220409Y-71425006D01*
X91220409Y-71502134D01*
X91181845Y-71568929D01*
X91156747Y-71589106D01*
X91150704Y-71592969D01*
X91002282Y-71712274D01*
X91002280Y-71712276D01*
X91002278Y-71712278D01*
X90989751Y-71727863D01*
X90966132Y-71757246D01*
X90903898Y-71802805D01*
X90827222Y-71811144D01*
X90756649Y-71780027D01*
X90733868Y-71757246D01*
X90719868Y-71739829D01*
X90697722Y-71712278D01*
X90652105Y-71675610D01*
X90549297Y-71592970D01*
X90549292Y-71592967D01*
X90378693Y-71508359D01*
X90193887Y-71462399D01*
X90151100Y-71459498D01*
X90148595Y-71459414D01*
X90148623Y-71458561D01*
X90077627Y-71439538D01*
X90023089Y-71385000D01*
X90003127Y-71310500D01*
X90023089Y-71236000D01*
X90025310Y-71232280D01*
X90104356Y-71104124D01*
X90104357Y-71104121D01*
X90159505Y-70937696D01*
X90159507Y-70937687D01*
X90169999Y-70834988D01*
X90170000Y-70834978D01*
X90170000Y-70110000D01*
X87670000Y-70110000D01*
X87670000Y-70834988D01*
X87680492Y-70937687D01*
X87680494Y-70937696D01*
X87735642Y-71104120D01*
X87814999Y-71232779D01*
X87837119Y-71306667D01*
X87819332Y-71381716D01*
X87766403Y-71437817D01*
X87692515Y-71459937D01*
X87688182Y-71460000D01*
X87650000Y-71460000D01*
X87650000Y-74460000D01*
X87851090Y-74460000D01*
X87893818Y-74457103D01*
X88078521Y-74411169D01*
X88249027Y-74326606D01*
X88397363Y-74207370D01*
X88397369Y-74207364D01*
X88433547Y-74162357D01*
X88495780Y-74116797D01*
X88572456Y-74108457D01*
X88643029Y-74139573D01*
X88665807Y-74162350D01*
X88702278Y-74207722D01*
X88738769Y-74237054D01*
X88850702Y-74327029D01*
X88850707Y-74327032D01*
X88966702Y-74384560D01*
X89024575Y-74435545D01*
X89049203Y-74508635D01*
X89049500Y-74518045D01*
X89049500Y-77329836D01*
X89029538Y-77404336D01*
X88975000Y-77458874D01*
X88900500Y-77478836D01*
X88826000Y-77458874D01*
X88795141Y-77435195D01*
X86769669Y-75409723D01*
X86663127Y-75338535D01*
X86663123Y-75338533D01*
X86663121Y-75338532D01*
X86582668Y-75305207D01*
X86544744Y-75289499D01*
X86544742Y-75289498D01*
X86544743Y-75289498D01*
X86529461Y-75286459D01*
X86419072Y-75264500D01*
X86419069Y-75264500D01*
X86028354Y-75264500D01*
X85953854Y-75244538D01*
X85899316Y-75190000D01*
X85886917Y-75162369D01*
X85864814Y-75095666D01*
X85772711Y-74946345D01*
X85648655Y-74822289D01*
X85499334Y-74730186D01*
X85415332Y-74702350D01*
X85332798Y-74675001D01*
X85332799Y-74675001D01*
X85298534Y-74671500D01*
X85230008Y-74664500D01*
X83279992Y-74664500D01*
X83211466Y-74671500D01*
X83177201Y-74675001D01*
X83010663Y-74730187D01*
X82861344Y-74822289D01*
X82737289Y-74946344D01*
X82645187Y-75095663D01*
X82590001Y-75262201D01*
X82587212Y-75289499D01*
X82579500Y-75364992D01*
X82579500Y-76465008D01*
X82586535Y-76533868D01*
X82590001Y-76567798D01*
X82591384Y-76571971D01*
X82624207Y-76671025D01*
X82645187Y-76734336D01*
X82671724Y-76777358D01*
X82737289Y-76883655D01*
X82861345Y-77007711D01*
X83010666Y-77099814D01*
X83177203Y-77154999D01*
X83279992Y-77165500D01*
X83279996Y-77165500D01*
X85230004Y-77165500D01*
X85230008Y-77165500D01*
X85332797Y-77154999D01*
X85499334Y-77099814D01*
X85648655Y-77007711D01*
X85772711Y-76883655D01*
X85864814Y-76734334D01*
X85885793Y-76671023D01*
X85928175Y-76606586D01*
X85997099Y-76571971D01*
X86074097Y-76576456D01*
X86132588Y-76612534D01*
X87484743Y-77964689D01*
X87523307Y-78031484D01*
X87523307Y-78108612D01*
X87494863Y-78164206D01*
X87460302Y-78206592D01*
X87366091Y-78386949D01*
X87325400Y-78529160D01*
X87285713Y-78595294D01*
X87218276Y-78632724D01*
X87211239Y-78634303D01*
X87210261Y-78634497D01*
X87210252Y-78634500D01*
X87091878Y-78683532D01*
X87091870Y-78683537D01*
X86985332Y-78754722D01*
X86985330Y-78754723D01*
X86584195Y-79155859D01*
X86517400Y-79194423D01*
X86478836Y-79199500D01*
X81904406Y-79199500D01*
X81829906Y-79179538D01*
X81775368Y-79125000D01*
X81755406Y-79050500D01*
X81775368Y-78976000D01*
X81799047Y-78945141D01*
X81948111Y-78796076D01*
X82083593Y-78602588D01*
X82083599Y-78602579D01*
X82183430Y-78388491D01*
X82183431Y-78388489D01*
X82240636Y-78175000D01*
X81343012Y-78175000D01*
X81375925Y-78117993D01*
X81410000Y-77990826D01*
X81410000Y-77859174D01*
X81375925Y-77732007D01*
X81343012Y-77675000D01*
X82240636Y-77675000D01*
X82240635Y-77674999D01*
X82183431Y-77461512D01*
X82083597Y-77247419D01*
X81948108Y-77053920D01*
X81781076Y-76886888D01*
X81624652Y-76777358D01*
X81575075Y-76718275D01*
X81561682Y-76642318D01*
X81588062Y-76569842D01*
X81624648Y-76533254D01*
X81781401Y-76423495D01*
X81948495Y-76256401D01*
X82084035Y-76062830D01*
X82183903Y-75848663D01*
X82245063Y-75620408D01*
X82265659Y-75385000D01*
X82245063Y-75149592D01*
X82183903Y-74921337D01*
X82084035Y-74707171D01*
X81948495Y-74513599D01*
X81781401Y-74346505D01*
X81625086Y-74237052D01*
X81575511Y-74177970D01*
X81562118Y-74102014D01*
X81588497Y-74029537D01*
X81625085Y-73992948D01*
X81781401Y-73883495D01*
X81948495Y-73716401D01*
X82084035Y-73522830D01*
X82183903Y-73308663D01*
X82209003Y-73214988D01*
X82580000Y-73214988D01*
X82590492Y-73317687D01*
X82590494Y-73317696D01*
X82645642Y-73484120D01*
X82737680Y-73633339D01*
X82861660Y-73757319D01*
X83010879Y-73849357D01*
X83177303Y-73904505D01*
X83177312Y-73904507D01*
X83280011Y-73914999D01*
X83280022Y-73915000D01*
X84005000Y-73915000D01*
X84505000Y-73915000D01*
X85229978Y-73915000D01*
X85229988Y-73914999D01*
X85332687Y-73904507D01*
X85332696Y-73904505D01*
X85499120Y-73849357D01*
X85648339Y-73757319D01*
X85772319Y-73633339D01*
X85864357Y-73484121D01*
X85865959Y-73480686D01*
X85867910Y-73478359D01*
X85868913Y-73476735D01*
X85869151Y-73476881D01*
X85915535Y-73421602D01*
X85988012Y-73395221D01*
X86063968Y-73408613D01*
X86123052Y-73458189D01*
X86149433Y-73530666D01*
X86150000Y-73543654D01*
X86150000Y-73661090D01*
X86152896Y-73703818D01*
X86198830Y-73888521D01*
X86283393Y-74059027D01*
X86402629Y-74207363D01*
X86402636Y-74207370D01*
X86550972Y-74326606D01*
X86721478Y-74411169D01*
X86906181Y-74457103D01*
X86948910Y-74460000D01*
X87150000Y-74460000D01*
X87150000Y-71460000D01*
X86948910Y-71460000D01*
X86906181Y-71462896D01*
X86721478Y-71508830D01*
X86550972Y-71593393D01*
X86402636Y-71712629D01*
X86402629Y-71712636D01*
X86283392Y-71860972D01*
X86196159Y-72036864D01*
X86145174Y-72094737D01*
X86072084Y-72119365D01*
X85996472Y-72104147D01*
X85938599Y-72053162D01*
X85921237Y-72017530D01*
X85864357Y-71845879D01*
X85772319Y-71696660D01*
X85648339Y-71572680D01*
X85499120Y-71480642D01*
X85332696Y-71425494D01*
X85332687Y-71425492D01*
X85229988Y-71415000D01*
X84505000Y-71415000D01*
X84505000Y-73915000D01*
X84005000Y-73915000D01*
X84005000Y-72915000D01*
X82580000Y-72915000D01*
X82580000Y-73214988D01*
X82209003Y-73214988D01*
X82245063Y-73080408D01*
X82265659Y-72845000D01*
X82245063Y-72609592D01*
X82183903Y-72381337D01*
X82084035Y-72167171D01*
X82047512Y-72115011D01*
X82580000Y-72115011D01*
X82580000Y-72415000D01*
X84005000Y-72415000D01*
X84005000Y-71415000D01*
X83280011Y-71415000D01*
X83177312Y-71425492D01*
X83177303Y-71425494D01*
X83010879Y-71480642D01*
X82861660Y-71572680D01*
X82737680Y-71696660D01*
X82645642Y-71845879D01*
X82590494Y-72012303D01*
X82590492Y-72012312D01*
X82580000Y-72115011D01*
X82047512Y-72115011D01*
X81948495Y-71973599D01*
X81854075Y-71879179D01*
X81815512Y-71812385D01*
X81815512Y-71735257D01*
X81854076Y-71668462D01*
X81907366Y-71634215D01*
X81938278Y-71622685D01*
X82002327Y-71598798D01*
X82002333Y-71598795D01*
X82073536Y-71545492D01*
X82117546Y-71512546D01*
X82182715Y-71425492D01*
X82203795Y-71397333D01*
X82203797Y-71397329D01*
X82241618Y-71295925D01*
X82254091Y-71262483D01*
X82257573Y-71230099D01*
X82260499Y-71202885D01*
X82260500Y-71202867D01*
X82260500Y-71104500D01*
X82280462Y-71030000D01*
X82335000Y-70975462D01*
X82409500Y-70955500D01*
X83649065Y-70955500D01*
X83649069Y-70955500D01*
X83774744Y-70930501D01*
X83893127Y-70881465D01*
X83999669Y-70810277D01*
X86205805Y-68604141D01*
X86272600Y-68565577D01*
X86311164Y-68560500D01*
X87547652Y-68560500D01*
X87622152Y-68580462D01*
G37*
%TD.AperFunction*%
%TD*%
M02*
