%TF.GenerationSoftware,KiCad,Pcbnew,8.0.7*%
%TF.CreationDate,2025-04-18T18:12:16+03:00*%
%TF.ProjectId,PUBG_KEY,50554247-5f4b-4455-992e-6b696361645f,rev?*%
%TF.SameCoordinates,Original*%
%TF.FileFunction,Profile,NP*%
%FSLAX46Y46*%
G04 Gerber Fmt 4.6, Leading zero omitted, Abs format (unit mm)*
G04 Created by KiCad (PCBNEW 8.0.7) date 2025-04-18 18:12:16*
%MOMM*%
%LPD*%
G01*
G04 APERTURE LIST*
%TA.AperFunction,Profile*%
%ADD10C,0.100000*%
%TD*%
G04 APERTURE END LIST*
D10*
X99530000Y-96670000D02*
X102530000Y-96670000D01*
X104030000Y-69670000D02*
G75*
G02*
X101030000Y-69670000I-1500000J0D01*
G01*
X101030000Y-69670000D02*
G75*
G02*
X104030000Y-69670000I1500000J0D01*
G01*
X105530000Y-93670000D02*
X105530000Y-69670000D01*
X102530000Y-66670000D02*
X99530000Y-66670000D01*
X56530000Y-96670000D02*
X99530000Y-96670000D01*
X99530000Y-66670000D02*
X56530000Y-66670000D01*
X50530000Y-69670000D02*
G75*
G02*
X53530000Y-66670000I3000000J0D01*
G01*
X55030000Y-93670000D02*
G75*
G02*
X52030000Y-93670000I-1500000J0D01*
G01*
X52030000Y-93670000D02*
G75*
G02*
X55030000Y-93670000I1500000J0D01*
G01*
X105530000Y-93670000D02*
G75*
G02*
X102530000Y-96670000I-3000000J0D01*
G01*
X50530000Y-69670000D02*
X50530000Y-93670000D01*
X56530000Y-96670000D02*
X53530000Y-96670000D01*
X55030000Y-69670000D02*
G75*
G02*
X52030000Y-69670000I-1500000J0D01*
G01*
X52030000Y-69670000D02*
G75*
G02*
X55030000Y-69670000I1500000J0D01*
G01*
X53530000Y-96670000D02*
G75*
G02*
X50530000Y-93670000I0J3000000D01*
G01*
X102530000Y-66670000D02*
G75*
G02*
X105530000Y-69670000I0J-3000000D01*
G01*
X104030000Y-93670000D02*
G75*
G02*
X101030000Y-93670000I-1500000J0D01*
G01*
X101030000Y-93670000D02*
G75*
G02*
X104030000Y-93670000I1500000J0D01*
G01*
X56530000Y-66670000D02*
X53530000Y-66670000D01*
M02*
