M48
; DRILL file {KiCad 8.0.7} date 2025-01-20T20:20:37+0300
; FORMAT={-:-/ absolute / inch / decimal}
; #@! TF.CreationDate,2025-01-20T20:20:37+03:00
; #@! TF.GenerationSoftware,Kicad,Pcbnew,8.0.7
; #@! TF.FileFunction,Plated,1,2,PTH
FMAT,2
INCH
; #@! TA.AperFunction,Plated,PTH,ViaDrill
T1C0.0157
; #@! TA.AperFunction,Plated,PTH,ComponentDrill
T2C0.0315
; #@! TA.AperFunction,Plated,PTH,ComponentDrill
T3C0.0394
; #@! TA.AperFunction,Plated,PTH,ComponentDrill
T4C0.0512
%
G90
G05
T1
X2.5024Y-3.3764
X2.5795Y-3.1287
X2.5835Y-3.0209
X2.5846Y-3.0748
X2.5894Y-2.8933
X2.7598Y-3.3783
X2.9579Y-3.194
X3.0528Y-3.3791
X3.0677Y-3.1437
X3.2748Y-2.6689
X3.3827Y-3.3783
X3.4341Y-2.7787
X3.5067Y-3.2303
T2
X2.439Y-2.9587
X2.439Y-3.1508
T3
X2.6256Y-2.7886
X2.7256Y-2.7886
X2.8256Y-2.7886
X2.9256Y-2.7886
X3.1854Y-2.7679
X3.1854Y-2.8679
X3.1854Y-2.9679
X3.1854Y-3.0679
T4
X2.4484Y-3.5508
X2.6484Y-3.5508
X2.8484Y-3.5508
X3.0484Y-3.5508
X3.2484Y-3.5508
X3.4484Y-3.5508
M30
